  0
SECTION
  2
HEADER
  9
$ACADVER
  1
AC1032
  9
$ACADMAINTVER
 90
      377
  9
$DWGCODEPAGE
  3
ANSI_1252
  9
$LASTSAVEDBY
  1
User
  9
$REQUIREDVERSIONS
160
                 0
  9
$INSBASE
 10
0.0
 20
0.0
 30
0.0
  9
$EXTMIN
 10
0.0
 20
0.0
 30
0.0
  9
$EXTMAX
 10
1200.0
 20
900.0
 30
0.0
  9
$LIMMIN
 10
0.0
 20
0.0
  9
$LIMMAX
 10
12.0
 20
9.0
  9
$ORTHOMODE
 70
     0
  9
$REGENMODE
 70
     1
  9
$FILLMODE
 70
     1
  9
$QTEXTMODE
 70
     0
  9
$MIRRTEXT
 70
     0
  9
$LTSCALE
 40
1.0
  9
$ATTMODE
 70
     1
  9
$TEXTSIZE
 40
0.2
  9
$TRACEWID
 40
0.05
  9
$TEXTSTYLE
  7
Standard
  9
$CLAYER
  8
0
  9
$CELTYPE
  6
ByLayer
  9
$CECOLOR
 62
   256
  9
$CELTSCALE
 40
1.0
  9
$DISPSILH
 70
     0
  9
$DIMSCALE
 40
1.0
  9
$DIMASZ
 40
0.18
  9
$DIMEXO
 40
0.0625
  9
$DIMDLI
 40
0.38
  9
$DIMRND
 40
0.0
  9
$DIMDLE
 40
0.0
  9
$DIMEXE
 40
0.18
  9
$DIMTP
 40
0.0
  9
$DIMTM
 40
0.0
  9
$DIMTXT
 40
0.18
  9
$DIMCEN
 40
0.09
  9
$DIMTSZ
 40
0.0
  9
$DIMTOL
 70
     0
  9
$DIMLIM
 70
     0
  9
$DIMTIH
 70
     1
  9
$DIMTOH
 70
     1
  9
$DIMSE1
 70
     0
  9
$DIMSE2
 70
     0
  9
$DIMTAD
 70
     0
  9
$DIMZIN
 70
     0
  9
$DIMBLK
  1

  9
$DIMASO
 70
     1
  9
$DIMSHO
 70
     1
  9
$DIMPOST
  1

  9
$DIMAPOST
  1

  9
$DIMALT
 70
     0
  9
$DIMALTD
 70
     2
  9
$DIMALTF
 40
25.4
  9
$DIMLFAC
 40
1.0
  9
$DIMTOFL
 70
     0
  9
$DIMTVP
 40
0.0
  9
$DIMTIX
 70
     0
  9
$DIMSOXD
 70
     0
  9
$DIMSAH
 70
     0
  9
$DIMBLK1
  1

  9
$DIMBLK2
  1

  9
$DIMSTYLE
  2
STANDARD_ACAD
  9
$DIMCLRD
 70
     0
  9
$DIMCLRE
 70
     0
  9
$DIMCLRT
 70
     0
  9
$DIMTFAC
 40
1.0
  9
$DIMGAP
 40
0.09
  9
$DIMJUST
 70
     0
  9
$DIMSD1
 70
     0
  9
$DIMSD2
 70
     0
  9
$DIMTOLJ
 70
     1
  9
$DIMTZIN
 70
     0
  9
$DIMALTZ
 70
     0
  9
$DIMALTTZ
 70
     0
  9
$DIMUPT
 70
     0
  9
$DIMDEC
 70
     4
  9
$DIMTDEC
 70
     4
  9
$DIMALTU
 70
     2
  9
$DIMALTTD
 70
     2
  9
$DIMTXSTY
  7
Standard
  9
$DIMAUNIT
 70
     0
  9
$DIMADEC
 70
     0
  9
$DIMALTRND
 40
0.0
  9
$DIMAZIN
 70
     0
  9
$DIMDSEP
 70
    46
  9
$DIMATFIT
 70
     3
  9
$DIMFRAC
 70
     0
  9
$DIMLDRBLK
  1

  9
$DIMLUNIT
 70
     2
  9
$DIMLWD
 70
    -2
  9
$DIMLWE
 70
    -2
  9
$DIMTMOVE
 70
     2
  9
$DIMFXL
 40
1.0
  9
$DIMFXLON
 70
     0
  9
$DIMJOGANG
 40
0.7853981633974483
  9
$DIMTFILL
 70
     0
  9
$DIMTFILLCLR
 70
     0
  9
$DIMARCSYM
 70
     0
  9
$DIMLTYPE
  6

  9
$DIMLTEX1
  6

  9
$DIMLTEX2
  6

  9
$DIMTXTDIRECTION
 70
     0
  9
$LUNITS
 70
     2
  9
$LUPREC
 70
     3
  9
$SKETCHINC
 40
0.1
  9
$FILLETRAD
 40
0.0
  9
$AUNITS
 70
     0
  9
$AUPREC
 70
     0
  9
$MENU
  1
.
  9
$ELEVATION
 40
0.0
  9
$PELEVATION
 40
0.0
  9
$THICKNESS
 40
0.0
  9
$LIMCHECK
 70
     0
  9
$CHAMFERA
 40
0.0
  9
$CHAMFERB
 40
0.0
  9
$CHAMFERC
 40
0.0
  9
$CHAMFERD
 40
0.0
  9
$SKPOLY
 70
     0
  9
$TDCREATE
 40
2460892.566377315
  9
$TDUCREATE
 40
2460892.233047917
  9
$TDUPDATE
 40
2460892.568692130
  9
$TDUUPDATE
 40
2460892.235358796
  9
$TDINDWG
 40
0.0019907523
  9
$TDUSRTIMER
 40
0.0019907523
  9
$USRTIMER
 70
     1
  9
$ANGBASE
 50
0.0
  9
$ANGDIR
 70
     0
  9
$PDMODE
 70
     0
  9
$PDSIZE
 40
0.0
  9
$PLINEWID
 40
0.0
  9
$SPLFRAME
 70
     0
  9
$SPLINETYPE
 70
     6
  9
$SPLINESEGS
 70
     8
  9
$HANDSEED
  5
1B5
  9
$SURFTAB1
 70
     6
  9
$SURFTAB2
 70
     6
  9
$SURFTYPE
 70
     6
  9
$SURFU
 70
     6
  9
$SURFV
 70
     6
  9
$UCSBASE
  2

  9
$UCSNAME
  2

  9
$UCSORG
 10
0.0
 20
0.0
 30
0.0
  9
$UCSXDIR
 10
1.0
 20
0.0
 30
0.0
  9
$UCSYDIR
 10
0.0
 20
1.0
 30
0.0
  9
$UCSORTHOREF
  2

  9
$UCSORTHOVIEW
 70
     0
  9
$UCSORGTOP
 10
0.0
 20
0.0
 30
0.0
  9
$UCSORGBOTTOM
 10
0.0
 20
0.0
 30
0.0
  9
$UCSORGLEFT
 10
0.0
 20
0.0
 30
0.0
  9
$UCSORGRIGHT
 10
0.0
 20
0.0
 30
0.0
  9
$UCSORGFRONT
 10
0.0
 20
0.0
 30
0.0
  9
$UCSORGBACK
 10
0.0
 20
0.0
 30
0.0
  9
$PUCSBASE
  2

  9
$PUCSNAME
  2

  9
$PUCSORG
 10
0.0
 20
0.0
 30
0.0
  9
$PUCSXDIR
 10
1.0
 20
0.0
 30
0.0
  9
$PUCSYDIR
 10
0.0
 20
1.0
 30
0.0
  9
$PUCSORTHOREF
  2

  9
$PUCSORTHOVIEW
 70
     0
  9
$PUCSORGTOP
 10
0.0
 20
0.0
 30
0.0
  9
$PUCSORGBOTTOM
 10
0.0
 20
0.0
 30
0.0
  9
$PUCSORGLEFT
 10
0.0
 20
0.0
 30
0.0
  9
$PUCSORGRIGHT
 10
0.0
 20
0.0
 30
0.0
  9
$PUCSORGFRONT
 10
0.0
 20
0.0
 30
0.0
  9
$PUCSORGBACK
 10
0.0
 20
0.0
 30
0.0
  9
$USERI1
 70
     0
  9
$USERI2
 70
     0
  9
$USERI3
 70
     0
  9
$USERI4
 70
     0
  9
$USERI5
 70
     0
  9
$USERR1
 40
0.0
  9
$USERR2
 40
0.0
  9
$USERR3
 40
0.0
  9
$USERR4
 40
0.0
  9
$USERR5
 40
0.0
  9
$WORLDVIEW
 70
     1
  9
$SHADEDGE
 70
     3
  9
$SHADEDIF
 70
    70
  9
$TILEMODE
 70
     1
  9
$MAXACTVP
 70
    64
  9
$PINSBASE
 10
0.0
 20
0.0
 30
0.0
  9
$PLIMCHECK
 70
     0
  9
$PEXTMIN
 10
1.000000000000000E+20
 20
1.000000000000000E+20
 30
1.000000000000000E+20
  9
$PEXTMAX
 10
-1.000000000000000E+20
 20
-1.000000000000000E+20
 30
-1.000000000000000E+20
  9
$PLIMMIN
 10
0.0
 20
0.0
  9
$PLIMMAX
 10
12.0
 20
9.0
  9
$UNITMODE
 70
     0
  9
$VISRETAIN
 70
     1
  9
$PLINEGEN
 70
     0
  9
$PSLTSCALE
 70
     1
  9
$TREEDEPTH
 70
  3020
  9
$CMLSTYLE
  2
Standard
  9
$CMLJUST
 70
     0
  9
$CMLSCALE
 40
1.0
  9
$PROXYGRAPHICS
 70
     1
  9
$MEASUREMENT
 70
     1
  9
$CELWEIGHT
370
    -1
  9
$ENDCAPS
280
     0
  9
$JOINSTYLE
280
     0
  9
$LWDISPLAY
290
     0
  9
$INSUNITS
 70
     4
  9
$HYPERLINKBASE
  1

  9
$STYLESHEET
  1

  9
$XEDIT
290
     1
  9
$CEPSNTYPE
380
     0
  9
$PSTYLEMODE
290
     1
  9
$FINGERPRINTGUID
  2
{D85C109A-CE7B-4A90-B971-737CBEF19B52}
  9
$VERSIONGUID
  2
{7A4D3E28-E27F-EA40-B1F8-88FB64A61A2A}
  9
$EXTNAMES
290
     1
  9
$PSVPSCALE
 40
0.0
  9
$OLESTARTUP
290
     0
  9
$SORTENTS
280
   127
  9
$INDEXCTL
280
     0
  9
$HIDETEXT
280
     1
  9
$XCLIPFRAME
280
     2
  9
$HALOGAP
280
     0
  9
$OBSCOLOR
 70
   257
  9
$OBSLTYPE
280
     0
  9
$INTERSECTIONDISPLAY
280
     0
  9
$INTERSECTIONCOLOR
 70
   257
  9
$DIMASSOC
280
     2
  9
$PROJECTNAME
  1

  9
$CAMERADISPLAY
290
     0
  9
$LENSLENGTH
 40
50.0
  9
$CAMERAHEIGHT
 40
0.0
  9
$STEPSPERSEC
 40
2.0
  9
$STEPSIZE
 40
6.0
  9
$3DDWFPREC
 40
2.0
  9
$PSOLWIDTH
 40
0.25
  9
$PSOLHEIGHT
 40
4.0
  9
$LOFTANG1
 40
1.570796326794897
  9
$LOFTANG2
 40
1.570796326794897
  9
$LOFTMAG1
 40
0.0
  9
$LOFTMAG2
 40
0.0
  9
$LOFTPARAM
 70
     7
  9
$LOFTNORMALS
280
     1
  9
$LATITUDE
 40
37.795
  9
$LONGITUDE
 40
-122.394
  9
$NORTHDIRECTION
 40
0.0
  9
$TIMEZONE
 70
 -8000
  9
$LIGHTGLYPHDISPLAY
280
     1
  9
$TILEMODELIGHTSYNCH
280
     1
  9
$CMATERIAL
347
44
  9
$SOLIDHIST
280
     0
  9
$SHOWHIST
280
     1
  9
$DWFFRAME
280
     2
  9
$DGNFRAME
280
     2
  9
$REALWORLDSCALE
290
     1
  9
$INTERFERECOLOR
 62
   256
  9
$INTERFEREOBJVS
345
33
  9
$INTERFEREVPVS
346
30
  9
$CSHADOW
280
     0
  9
$SHADOWPLANELOCATION
 40
0.0
  0
ENDSEC
  0
SECTION
  2
CLASSES
  0
CLASS
  1
ACDBDICTIONARYWDFLT
  2
AcDbDictionaryWithDefault
  3
ObjectDBX Classes
 90
        0
 91
        1
280
     0
281
     0
  0
CLASS
  1
VISUALSTYLE
  2
AcDbVisualStyle
  3
ObjectDBX Classes
 90
     4095
 91
       24
280
     0
281
     0
  0
CLASS
  1
MATERIAL
  2
AcDbMaterial
  3
ObjectDBX Classes
 90
     1153
 91
        3
280
     0
281
     0
  0
CLASS
  1
SCALE
  2
AcDbScale
  3
ObjectDBX Classes
 90
     1153
 91
       17
280
     0
281
     0
  0
CLASS
  1
TABLESTYLE
  2
AcDbTableStyle
  3
ObjectDBX Classes
 90
     4095
 91
        1
280
     0
281
     0
  0
CLASS
  1
MLEADERSTYLE
  2
AcDbMLeaderStyle
  3
ACDB_MLEADERSTYLE_CLASS
 90
     4095
 91
        1
280
     0
281
     0
  0
CLASS
  1
SUN
  2
AcDbSun
  3
SCENEOE
 90
     1153
 91
        1
280
     0
281
     0
  0
CLASS
  1
DICTIONARYVAR
  2
AcDbDictionaryVar
  3
ObjectDBX Classes
 90
        0
 91
        8
280
     0
281
     0
  0
CLASS
  1
CELLSTYLEMAP
  2
AcDbCellStyleMap
  3
ObjectDBX Classes
 90
     1152
 91
        2
280
     0
281
     0
  0
CLASS
  1
ACDBSECTIONVIEWSTYLE
  2
AcDbSectionViewStyle
  3
ObjectDBX Classes
 90
     1025
 91
        1
280
     0
281
     0
  0
CLASS
  1
ACDBDETAILVIEWSTYLE
  2
AcDbDetailViewStyle
  3
ObjectDBX Classes
 90
     1025
 91
        1
280
     0
281
     0
  0
ENDSEC
  0
SECTION
  2
TABLES
  0
TABLE
  2
VPORT
  5
8
330
0
100
AcDbSymbolTable
 70
     1
  0
VPORT
  5
29
330
8
100
AcDbSymbolTableRecord
100
AcDbViewportTableRecord
  2
*Active
 70
     0
 10
0.0
 20
0.0
 11
1.0
 21
1.0
 12
588.5716920457325
 22
450.0315622721627
 13
0.0
 23
0.0
 14
0.5
 24
0.5
 15
0.5
 25
0.5
 16
0.0
 26
0.0
 36
1.0
 17
0.0
 27
0.0
 37
0.0
 40
1447.713774643351
 41
1.547619047619047
 42
50.0
 43
0.0
 44
0.0
 50
0.0
 51
0.0
 71
     0
 72
   100
 73
     1
 74
     3
 75
     0
 76
     0
 77
     0
 78
     0
281
     0
 65
     1
110
0.0
120
0.0
130
0.0
111
1.0
121
0.0
131
0.0
112
0.0
122
1.0
132
0.0
 79
     0
146
0.0
348
2F
 60
     3
 61
     5
292
     1
282
     1
141
0.0
142
0.0
361
5D
1001
ACAD_NAV_VCDISPLAY
1070
     3
  0
ENDTAB
  0
TABLE
  2
LTYPE
  5
5
330
0
100
AcDbSymbolTable
 70
     1
  0
LTYPE
  5
14
330
5
100
AcDbSymbolTableRecord
100
AcDbLinetypeTableRecord
  2
ByBlock
 70
     0
  3

 72
    65
 73
     0
 40
0.0
  0
LTYPE
  5
15
330
5
100
AcDbSymbolTableRecord
100
AcDbLinetypeTableRecord
  2
ByLayer
 70
     0
  3

 72
    65
 73
     0
 40
0.0
  0
LTYPE
  5
16
330
5
100
AcDbSymbolTableRecord
100
AcDbLinetypeTableRecord
  2
Continuous
 70
     0
  3
Solid line
 72
    65
 73
     0
 40
0.0
  0
ENDTAB
  0
TABLE
  2
LAYER
  5
2
330
0
100
AcDbSymbolTable
 70
     7
  0
LAYER
  5
10
102
{ACAD_XDICTIONARY
360
1A0
102
}
330
2
100
AcDbSymbolTableRecord
100
AcDbLayerTableRecord
  2
0
 70
     0
 62
     7
  6
Continuous
370
    -3
390
F
347
46
348
0
  0
LAYER
  5
5F
102
{ACAD_XDICTIONARY
360
1A2
102
}
330
2
100
AcDbSymbolTableRecord
100
AcDbLayerTableRecord
  2
機台尺寸 Machine Size$150W
 70
     4
 62
     7
420
 16777215
  6
Continuous
290
     0
370
    -3
390
F
347
46
348
0
  0
LAYER
  5
60
102
{ACAD_XDICTIONARY
360
1A4
102
}
330
2
100
AcDbSymbolTableRecord
100
AcDbLayerTableRecord
  2
機台尺寸 Machine Size$80W
 70
     4
 62
     7
420
 16777215
  6
Continuous
290
     0
370
    -3
390
F
347
46
348
0
  0
LAYER
  5
61
102
{ACAD_XDICTIONARY
360
1A6
102
}
330
2
100
AcDbSymbolTableRecord
100
AcDbLayerTableRecord
  2
機台尺寸 Machine Size$60W 6.60
 70
     4
 62
     7
420
 16777215
  6
Continuous
290
     0
370
    -3
390
F
347
46
348
0
  0
LAYER
  5
62
102
{ACAD_XDICTIONARY
360
1A8
102
}
330
2
100
AcDbSymbolTableRecord
100
AcDbLayerTableRecord
  2
機台尺寸 Machine Size$60W 3.60
 70
     4
 62
     7
420
 16777215
  6
Continuous
290
     0
370
    -3
390
F
347
46
348
0
  0
LAYER
  5
63
102
{ACAD_XDICTIONARY
360
1AA
102
}
330
2
100
AcDbSymbolTableRecord
100
AcDbLayerTableRecord
  2
機台尺寸 Machine Size$50W
 70
     4
 62
     7
420
 16777215
  6
Continuous
290
     0
370
    -3
390
F
347
46
348
0
  0
LAYER
  5
64
102
{ACAD_XDICTIONARY
360
1AC
102
}
330
2
100
AcDbSymbolTableRecord
100
AcDbLayerTableRecord
  2
機台尺寸 Machine Size$50W 6.75
 70
     4
 62
     7
420
 16777215
  6
Continuous
290
     0
370
    -3
390
F
347
46
348
0
  0
ENDTAB
  0
TABLE
  2
STYLE
  5
3
330
0
100
AcDbSymbolTable
 70
     1
  0
STYLE
  5
11
330
3
100
AcDbSymbolTableRecord
100
AcDbTextStyleTableRecord
  2
Standard
 70
     0
 40
0.0
 41
1.0
 50
0.0
 71
     0
 42
0.2
  3
txt
  4

  0
ENDTAB
  0
TABLE
  2
VIEW
  5
6
330
0
100
AcDbSymbolTable
 70
     0
  0
ENDTAB
  0
TABLE
  2
UCS
  5
7
330
0
100
AcDbSymbolTable
 70
     0
  0
ENDTAB
  0
TABLE
  2
APPID
  5
9
330
0
100
AcDbSymbolTable
 70
     4
  0
APPID
  5
12
330
9
100
AcDbSymbolTableRecord
100
AcDbRegAppTableRecord
  2
ACAD
 70
     0
  0
APPID
  5
5E
330
9
100
AcDbSymbolTableRecord
100
AcDbRegAppTableRecord
  2
Rhino
 70
     0
  0
APPID
  5
18F
330
9
100
AcDbSymbolTableRecord
100
AcDbRegAppTableRecord
  2
ACAD_MLEADERVER
 70
     0
  0
APPID
  5
1B2
330
9
100
AcDbSymbolTableRecord
100
AcDbRegAppTableRecord
  2
ACAD_NAV_VCDISPLAY
 70
     0
  0
ENDTAB
  0
TABLE
  2
DIMSTYLE
  5
A
330
0
100
AcDbSymbolTable
 70
     1
100
AcDbDimStyleTable
 71
     0
  0
DIMSTYLE
105
27
330
A
100
AcDbSymbolTableRecord
100
AcDbDimStyleTableRecord
  2
STANDARD_ACAD
 70
     0
340
11
  0
ENDTAB
  0
TABLE
  2
BLOCK_RECORD
  5
1
330
0
100
AcDbSymbolTable
 70
     1
  0
BLOCK_RECORD
  5
1F
330
1
100
AcDbSymbolTableRecord
100
AcDbBlockTableRecord
  2
*Model_Space
340
22
 70
     0
280
     1
281
     0
  0
BLOCK_RECORD
  5
1B
330
1
100
AcDbSymbolTableRecord
100
AcDbBlockTableRecord
  2
*Paper_Space
340
1E
 70
     0
280
     1
281
     0
  0
BLOCK_RECORD
  5
23
330
1
100
AcDbSymbolTableRecord
100
AcDbBlockTableRecord
  2
*Paper_Space0
340
26
 70
     0
280
     1
281
     0
  0
ENDTAB
  0
ENDSEC
  0
SECTION
  2
BLOCKS
  0
BLOCK
  5
20
330
1F
100
AcDbEntity
  8
0
100
AcDbBlockBegin
  2
*Model_Space
 70
     0
 10
0.0
 20
0.0
 30
0.0
  3
*Model_Space
  1

  0
ENDBLK
  5
21
330
1F
100
AcDbEntity
  8
0
100
AcDbBlockEnd
  0
BLOCK
  5
1C
330
1B
100
AcDbEntity
 67
     1
  8
0
100
AcDbBlockBegin
  2
*Paper_Space
 70
     0
 10
0.0
 20
0.0
 30
0.0
  3
*Paper_Space
  1

  0
ENDBLK
  5
1D
330
1B
100
AcDbEntity
 67
     1
  8
0
100
AcDbBlockEnd
  0
BLOCK
  5
24
330
23
100
AcDbEntity
 67
     1
  8
0
100
AcDbBlockBegin
  2
*Paper_Space0
 70
     0
 10
0.0
 20
0.0
 30
0.0
  3
*Paper_Space0
  1

  0
ENDBLK
  5
25
330
23
100
AcDbEntity
 67
     1
  8
0
100
AcDbBlockEnd
  0
ENDSEC
  0
SECTION
  2
ENTITIES
  0
POLYLINE
  5
65
330
1F
100
AcDbEntity
  8
機台尺寸 Machine Size$50W 6.75
100
AcDb2dPolyline
 66
     1
 10
0.0
 20
0.0
 30
0.0
 70
     1
  0
VERTEX
  5
66
330
65
100
AcDbEntity
  8
機台尺寸 Machine Size$50W 6.75
100
AcDbVertex
100
AcDb2dVertex
 10
0.0
 20
0.0
 30
0.0
  0
VERTEX
  5
67
330
65
100
AcDbEntity
  8
機台尺寸 Machine Size$50W 6.75
100
AcDbVertex
100
AcDb2dVertex
 10
800.0
 20
0.0
 30
0.0
  0
VERTEX
  5
68
330
65
100
AcDbEntity
  8
機台尺寸 Machine Size$50W 6.75
100
AcDbVertex
100
AcDb2dVertex
 10
800.0
 20
450.0
 30
0.0
  0
VERTEX
  5
69
330
65
100
AcDbEntity
  8
機台尺寸 Machine Size$50W 6.75
100
AcDbVertex
100
AcDb2dVertex
 10
0.0
 20
450.0
 30
0.0
  0
SEQEND
  5
6A
330
65
100
AcDbEntity
  8
機台尺寸 Machine Size$50W 6.75
  0
SPLINE
  5
6B
330
1F
100
AcDbEntity
  8
機台尺寸 Machine Size$50W 6.75
100
AcDbSpline
210
0.0
220
0.0
230
1.0
 70
     8
 71
     2
 72
    10
 73
     7
 74
     0
 42
0.000000001
 43
0.0000000001
 40
-24.0
 40
-24.0
 40
-24.0
 40
-23.0
 40
-23.0
 40
-22.0
 40
-22.0
 40
-21.0
 40
-21.0
 40
-21.0
 10
785.690311332503
 20
415.798125
 30
0.0
 10
785.2949541896458
 20
416.8114285714286
 30
0.0
 10
784.0062934753603
 20
416.8114285714286
 30
0.0
 10
782.769061332503
 20
416.8114285714286
 30
0.0
 10
780.8619184753603
 20
415.8857142857143
 30
0.0
 10
779.4187041896459
 20
415.1828571428571
 30
0.0
 10
778.2845970467888
 20
414.3428571428572
 30
0.0
  0
SPLINE
  5
6C
330
1F
100
AcDbEntity
  8
機台尺寸 Machine Size$50W 6.75
100
AcDbSpline
210
0.0
220
0.0
230
1.0
 70
    24
 71
     1
 72
     4
 73
     2
 74
     0
 42
0.000000001
 43
0.0000000001
 40
-21.0
 40
-21.0
 40
-20.0
 40
-20.0
 10
778.2845970467888
 20
414.3428571428572
 30
0.0
 10
778.387186332503
 20
418.8112499999999
 30
0.0
  0
SPLINE
  5
6D
330
1F
100
AcDbEntity
  8
機台尺寸 Machine Size$50W 6.75
100
AcDbSpline
210
0.0
220
0.0
230
1.0
 70
    24
 71
     1
 72
     4
 73
     2
 74
     0
 42
0.000000001
 43
0.0000000001
 40
-20.0
 40
-20.0
 40
-19.0
 40
-19.0
 10
778.387186332503
 20
418.8112499999999
 30
0.0
 10
784.338436332503
 20
421.1772321428571
 30
0.0
  0
SPLINE
  5
6E
330
1F
100
AcDbEntity
  8
機台尺寸 Machine Size$50W 6.75
100
AcDbSpline
210
0.0
220
0.0
230
1.0
 70
    24
 71
     1
 72
     4
 73
     2
 74
     0
 42
0.000000001
 43
0.0000000001
 40
-19.0
 40
-19.0
 40
-18.0
 40
-18.0
 10
784.338436332503
 20
421.1772321428571
 30
0.0
 10
784.3360256182172
 20
421.7314285714286
 30
0.0
  0
SPLINE
  5
6F
330
1F
100
AcDbEntity
  8
機台尺寸 Machine Size$50W 6.75
100
AcDbSpline
210
0.0
220
0.0
230
1.0
 70
    24
 71
     1
 72
     4
 73
     2
 74
     0
 42
0.000000001
 43
0.0000000001
 40
-18.0
 40
-18.0
 40
-17.0
 40
-17.0
 10
784.3360256182172
 20
421.7314285714286
 30
0.0
 10
777.890311332503
 20
419.1085714285714
 30
0.0
  0
SPLINE
  5
70
330
1F
100
AcDbEntity
  8
機台尺寸 Machine Size$50W 6.75
100
AcDbSpline
210
0.0
220
0.0
230
1.0
 70
    24
 71
     1
 72
     4
 73
     2
 74
     0
 42
0.000000001
 43
0.0000000001
 40
-17.0
 40
-17.0
 40
-16.0
 40
-16.0
 10
777.890311332503
 20
419.1085714285714
 30
0.0
 10
777.7874541896458
 20
413.5542857142856
 30
0.0
  0
SPLINE
  5
71
330
1F
100
AcDbEntity
  8
機台尺寸 Machine Size$50W 6.75
100
AcDbSpline
210
0.0
220
0.0
230
1.0
 70
    24
 71
     1
 72
     4
 73
     2
 74
     0
 42
0.000000001
 43
0.0000000001
 40
-16.0
 40
-16.0
 40
-15.0
 40
-15.0
 10
777.7874541896458
 20
413.5542857142856
 30
0.0
 10
778.1988827610745
 20
413.5542857142856
 30
0.0
  0
SPLINE
  5
72
330
1F
100
AcDbEntity
  8
機台尺寸 Machine Size$50W 6.75
100
AcDbSpline
210
0.0
220
0.0
230
1.0
 70
     8
 71
     2
 72
    18
 73
    15
 74
     0
 42
0.000000001
 43
0.0000000001
 40
-15.0
 40
-15.0
 40
-15.0
 40
-14.0
 40
-14.0
 40
-13.0
 40
-13.0
 40
-12.0
 40
-12.0
 40
-11.0
 40
-11.0
 40
-10.0
 40
-10.0
 40
-9.0
 40
-9.0
 40
-8.0
 40
-8.0
 40
-8.0
 10
778.1988827610745
 20
413.5542857142856
 30
0.0
 10
778.4560256182173
 20
413.9828571428571
 30
0.0
 10
780.4274541896457
 20
415.0971428571428
 30
0.0
 10
782.7074541896458
 20
416.3657142857143
 30
0.0
 10
783.9931684753602
 20
416.3657142857143
 30
0.0
 10
784.4731684753601
 20
416.3657142857143
 30
0.0
 10
784.8588827610744
 20
416.1251785714285
 30
0.0
 10
785.2445970467888
 20
415.8846423339843
 30
0.0
 10
785.2445970467888
 20
415.438125
 30
0.0
 10
785.2445970467888
 20
414.6308035714285
 30
0.0
 10
784.0247756182173
 20
412.9987499999999
 30
0.0
 10
782.7532572379158
 20
411.3152678571428
 30
0.0
 10
781.1552220467888
 20
410.0785714285714
 30
0.0
 10
779.2823646423524
 20
408.6527678571428
 30
0.0
 10
777.7874541896458
 20
408.5496428571429
 30
0.0
  0
SPLINE
  5
73
330
1F
100
AcDbEntity
  8
機台尺寸 Machine Size$50W 6.75
100
AcDbSpline
210
0.0
220
0.0
230
1.0
 70
    24
 71
     1
 72
     4
 73
     2
 74
     0
 42
0.000000001
 43
0.0000000001
 40
-8.0
 40
-8.0
 40
-7.0
 40
-7.0
 10
777.7874541896458
 20
408.5496428571429
 30
0.0
 10
777.7874541896458
 20
408.0342857142857
 30
0.0
  0
SPLINE
  5
74
330
1F
100
AcDbEntity
  8
機台尺寸 Machine Size$50W 6.75
100
AcDbSpline
210
0.0
220
0.0
230
1.0
 70
     8
 71
     2
 72
    12
 73
     9
 74
     0
 42
0.000000001
 43
0.0000000001
 40
-7.0
 40
-7.0
 40
-7.0
 40
-6.0
 40
-6.0
 40
-5.0
 40
-5.0
 40
-4.0
 40
-4.0
 40
-3.0
 40
-3.0
 40
-3.0
 10
777.7874541896458
 20
408.0342857142857
 30
0.0
 10
779.4023649039315
 20
408.1545536204747
 30
0.0
 10
781.3952220467888
 20
409.6660714285714
 30
0.0
 10
783.1304000950587
 20
410.98875
 30
0.0
 10
784.4533470467887
 20
412.7922321428571
 30
0.0
 10
785.7417399039316
 20
414.5440178571428
 30
0.0
 10
785.7417399039316
 20
415.5058928571428
 30
0.0
 10
785.7417399039316
 20
415.6778571428571
 30
0.0
 10
785.690311332503
 20
415.798125
 30
0.0
  0
SPLINE
  5
75
330
1F
100
AcDbEntity
  8
機台尺寸 Machine Size$50W 6.75
100
AcDbSpline
210
0.0
220
0.0
230
1.0
 70
    24
 71
     1
 72
     4
 73
     2
 74
     0
 42
0.000000001
 43
0.0000000001
 40
-15.0
 40
-15.0
 40
-14.0
 40
-14.0
 10
775.4388827610743
 20
421.7657142857143
 30
0.0
 10
775.0445970467888
 20
421.7657142857143
 30
0.0
  0
SPLINE
  5
76
330
1F
100
AcDbEntity
  8
機台尺寸 Machine Size$50W 6.75
100
AcDbSpline
210
0.0
220
0.0
230
1.0
 70
    24
 71
     1
 72
     4
 73
     2
 74
     0
 42
0.000000001
 43
0.0000000001
 40
-14.0
 40
-14.0
 40
-13.0
 40
-13.0
 10
775.0445970467888
 20
421.7657142857143
 30
0.0
 10
767.1074541896459
 20
419.1699107142857
 30
0.0
  0
SPLINE
  5
77
330
1F
100
AcDbEntity
  8
機台尺寸 Machine Size$50W 6.75
100
AcDbSpline
210
0.0
220
0.0
230
1.0
 70
    24
 71
     1
 72
     4
 73
     2
 74
     0
 42
0.000000001
 43
0.0000000001
 40
-13.0
 40
-13.0
 40
-12.0
 40
-12.0
 10
767.1074541896459
 20
419.1699107142857
 30
0.0
 10
767.1104006182173
 20
418.6371428571428
 30
0.0
  0
SPLINE
  5
78
330
1F
100
AcDbEntity
  8
機台尺寸 Machine Size$50W 6.75
100
AcDbSpline
210
0.0
220
0.0
230
1.0
 70
    24
 71
     1
 72
     4
 73
     2
 74
     0
 42
0.000000001
 43
0.0000000001
 40
-12.0
 40
-12.0
 40
-11.0
 40
-11.0
 10
767.1104006182173
 20
418.6371428571428
 30
0.0
 10
774.670936332503
 20
421.1209821428571
 30
0.0
  0
SPLINE
  5
79
330
1F
100
AcDbEntity
  8
機台尺寸 Machine Size$50W 6.75
100
AcDbSpline
210
0.0
220
0.0
230
1.0
 70
     8
 71
     2
 72
    10
 73
     7
 74
     0
 42
0.000000001
 43
0.0000000001
 40
-11.0
 40
-11.0
 40
-11.0
 40
-10.0
 40
-10.0
 40
-9.0
 40
-9.0
 40
-8.0
 40
-8.0
 40
-8.0
 10
774.670936332503
 20
421.1209821428571
 30
0.0
 10
774.0875424290432
 20
419.596607142857
 30
0.0
 10
772.9381684753603
 20
417.3010714285713
 30
0.0
 10
771.8916500950586
 20
415.1943739536831
 30
0.0
 10
771.3770970467887
 20
413.7554464285714
 30
0.0
 10
770.5537039280665
 20
411.4430357142856
 30
0.0
 10
769.9017399039315
 20
408.0857142857143
 30
0.0
  0
SPLINE
  5
7A
330
1F
100
AcDbEntity
  8
機台尺寸 Machine Size$50W 6.75
100
AcDbSpline
210
0.0
220
0.0
230
1.0
 70
    24
 71
     1
 72
     4
 73
     2
 74
     0
 42
0.000000001
 43
0.0000000001
 40
-8.0
 40
-8.0
 40
-7.0
 40
-7.0
 10
769.9017399039315
 20
408.0857142857143
 30
0.0
 10
770.4160256182173
 20
408.0857142857143
 30
0.0
  0
SPLINE
  5
7B
330
1F
100
AcDbEntity
  8
機台尺寸 Machine Size$50W 6.75
100
AcDbSpline
210
0.0
220
0.0
230
1.0
 70
     8
 71
     2
 72
    10
 73
     7
 74
     0
 42
0.000000001
 43
0.0000000001
 40
-7.0
 40
-7.0
 40
-7.0
 40
-6.0
 40
-6.0
 40
-5.0
 40
-5.0
 40
-4.0
 40
-4.0
 40
-4.0
 10
770.4160256182173
 20
408.0857142857143
 30
0.0
 10
771.0845970467887
 20
411.48
 30
0.0
 10
771.9245970467888
 20
413.7942857142856
 30
0.0
 10
772.4217399039318
 20
415.1314285714286
 30
0.0
 10
773.5788827610745
 20
417.4885714285713
 30
0.0
 10
774.7360256182173
 20
419.8457142857143
 30
0.0
 10
775.4388827610743
 20
421.7657142857143
 30
0.0
  0
SPLINE
  5
7C
330
1F
100
AcDbEntity
  8
機台尺寸 Machine Size$50W 6.75
100
AcDbSpline
210
0.0
220
0.0
230
1.0
 70
    24
 71
     1
 72
     4
 73
     2
 74
     0
 42
0.000000001
 43
0.0000000001
 40
-4.0
 40
-4.0
 40
-3.0
 40
-3.0
 10
765.4617399039316
 20
408.0
 30
0.0
 10
765.4617399039316
 20
410.5371428571428
 30
0.0
  0
SPLINE
  5
7D
330
1F
100
AcDbEntity
  8
機台尺寸 Machine Size$50W 6.75
100
AcDbSpline
210
0.0
220
0.0
230
1.0
 70
    24
 71
     1
 72
     4
 73
     2
 74
     0
 42
0.000000001
 43
0.0000000001
 40
-3.0
 40
-3.0
 40
-2.0
 40
-2.0
 10
765.4617399039316
 20
410.5371428571428
 30
0.0
 10
764.930311332503
 20
410.5371428571428
 30
0.0
  0
SPLINE
  5
7E
330
1F
100
AcDbEntity
  8
機台尺寸 Machine Size$50W 6.75
100
AcDbSpline
210
0.0
220
0.0
230
1.0
 70
    24
 71
     1
 72
     4
 73
     2
 74
     0
 42
0.000000001
 43
0.0000000001
 40
-2.0
 40
-2.0
 40
-1.0
 40
-1.0
 10
764.930311332503
 20
410.5371428571428
 30
0.0
 10
764.930311332503
 20
408.0
 30
0.0
  0
SPLINE
  5
7F
330
1F
100
AcDbEntity
  8
機台尺寸 Machine Size$50W 6.75
100
AcDbSpline
210
0.0
220
0.0
230
1.0
 70
    24
 71
     1
 72
     4
 73
     2
 74
     0
 42
0.000000001
 43
0.0000000001
 40
-1.0
 40
-1.0
 40
0.0
 40
0.0
 10
764.930311332503
 20
408.0
 30
0.0
 10
765.4617399039316
 20
408.0
 30
0.0
  0
SPLINE
  5
80
330
1F
100
AcDbEntity
  8
機台尺寸 Machine Size$50W 6.75
100
AcDbSpline
210
0.0
220
0.0
230
1.0
 70
     8
 71
     2
 72
    12
 73
     9
 74
     0
 42
0.000000001
 43
0.0000000001
 40
-30.0
 40
-30.0
 40
-30.0
 40
-29.0
 40
-29.0
 40
-28.0
 40
-28.0
 40
-27.0
 40
-27.0
 40
-26.0
 40
-26.0
 40
-26.0
 10
761.0045970467888
 20
415.4914285714286
 30
0.0
 10
760.5417399039315
 20
416.64
 30
0.0
 10
759.410311332503
 20
416.64
 30
0.0
 10
758.3131684753602
 20
416.64
 30
0.0
 10
756.770311332503
 20
415.6285714285713
 30
0.0
 10
755.450311332503
 20
414.7542857142856
 30
0.0
 10
754.3274541896458
 20
413.5457142857143
 30
0.0
 10
753.2045970467887
 20
412.3371428571428
 30
0.0
 10
753.1017399039316
 20
411.7542857142856
 30
0.0
  0
SPLINE
  5
81
330
1F
100
AcDbEntity
  8
機台尺寸 Machine Size$50W 6.75
100
AcDbSpline
210
0.0
220
0.0
230
1.0
 70
    24
 71
     1
 72
     4
 73
     2
 74
     0
 42
0.000000001
 43
0.0000000001
 40
-26.0
 40
-26.0
 40
-25.0
 40
-25.0
 10
753.1017399039316
 20
411.7542857142856
 30
0.0
 10
753.1700434753602
 20
411.1028571428571
 30
0.0
  0
SPLINE
  5
82
330
1F
100
AcDbEntity
  8
機台尺寸 Machine Size$50W 6.75
100
AcDbSpline
210
0.0
220
0.0
230
1.0
 70
     8
 71
     2
 72
    28
 73
    25
 74
     0
 42
0.000000001
 43
0.0000000001
 40
-25.0
 40
-25.0
 40
-25.0
 40
-24.0
 40
-24.0
 40
-23.0
 40
-23.0
 40
-22.0
 40
-22.0
 40
-21.0
 40
-21.0
 40
-20.0
 40
-20.0
 40
-19.0
 40
-19.0
 40
-18.0
 40
-18.0
 40
-17.0
 40
-17.0
 40
-16.0
 40
-16.0
 40
-15.0
 40
-15.0
 40
-14.0
 40
-14.0
 40
-13.0
 40
-13.0
 40
-13.0
 10
753.1700434753602
 20
411.1028571428571
 30
0.0
 10
753.2557577610745
 20
411.6152673339843
 30
0.0
 10
754.3502220467887
 20
412.8283928571427
 30
0.0
 10
755.4963824994952
 20
414.1095535714286
 30
0.0
 10
756.7791506182173
 20
415.0151785714285
 30
0.0
 10
758.3013822379159
 20
416.0914285714286
 30
0.0
 10
759.2932577610744
 20
416.0914285714286
 30
0.0
 10
760.1485245719002
 20
416.0914285714286
 30
0.0
 10
760.5077220467888
 20
415.2704464285713
 30
0.0
 10
760.6445970467888
 20
414.9455351911272
 30
0.0
 10
760.6445970467888
 20
414.5177678571428
 30
0.0
 10
760.6445970467888
 20
412.8074999999999
 30
0.0
 10
759.0026327610743
 20
410.7206249999999
 30
0.0
 10
757.2749541896459
 20
408.4971428571428
 30
0.0
 10
755.5644184753603
 20
408.4971428571428
 30
0.0
 10
754.4868291896457
 20
408.4971428571428
 30
0.0
 10
753.7512934753602
 20
409.2857142857143
 30
0.0
 10
752.9474541896458
 20
410.16
 30
0.0
 10
752.9474541896458
 20
411.6342857142856
 30
0.0
 10
752.9474541896458
 20
413.0571428571428
 30
0.0
 10
754.0874541896458
 20
415.2857142857143
 30
0.0
 10
755.2274541896458
 20
417.5142857142857
 30
0.0
 10
756.7874541896458
 20
419.1771428571429
 30
0.0
 10
758.5188827610745
 20
421.0114285714285
 30
0.0
 10
759.9245970467888
 20
421.2171428571427
 30
0.0
  0
SPLINE
  5
83
330
1F
100
AcDbEntity
  8
機台尺寸 Machine Size$50W 6.75
100
AcDbSpline
210
0.0
220
0.0
230
1.0
 70
    24
 71
     1
 72
     4
 73
     2
 74
     0
 42
0.000000001
 43
0.0000000001
 40
-13.0
 40
-13.0
 40
-12.0
 40
-12.0
 10
759.9245970467888
 20
421.2171428571427
 30
0.0
 10
759.9245970467888
 20
421.7314285714286
 30
0.0
  0
SPLINE
  5
84
330
1F
100
AcDbEntity
  8
機台尺寸 Machine Size$50W 6.75
100
AcDbSpline
210
0.0
220
0.0
230
1.0
 70
     8
 71
     2
 72
    20
 73
    17
 74
     0
 42
0.000000001
 43
0.0000000001
 40
-12.0
 40
-12.0
 40
-12.0
 40
-11.0
 40
-11.0
 40
-10.0
 40
-10.0
 40
-9.0
 40
-9.0
 40
-8.0
 40
-8.0
 40
-7.0
 40
-7.0
 40
-6.0
 40
-6.0
 40
-5.0
 40
-5.0
 40
-4.0
 40
-4.0
 40
-4.0
 10
759.9245970467888
 20
421.7314285714286
 30
0.0
 10
758.3817399039316
 20
421.5257142857143
 30
0.0
 10
756.530311332503
 20
419.6057142857143
 30
0.0
 10
754.8674541896458
 20
417.8742857142855
 30
0.0
 10
753.650311332503
 20
415.5085714285713
 30
0.0
 10
752.4331684753603
 20
413.1428571428572
 30
0.0
 10
752.4331684753603
 20
411.6
 30
0.0
 10
752.4331684753603
 20
409.8857142857143
 30
0.0
 10
753.3760256182173
 20
408.8914285714285
 30
0.0
 10
754.2331684753602
 20
408.0
 30
0.0
 10
755.5188827610745
 20
408.0
 30
0.0
 10
757.4903113325031
 20
408.0
 30
0.0
 10
759.3760256182173
 20
410.4
 30
0.0
 10
761.1417399039315
 20
412.68
 30
0.0
 10
761.1417399039315
 20
414.6514285714285
 30
0.0
 10
761.1417399039315
 20
415.1314285714286
 30
0.0
 10
761.0045970467888
 20
415.4914285714286
 30
0.0
  0
LINE
  5
85
330
1F
100
AcDbEntity
  8
機台尺寸 Machine Size$50W 6.75
100
AcDbLine
 10
737.6999541896459
 20
409.5243749999999
 30
0.0
 11
735.3685256182172
 21
421.7643749999999
 31
0.0
  0
LINE
  5
86
330
1F
100
AcDbEntity
  8
機台尺寸 Machine Size$50W 6.75
100
AcDbLine
 10
735.3685256182172
 20
421.7643749999999
 30
0.0
 11
734.8443291896458
 21
421.7657142857143
 31
0.0
  0
LINE
  5
87
330
1F
100
AcDbEntity
  8
機台尺寸 Machine Size$50W 6.75
100
AcDbLine
 10
734.8443291896458
 20
421.7657142857143
 30
0.0
 11
737.450311332503
 21
408.0857142857143
 31
0.0
  0
LINE
  5
88
330
1F
100
AcDbEntity
  8
機台尺寸 Machine Size$50W 6.75
100
AcDbLine
 10
737.450311332503
 20
408.0857142857143
 30
0.0
 11
737.8555791896458
 21
408.091875
 31
0.0
  0
LINE
  5
89
330
1F
100
AcDbEntity
  8
機台尺寸 Machine Size$50W 6.75
100
AcDbLine
 10
737.8555791896458
 20
408.091875
 30
0.0
 11
741.0902220467887
 21
420.414375
 31
0.0
  0
LINE
  5
8A
330
1F
100
AcDbEntity
  8
機台尺寸 Machine Size$50W 6.75
100
AcDbLine
 10
741.0902220467887
 20
420.414375
 30
0.0
 11
743.5997756182173
 21
408.0024107142856
 31
0.0
  0
LINE
  5
8B
330
1F
100
AcDbEntity
  8
機台尺寸 Machine Size$50W 6.75
100
AcDbLine
 10
743.5997756182173
 20
408.0024107142856
 30
0.0
 11
744.0157577610745
 21
408.0
 31
0.0
  0
LINE
  5
8C
330
1F
100
AcDbEntity
  8
機台尺寸 Machine Size$50W 6.75
100
AcDbLine
 10
744.0157577610745
 20
408.0
 30
0.0
 11
747.6845970467888
 21
421.8342857142856
 31
0.0
  0
LINE
  5
8D
330
1F
100
AcDbEntity
  8
機台尺寸 Machine Size$50W 6.75
100
AcDbLine
 10
747.6845970467888
 20
421.8342857142856
 30
0.0
 11
747.151561332503
 21
421.8302678571428
 31
0.0
  0
LINE
  5
8E
330
1F
100
AcDbEntity
  8
機台尺寸 Machine Size$50W 6.75
100
AcDbLine
 10
747.151561332503
 20
421.8302678571428
 30
0.0
 11
743.8475434753602
 21
409.3719642857143
 31
0.0
  0
LINE
  5
8F
330
1F
100
AcDbEntity
  8
機台尺寸 Machine Size$50W 6.75
100
AcDbLine
 10
743.8475434753602
 20
409.3719642857143
 30
0.0
 11
741.3417399039316
 21
421.7657142857143
 31
0.0
  0
LINE
  5
90
330
1F
100
AcDbEntity
  8
機台尺寸 Machine Size$50W 6.75
100
AcDbLine
 10
741.3417399039316
 20
421.7657142857143
 30
0.0
 11
740.913436332503
 21
421.7657142857143
 31
0.0
  0
SPLINE
  5
91
330
1F
100
AcDbEntity
  8
機台尺寸 Machine Size$50W 6.75
100
AcDbSpline
210
0.0
220
0.0
230
1.0
 70
     8
 71
     2
 72
     6
 73
     3
 74
     0
 42
0.000000001
 43
0.0000000001
 40
-13.0
 40
-13.0
 40
-13.0
 40
-12.0
 40
-12.0
 40
-12.0
 10
740.913436332503
 20
421.7657142857143
 30
0.0
 10
738.5763822379158
 20
412.8332142857143
 30
0.0
 10
737.6999541896459
 20
409.5243749999999
 30
0.0
  0
SPLINE
  5
92
330
1F
100
AcDbEntity
  8
機台尺寸 Machine Size$50W 6.75
100
AcDbSpline
210
0.0
220
0.0
230
1.0
 70
     9
 71
     2
 72
    22
 73
    19
 74
     0
 42
0.000000001
 43
0.0000000001
 40
0.0
 40
0.0
 40
0.0
 40
1.0
 40
1.0
 40
2.0
 40
2.0
 40
3.0
 40
3.0
 40
4.0
 40
4.0
 40
5.0
 40
5.0
 40
6.0
 40
6.0
 40
7.0
 40
7.0
 40
8.0
 40
8.0
 40
9.0
 40
9.0
 40
9.0
 10
733.2497756182172
 20
413.7599999999999
 30
0.0
 10
733.5760256182172
 20
415.0285714285714
 30
0.0
 10
733.5760256182172
 20
416.1428571428571
 30
0.0
 10
733.5760256182172
 20
419.0057142857143
 30
0.0
 10
731.4468291896458
 20
420.8057142857143
 30
0.0
 10
730.5026327610743
 20
421.5942857142856
 30
0.0
 10
729.2493291896459
 20
421.5942857142856
 30
0.0
 10
726.9484358093446
 20
421.5942857142856
 30
0.0
 10
724.819373832503
 20
419.4428571428571
 30
0.0
 10
722.690311332503
 20
417.2914285714285
 30
0.0
 10
722.690311332503
 20
414.8742857142856
 30
0.0
 10
722.690311332503
 20
410.7085714285714
 30
0.0
 10
725.5405791896459
 20
409.0457142857143
 30
0.0
 10
726.4162041896459
 20
408.5314285714286
 30
0.0
 10
727.4292399039316
 20
408.5314285714286
 30
0.0
 10
729.3007577610746
 20
408.5314285714286
 30
0.0
 10
731.0348649039316
 20
410.1428571428572
 30
0.0
 10
732.7175434753602
 20
411.6857142857143
 30
0.0
 10
733.2497756182172
 20
413.7599999999999
 30
0.0
  0
SPLINE
  5
93
330
1F
100
AcDbEntity
  8
機台尺寸 Machine Size$50W 6.75
100
AcDbSpline
210
0.0
220
0.0
230
1.0
 70
     9
 71
     2
 72
    22
 73
    19
 74
     0
 42
0.000000001
 43
0.0000000001
 40
-9.0
 40
-9.0
 40
-9.0
 40
-8.0
 40
-8.0
 40
-7.0
 40
-7.0
 40
-6.0
 40
-6.0
 40
-5.0
 40
-5.0
 40
-4.0
 40
-4.0
 40
-3.0
 40
-3.0
 40
-2.0
 40
-2.0
 40
-1.0
 40
-1.0
 40
0.0
 40
0.0
 40
0.0
 10
733.7645970467888
 20
413.6571428571428
 30
0.0
 10
734.1074541896459
 20
414.9771428571427
 30
0.0
 10
734.1074541896459
 20
416.1599999999999
 30
0.0
 10
734.1074541896459
 20
419.2628571428571
 30
0.0
 10
731.7931684753602
 20
421.2171428571427
 30
0.0
 10
730.7645970467888
 20
422.0914285714285
 30
0.0
 10
729.3417399039316
 20
422.0914285714285
 30
0.0
 10
726.8388827610745
 20
422.0914285714285
 30
0.0
 10
724.5245970467887
 20
419.8114285714286
 30
0.0
 10
722.1931684753602
 20
417.48
 30
0.0
 10
722.1931684753602
 20
414.8742857142856
 30
0.0
 10
722.1931684753602
 20
410.3828571428571
 30
0.0
 10
725.2788827610743
 20
408.6
 30
0.0
 10
726.2560256182173
 20
408.0342857142857
 30
0.0
 10
727.3703113325031
 20
408.0342857142857
 30
0.0
 10
729.4274541896458
 20
408.0342857142857
 30
0.0
 10
731.330311332503
 20
409.7314285714285
 30
0.0
 10
733.1817399039318
 20
411.3942857142856
 30
0.0
 10
733.7645970467888
 20
413.6571428571428
 30
0.0
  0
SPLINE
  5
94
330
1F
100
AcDbEntity
  8
機台尺寸 Machine Size$50W 6.75
100
AcDbSpline
210
0.0
220
0.0
230
1.0
 70
     8
 71
     2
 72
    10
 73
     7
 74
     0
 42
0.000000001
 43
0.0000000001
 40
-24.0
 40
-24.0
 40
-24.0
 40
-23.0
 40
-23.0
 40
-22.0
 40
-22.0
 40
-21.0
 40
-21.0
 40
-21.0
 10
720.0674541896457
 20
415.798125
 30
0.0
 10
719.6720970467887
 20
416.8114285714286
 30
0.0
 10
718.383436332503
 20
416.8114285714286
 30
0.0
 10
717.1462041896457
 20
416.8114285714286
 30
0.0
 10
715.2390613325031
 20
415.8857142857143
 30
0.0
 10
713.7958470467888
 20
415.1828571428571
 30
0.0
 10
712.6617399039315
 20
414.3428571428572
 30
0.0
  0
SPLINE
  5
95
330
1F
100
AcDbEntity
  8
機台尺寸 Machine Size$50W 6.75
100
AcDbSpline
210
0.0
220
0.0
230
1.0
 70
    24
 71
     1
 72
     4
 73
     2
 74
     0
 42
0.000000001
 43
0.0000000001
 40
-21.0
 40
-21.0
 40
-20.0
 40
-20.0
 10
712.6617399039315
 20
414.3428571428572
 30
0.0
 10
712.7643291896458
 20
418.8112499999999
 30
0.0
  0
SPLINE
  5
96
330
1F
100
AcDbEntity
  8
機台尺寸 Machine Size$50W 6.75
100
AcDbSpline
210
0.0
220
0.0
230
1.0
 70
    24
 71
     1
 72
     4
 73
     2
 74
     0
 42
0.000000001
 43
0.0000000001
 40
-20.0
 40
-20.0
 40
-19.0
 40
-19.0
 10
712.7643291896458
 20
418.8112499999999
 30
0.0
 10
718.7155791896459
 20
421.1772321428571
 30
0.0
  0
SPLINE
  5
97
330
1F
100
AcDbEntity
  8
機台尺寸 Machine Size$50W 6.75
100
AcDbSpline
210
0.0
220
0.0
230
1.0
 70
    24
 71
     1
 72
     4
 73
     2
 74
     0
 42
0.000000001
 43
0.0000000001
 40
-19.0
 40
-19.0
 40
-18.0
 40
-18.0
 10
718.7155791896459
 20
421.1772321428571
 30
0.0
 10
718.7131684753601
 20
421.7314285714286
 30
0.0
  0
SPLINE
  5
98
330
1F
100
AcDbEntity
  8
機台尺寸 Machine Size$50W 6.75
100
AcDbSpline
210
0.0
220
0.0
230
1.0
 70
    24
 71
     1
 72
     4
 73
     2
 74
     0
 42
0.000000001
 43
0.0000000001
 40
-18.0
 40
-18.0
 40
-17.0
 40
-17.0
 10
718.7131684753601
 20
421.7314285714286
 30
0.0
 10
712.2674541896459
 20
419.1085714285714
 30
0.0
  0
SPLINE
  5
99
330
1F
100
AcDbEntity
  8
機台尺寸 Machine Size$50W 6.75
100
AcDbSpline
210
0.0
220
0.0
230
1.0
 70
    24
 71
     1
 72
     4
 73
     2
 74
     0
 42
0.000000001
 43
0.0000000001
 40
-17.0
 40
-17.0
 40
-16.0
 40
-16.0
 10
712.2674541896459
 20
419.1085714285714
 30
0.0
 10
712.1645970467888
 20
413.5542857142856
 30
0.0
  0
SPLINE
  5
9A
330
1F
100
AcDbEntity
  8
機台尺寸 Machine Size$50W 6.75
100
AcDbSpline
210
0.0
220
0.0
230
1.0
 70
    24
 71
     1
 72
     4
 73
     2
 74
     0
 42
0.000000001
 43
0.0000000001
 40
-16.0
 40
-16.0
 40
-15.0
 40
-15.0
 10
712.1645970467888
 20
413.5542857142856
 30
0.0
 10
712.5760256182172
 20
413.5542857142856
 30
0.0
  0
SPLINE
  5
9B
330
1F
100
AcDbEntity
  8
機台尺寸 Machine Size$50W 6.75
100
AcDbSpline
210
0.0
220
0.0
230
1.0
 70
     8
 71
     2
 72
    18
 73
    15
 74
     0
 42
0.000000001
 43
0.0000000001
 40
-15.0
 40
-15.0
 40
-15.0
 40
-14.0
 40
-14.0
 40
-13.0
 40
-13.0
 40
-12.0
 40
-12.0
 40
-11.0
 40
-11.0
 40
-10.0
 40
-10.0
 40
-9.0
 40
-9.0
 40
-8.0
 40
-8.0
 40
-8.0
 10
712.5760256182172
 20
413.5542857142856
 30
0.0
 10
712.8331684753601
 20
413.9828571428571
 30
0.0
 10
714.8045970467888
 20
415.0971428571428
 30
0.0
 10
717.0845970467887
 20
416.3657142857143
 30
0.0
 10
718.370311332503
 20
416.3657142857143
 30
0.0
 10
718.850311332503
 20
416.3657142857143
 30
0.0
 10
719.2360256182174
 20
416.1251785714285
 30
0.0
 10
719.6217399039316
 20
415.8846423339843
 30
0.0
 10
719.6217399039316
 20
415.438125
 30
0.0
 10
719.6217399039316
 20
414.6308035714285
 30
0.0
 10
718.4019184753602
 20
412.9987499999999
 30
0.0
 10
717.1304000950587
 20
411.3152678571428
 30
0.0
 10
715.5323649039315
 20
410.0785714285714
 30
0.0
 10
713.6595074994952
 20
408.6527678571428
 30
0.0
 10
712.1645970467888
 20
408.5496428571429
 30
0.0
  0
SPLINE
  5
9C
330
1F
100
AcDbEntity
  8
機台尺寸 Machine Size$50W 6.75
100
AcDbSpline
210
0.0
220
0.0
230
1.0
 70
    24
 71
     1
 72
     4
 73
     2
 74
     0
 42
0.000000001
 43
0.0000000001
 40
-8.0
 40
-8.0
 40
-7.0
 40
-7.0
 10
712.1645970467888
 20
408.5496428571429
 30
0.0
 10
712.1645970467888
 20
408.0342857142857
 30
0.0
  0
SPLINE
  5
9D
330
1F
100
AcDbEntity
  8
機台尺寸 Machine Size$50W 6.75
100
AcDbSpline
210
0.0
220
0.0
230
1.0
 70
     8
 71
     2
 72
    12
 73
     9
 74
     0
 42
0.000000001
 43
0.0000000001
 40
-7.0
 40
-7.0
 40
-7.0
 40
-6.0
 40
-6.0
 40
-5.0
 40
-5.0
 40
-4.0
 40
-4.0
 40
-3.0
 40
-3.0
 40
-3.0
 10
712.1645970467888
 20
408.0342857142857
 30
0.0
 10
713.7795077610745
 20
408.1545536204747
 30
0.0
 10
715.7723649039316
 20
409.6660714285714
 30
0.0
 10
717.5075429522016
 20
410.98875
 30
0.0
 10
718.8304899039316
 20
412.7922321428571
 30
0.0
 10
720.1188827610744
 20
414.5440178571428
 30
0.0
 10
720.1188827610744
 20
415.5058928571428
 30
0.0
 10
720.1188827610744
 20
415.6778571428571
 30
0.0
 10
720.0674541896457
 20
415.798125
 30
0.0
  0
LINE
  5
9E
330
1F
100
AcDbEntity
  8
機台尺寸 Machine Size$50W
100
AcDbLine
 10
780.1829761904762
 20
579.524375
 30
0.0
 11
777.8515476190476
 21
591.7643749999999
 31
0.0
  0
LINE
  5
9F
330
1F
100
AcDbEntity
  8
機台尺寸 Machine Size$50W
100
AcDbLine
 10
777.8515476190476
 20
591.7643749999999
 30
0.0
 11
777.3273511904761
 21
591.7657142857142
 31
0.0
  0
LINE
  5
A0
330
1F
100
AcDbEntity
  8
機台尺寸 Machine Size$50W
100
AcDbLine
 10
777.3273511904761
 20
591.7657142857142
 30
0.0
 11
779.9333333333333
 21
578.0857142857143
 31
0.0
  0
LINE
  5
A1
330
1F
100
AcDbEntity
  8
機台尺寸 Machine Size$50W
100
AcDbLine
 10
779.9333333333333
 20
578.0857142857143
 30
0.0
 11
780.3386011904762
 21
578.0918749999999
 31
0.0
  0
LINE
  5
A2
330
1F
100
AcDbEntity
  8
機台尺寸 Machine Size$50W
100
AcDbLine
 10
780.3386011904762
 20
578.0918749999999
 30
0.0
 11
783.573244047619
 21
590.4143749999999
 31
0.0
  0
LINE
  5
A3
330
1F
100
AcDbEntity
  8
機台尺寸 Machine Size$50W
100
AcDbLine
 10
783.573244047619
 20
590.4143749999999
 30
0.0
 11
786.0827976190477
 21
578.0024107142857
 31
0.0
  0
LINE
  5
A4
330
1F
100
AcDbEntity
  8
機台尺寸 Machine Size$50W
100
AcDbLine
 10
786.0827976190477
 20
578.0024107142857
 30
0.0
 11
786.4987797619047
 21
578.0
 31
0.0
  0
LINE
  5
A5
330
1F
100
AcDbEntity
  8
機台尺寸 Machine Size$50W
100
AcDbLine
 10
786.4987797619047
 20
578.0
 30
0.0
 11
790.167619047619
 21
591.8342857142858
 31
0.0
  0
LINE
  5
A6
330
1F
100
AcDbEntity
  8
機台尺寸 Machine Size$50W
100
AcDbLine
 10
790.167619047619
 20
591.8342857142858
 30
0.0
 11
789.6345833333334
 21
591.8302678571428
 31
0.0
  0
LINE
  5
A7
330
1F
100
AcDbEntity
  8
機台尺寸 Machine Size$50W
100
AcDbLine
 10
789.6345833333334
 20
591.8302678571428
 30
0.0
 11
786.3305654761904
 21
579.3719642857142
 31
0.0
  0
LINE
  5
A8
330
1F
100
AcDbEntity
  8
機台尺寸 Machine Size$50W
100
AcDbLine
 10
786.3305654761904
 20
579.3719642857142
 30
0.0
 11
783.8247619047617
 21
591.7657142857142
 31
0.0
  0
LINE
  5
A9
330
1F
100
AcDbEntity
  8
機台尺寸 Machine Size$50W
100
AcDbLine
 10
783.8247619047617
 20
591.7657142857142
 30
0.0
 11
783.3964583333332
 21
591.7657142857142
 31
0.0
  0
SPLINE
  5
AA
330
1F
100
AcDbEntity
  8
機台尺寸 Machine Size$50W
100
AcDbSpline
210
0.0
220
0.0
230
1.0
 70
     8
 71
     2
 72
     6
 73
     3
 74
     0
 42
0.000000001
 43
0.0000000001
 40
-13.0
 40
-13.0
 40
-13.0
 40
-12.0
 40
-12.0
 40
-12.0
 10
783.3964583333332
 20
591.7657142857142
 30
0.0
 10
781.0594042387462
 20
582.8332142857142
 30
0.0
 10
780.1829761904762
 20
579.524375
 30
0.0
  0
SPLINE
  5
AB
330
1F
100
AcDbEntity
  8
機台尺寸 Machine Size$50W
100
AcDbSpline
210
0.0
220
0.0
230
1.0
 70
     9
 71
     2
 72
    22
 73
    19
 74
     0
 42
0.000000001
 43
0.0000000001
 40
0.0
 40
0.0
 40
0.0
 40
1.0
 40
1.0
 40
2.0
 40
2.0
 40
3.0
 40
3.0
 40
4.0
 40
4.0
 40
5.0
 40
5.0
 40
6.0
 40
6.0
 40
7.0
 40
7.0
 40
8.0
 40
8.0
 40
9.0
 40
9.0
 40
9.0
 10
775.7327976190476
 20
583.76
 30
0.0
 10
776.0590476190475
 20
585.0285714285714
 30
0.0
 10
776.0590476190475
 20
586.1428571428571
 30
0.0
 10
776.0590476190475
 20
589.0057142857142
 30
0.0
 10
773.929851190476
 20
590.8057142857143
 30
0.0
 10
772.9856547619046
 20
591.5942857142858
 30
0.0
 10
771.7323511904762
 20
591.5942857142858
 30
0.0
 10
769.4314578101747
 20
591.5942857142858
 30
0.0
 10
767.3023958333333
 20
589.4428571428573
 30
0.0
 10
765.1733333333332
 20
587.2914285714285
 30
0.0
 10
765.1733333333332
 20
584.8742857142857
 30
0.0
 10
765.1733333333332
 20
580.7085714285713
 30
0.0
 10
768.023601190476
 20
579.0457142857142
 30
0.0
 10
768.8992261904762
 20
578.5314285714285
 30
0.0
 10
769.9122619047618
 20
578.5314285714285
 30
0.0
 10
771.7837797619047
 20
578.5314285714285
 30
0.0
 10
773.5178869047618
 20
580.1428571428571
 30
0.0
 10
775.2005654761904
 20
581.6857142857143
 30
0.0
 10
775.7327976190476
 20
583.76
 30
0.0
  0
SPLINE
  5
AC
330
1F
100
AcDbEntity
  8
機台尺寸 Machine Size$50W
100
AcDbSpline
210
0.0
220
0.0
230
1.0
 70
     9
 71
     2
 72
    22
 73
    19
 74
     0
 42
0.000000001
 43
0.0000000001
 40
-9.0
 40
-9.0
 40
-9.0
 40
-8.0
 40
-8.0
 40
-7.0
 40
-7.0
 40
-6.0
 40
-6.0
 40
-5.0
 40
-5.0
 40
-4.0
 40
-4.0
 40
-3.0
 40
-3.0
 40
-2.0
 40
-2.0
 40
-1.0
 40
-1.0
 40
0.0
 40
0.0
 40
0.0
 10
776.2476190476189
 20
583.6571428571427
 30
0.0
 10
776.5904761904761
 20
584.9771428571428
 30
0.0
 10
776.5904761904761
 20
586.16
 30
0.0
 10
776.5904761904761
 20
589.2628571428571
 30
0.0
 10
774.2761904761903
 20
591.2171428571428
 30
0.0
 10
773.2476190476189
 20
592.0914285714285
 30
0.0
 10
771.8247619047617
 20
592.0914285714285
 30
0.0
 10
769.3219047619047
 20
592.0914285714285
 30
0.0
 10
767.0076190476192
 20
589.8114285714285
 30
0.0
 10
764.6761904761903
 20
587.48
 30
0.0
 10
764.6761904761903
 20
584.8742857142857
 30
0.0
 10
764.6761904761903
 20
580.3828571428571
 30
0.0
 10
767.7619047619047
 20
578.6
 30
0.0
 10
768.7390476190476
 20
578.0342857142857
 30
0.0
 10
769.8533333333334
 20
578.0342857142857
 30
0.0
 10
771.9104761904762
 20
578.0342857142857
 30
0.0
 10
773.8133333333332
 20
579.7314285714285
 30
0.0
 10
775.6647619047618
 20
581.3942857142857
 30
0.0
 10
776.2476190476189
 20
583.6571428571427
 30
0.0
  0
SPLINE
  5
AD
330
1F
100
AcDbEntity
  8
機台尺寸 Machine Size$50W
100
AcDbSpline
210
0.0
220
0.0
230
1.0
 70
     8
 71
     2
 72
    10
 73
     7
 74
     0
 42
0.000000001
 43
0.0000000001
 40
-24.0
 40
-24.0
 40
-24.0
 40
-23.0
 40
-23.0
 40
-22.0
 40
-22.0
 40
-21.0
 40
-21.0
 40
-21.0
 10
762.5504761904762
 20
585.798125
 30
0.0
 10
762.1551190476189
 20
586.8114285714285
 30
0.0
 10
760.8664583333332
 20
586.8114285714285
 30
0.0
 10
759.6292261904761
 20
586.8114285714285
 30
0.0
 10
757.7220833333333
 20
585.8857142857142
 30
0.0
 10
756.2788690476189
 20
585.1828571428573
 30
0.0
 10
755.1447619047618
 20
584.3428571428573
 30
0.0
  0
SPLINE
  5
AE
330
1F
100
AcDbEntity
  8
機台尺寸 Machine Size$50W
100
AcDbSpline
210
0.0
220
0.0
230
1.0
 70
    24
 71
     1
 72
     4
 73
     2
 74
     0
 42
0.000000001
 43
0.0000000001
 40
-21.0
 40
-21.0
 40
-20.0
 40
-20.0
 10
755.1447619047618
 20
584.3428571428573
 30
0.0
 10
755.247351190476
 20
588.81125
 30
0.0
  0
SPLINE
  5
AF
330
1F
100
AcDbEntity
  8
機台尺寸 Machine Size$50W
100
AcDbSpline
210
0.0
220
0.0
230
1.0
 70
    24
 71
     1
 72
     4
 73
     2
 74
     0
 42
0.000000001
 43
0.0000000001
 40
-20.0
 40
-20.0
 40
-19.0
 40
-19.0
 10
755.247351190476
 20
588.81125
 30
0.0
 10
761.1986011904762
 20
591.1772321428572
 30
0.0
  0
SPLINE
  5
B0
330
1F
100
AcDbEntity
  8
機台尺寸 Machine Size$50W
100
AcDbSpline
210
0.0
220
0.0
230
1.0
 70
    24
 71
     1
 72
     4
 73
     2
 74
     0
 42
0.000000001
 43
0.0000000001
 40
-19.0
 40
-19.0
 40
-18.0
 40
-18.0
 10
761.1986011904762
 20
591.1772321428572
 30
0.0
 10
761.1961904761902
 20
591.7314285714285
 30
0.0
  0
SPLINE
  5
B1
330
1F
100
AcDbEntity
  8
機台尺寸 Machine Size$50W
100
AcDbSpline
210
0.0
220
0.0
230
1.0
 70
    24
 71
     1
 72
     4
 73
     2
 74
     0
 42
0.000000001
 43
0.0000000001
 40
-18.0
 40
-18.0
 40
-17.0
 40
-17.0
 10
761.1961904761902
 20
591.7314285714285
 30
0.0
 10
754.7504761904762
 20
589.1085714285714
 30
0.0
  0
SPLINE
  5
B2
330
1F
100
AcDbEntity
  8
機台尺寸 Machine Size$50W
100
AcDbSpline
210
0.0
220
0.0
230
1.0
 70
    24
 71
     1
 72
     4
 73
     2
 74
     0
 42
0.000000001
 43
0.0000000001
 40
-17.0
 40
-17.0
 40
-16.0
 40
-16.0
 10
754.7504761904762
 20
589.1085714285714
 30
0.0
 10
754.6476190476191
 20
583.5542857142857
 30
0.0
  0
SPLINE
  5
B3
330
1F
100
AcDbEntity
  8
機台尺寸 Machine Size$50W
100
AcDbSpline
210
0.0
220
0.0
230
1.0
 70
    24
 71
     1
 72
     4
 73
     2
 74
     0
 42
0.000000001
 43
0.0000000001
 40
-16.0
 40
-16.0
 40
-15.0
 40
-15.0
 10
754.6476190476191
 20
583.5542857142857
 30
0.0
 10
755.0590476190475
 20
583.5542857142857
 30
0.0
  0
SPLINE
  5
B4
330
1F
100
AcDbEntity
  8
機台尺寸 Machine Size$50W
100
AcDbSpline
210
0.0
220
0.0
230
1.0
 70
     8
 71
     2
 72
    18
 73
    15
 74
     0
 42
0.000000001
 43
0.0000000001
 40
-15.0
 40
-15.0
 40
-15.0
 40
-14.0
 40
-14.0
 40
-13.0
 40
-13.0
 40
-12.0
 40
-12.0
 40
-11.0
 40
-11.0
 40
-10.0
 40
-10.0
 40
-9.0
 40
-9.0
 40
-8.0
 40
-8.0
 40
-8.0
 10
755.0590476190475
 20
583.5542857142857
 30
0.0
 10
755.3161904761902
 20
583.9828571428571
 30
0.0
 10
757.287619047619
 20
585.0971428571429
 30
0.0
 10
759.567619047619
 20
586.3657142857142
 30
0.0
 10
760.8533333333334
 20
586.3657142857142
 30
0.0
 10
761.3333333333332
 20
586.3657142857142
 30
0.0
 10
761.7190476190477
 20
586.1251785714285
 30
0.0
 10
762.1047619047618
 20
585.8846423339843
 30
0.0
 10
762.1047619047618
 20
585.438125
 30
0.0
 10
762.1047619047618
 20
584.6308035714286
 30
0.0
 10
760.8849404761903
 20
582.9987499999999
 30
0.0
 10
759.6134220958892
 20
581.3152678571428
 30
0.0
 10
758.0153869047618
 20
580.0785714285714
 30
0.0
 10
756.1425295003255
 20
578.6527678571428
 30
0.0
 10
754.6476190476191
 20
578.5496428571429
 30
0.0
  0
SPLINE
  5
B5
330
1F
100
AcDbEntity
  8
機台尺寸 Machine Size$50W
100
AcDbSpline
210
0.0
220
0.0
230
1.0
 70
    24
 71
     1
 72
     4
 73
     2
 74
     0
 42
0.000000001
 43
0.0000000001
 40
-8.0
 40
-8.0
 40
-7.0
 40
-7.0
 10
754.6476190476191
 20
578.5496428571429
 30
0.0
 10
754.6476190476191
 20
578.0342857142857
 30
0.0
  0
SPLINE
  5
B6
330
1F
100
AcDbEntity
  8
機台尺寸 Machine Size$50W
100
AcDbSpline
210
0.0
220
0.0
230
1.0
 70
     8
 71
     2
 72
    12
 73
     9
 74
     0
 42
0.000000001
 43
0.0000000001
 40
-7.0
 40
-7.0
 40
-7.0
 40
-6.0
 40
-6.0
 40
-5.0
 40
-5.0
 40
-4.0
 40
-4.0
 40
-3.0
 40
-3.0
 40
-3.0
 10
754.6476190476191
 20
578.0342857142857
 30
0.0
 10
756.2625297619047
 20
578.1545536204746
 30
0.0
 10
758.2553869047618
 20
579.6660714285714
 30
0.0
 10
759.9905649530319
 20
580.98875
 30
0.0
 10
761.3135119047617
 20
582.7922321428572
 30
0.0
 10
762.6019047619047
 20
584.5440178571428
 30
0.0
 10
762.6019047619047
 20
585.5058928571427
 30
0.0
 10
762.6019047619047
 20
585.6778571428573
 30
0.0
 10
762.5504761904762
 20
585.798125
 30
0.0
  0
LINE
  5
B7
330
1F
100
AcDbEntity
  8
機台尺寸 Machine Size$150W
100
AcDbLine
 10
1180.234404761905
 20
879.5243749999999
 30
0.0
 11
1177.902976190476
 21
891.7643749999999
 31
0.0
  0
LINE
  5
B8
330
1F
100
AcDbEntity
  8
機台尺寸 Machine Size$150W
100
AcDbLine
 10
1177.902976190476
 20
891.7643749999999
 30
0.0
 11
1177.378779761905
 21
891.7657142857143
 31
0.0
  0
LINE
  5
B9
330
1F
100
AcDbEntity
  8
機台尺寸 Machine Size$150W
100
AcDbLine
 10
1177.378779761905
 20
891.7657142857143
 30
0.0
 11
1179.984761904762
 21
878.0857142857142
 31
0.0
  0
LINE
  5
BA
330
1F
100
AcDbEntity
  8
機台尺寸 Machine Size$150W
100
AcDbLine
 10
1179.984761904762
 20
878.0857142857142
 30
0.0
 11
1180.390029761905
 21
878.0918749999999
 31
0.0
  0
LINE
  5
BB
330
1F
100
AcDbEntity
  8
機台尺寸 Machine Size$150W
100
AcDbLine
 10
1180.390029761905
 20
878.0918749999999
 30
0.0
 11
1183.624672619048
 21
890.4143749999999
 31
0.0
  0
LINE
  5
BC
330
1F
100
AcDbEntity
  8
機台尺寸 Machine Size$150W
100
AcDbLine
 10
1183.624672619048
 20
890.4143749999999
 30
0.0
 11
1186.134226190476
 21
878.0024107142857
 31
0.0
  0
LINE
  5
BD
330
1F
100
AcDbEntity
  8
機台尺寸 Machine Size$150W
100
AcDbLine
 10
1186.134226190476
 20
878.0024107142857
 30
0.0
 11
1186.550208333333
 21
878.0
 31
0.0
  0
LINE
  5
BE
330
1F
100
AcDbEntity
  8
機台尺寸 Machine Size$150W
100
AcDbLine
 10
1186.550208333333
 20
878.0
 30
0.0
 11
1190.219047619048
 21
891.8342857142858
 31
0.0
  0
LINE
  5
BF
330
1F
100
AcDbEntity
  8
機台尺寸 Machine Size$150W
100
AcDbLine
 10
1190.219047619048
 20
891.8342857142858
 30
0.0
 11
1189.686011904762
 21
891.830267857143
 31
0.0
  0
LINE
  5
C0
330
1F
100
AcDbEntity
  8
機台尺寸 Machine Size$150W
100
AcDbLine
 10
1189.686011904762
 20
891.830267857143
 30
0.0
 11
1186.381994047619
 21
879.3719642857142
 31
0.0
  0
LINE
  5
C1
330
1F
100
AcDbEntity
  8
機台尺寸 Machine Size$150W
100
AcDbLine
 10
1186.381994047619
 20
879.3719642857142
 30
0.0
 11
1183.876190476191
 21
891.7657142857143
 31
0.0
  0
LINE
  5
C2
330
1F
100
AcDbEntity
  8
機台尺寸 Machine Size$150W
100
AcDbLine
 10
1183.876190476191
 20
891.7657142857143
 30
0.0
 11
1183.447886904762
 21
891.7657142857143
 31
0.0
  0
SPLINE
  5
C3
330
1F
100
AcDbEntity
  8
機台尺寸 Machine Size$150W
100
AcDbSpline
210
0.0
220
0.0
230
1.0
 70
     8
 71
     2
 72
     6
 73
     3
 74
     0
 42
0.000000001
 43
0.0000000001
 40
-13.0
 40
-13.0
 40
-13.0
 40
-12.0
 40
-12.0
 40
-12.0
 10
1183.447886904762
 20
891.7657142857143
 30
0.0
 10
1181.110832810175
 20
882.8332142857142
 30
0.0
 10
1180.234404761905
 20
879.5243749999999
 30
0.0
  0
SPLINE
  5
C4
330
1F
100
AcDbEntity
  8
機台尺寸 Machine Size$150W
100
AcDbSpline
210
0.0
220
0.0
230
1.0
 70
     9
 71
     2
 72
    22
 73
    19
 74
     0
 42
0.000000001
 43
0.0000000001
 40
0.0
 40
0.0
 40
0.0
 40
1.0
 40
1.0
 40
2.0
 40
2.0
 40
3.0
 40
3.0
 40
4.0
 40
4.0
 40
5.0
 40
5.0
 40
6.0
 40
6.0
 40
7.0
 40
7.0
 40
8.0
 40
8.0
 40
9.0
 40
9.0
 40
9.0
 10
1175.784226190476
 20
883.76
 30
0.0
 10
1176.110476190476
 20
885.0285714285714
 30
0.0
 10
1176.110476190476
 20
886.1428571428572
 30
0.0
 10
1176.110476190476
 20
889.0057142857143
 30
0.0
 10
1173.981279761905
 20
890.8057142857144
 30
0.0
 10
1173.037083333333
 20
891.5942857142857
 30
0.0
 10
1171.783779761905
 20
891.5942857142857
 30
0.0
 10
1169.482886381603
 20
891.5942857142857
 30
0.0
 10
1167.353824404762
 20
889.4428571428571
 30
0.0
 10
1165.224761904762
 20
887.2914285714287
 30
0.0
 10
1165.224761904762
 20
884.8742857142857
 30
0.0
 10
1165.224761904762
 20
880.7085714285713
 30
0.0
 10
1168.075029761905
 20
879.0457142857142
 30
0.0
 10
1168.950654761905
 20
878.5314285714287
 30
0.0
 10
1169.96369047619
 20
878.5314285714287
 30
0.0
 10
1171.835208333333
 20
878.5314285714287
 30
0.0
 10
1173.569315476191
 20
880.1428571428571
 30
0.0
 10
1175.251994047619
 20
881.6857142857143
 30
0.0
 10
1175.784226190476
 20
883.76
 30
0.0
  0
SPLINE
  5
C5
330
1F
100
AcDbEntity
  8
機台尺寸 Machine Size$150W
100
AcDbSpline
210
0.0
220
0.0
230
1.0
 70
     9
 71
     2
 72
    22
 73
    19
 74
     0
 42
0.000000001
 43
0.0000000001
 40
-9.0
 40
-9.0
 40
-9.0
 40
-8.0
 40
-8.0
 40
-7.0
 40
-7.0
 40
-6.0
 40
-6.0
 40
-5.0
 40
-5.0
 40
-4.0
 40
-4.0
 40
-3.0
 40
-3.0
 40
-2.0
 40
-2.0
 40
-1.0
 40
-1.0
 40
0.0
 40
0.0
 40
0.0
 10
1176.299047619048
 20
883.6571428571428
 30
0.0
 10
1176.641904761905
 20
884.9771428571429
 30
0.0
 10
1176.641904761905
 20
886.1599999999999
 30
0.0
 10
1176.641904761905
 20
889.262857142857
 30
0.0
 10
1174.327619047619
 20
891.2171428571429
 30
0.0
 10
1173.299047619048
 20
892.0914285714285
 30
0.0
 10
1171.876190476191
 20
892.0914285714285
 30
0.0
 10
1169.373333333333
 20
892.0914285714285
 30
0.0
 10
1167.059047619048
 20
889.8114285714287
 30
0.0
 10
1164.727619047619
 20
887.48
 30
0.0
 10
1164.727619047619
 20
884.8742857142857
 30
0.0
 10
1164.727619047619
 20
880.3828571428569
 30
0.0
 10
1167.813333333333
 20
878.5999999999999
 30
0.0
 10
1168.790476190476
 20
878.0342857142857
 30
0.0
 10
1169.904761904762
 20
878.0342857142857
 30
0.0
 10
1171.961904761905
 20
878.0342857142857
 30
0.0
 10
1173.864761904762
 20
879.7314285714286
 30
0.0
 10
1175.716190476191
 20
881.3942857142857
 30
0.0
 10
1176.299047619048
 20
883.6571428571428
 30
0.0
  0
SPLINE
  5
C6
330
1F
100
AcDbEntity
  8
機台尺寸 Machine Size$150W
100
AcDbSpline
210
0.0
220
0.0
230
1.0
 70
     8
 71
     2
 72
    10
 73
     7
 74
     0
 42
0.000000001
 43
0.0000000001
 40
-24.0
 40
-24.0
 40
-24.0
 40
-23.0
 40
-23.0
 40
-22.0
 40
-22.0
 40
-21.0
 40
-21.0
 40
-21.0
 10
1162.601904761905
 20
885.7981249999999
 30
0.0
 10
1162.206547619048
 20
886.8114285714286
 30
0.0
 10
1160.917886904762
 20
886.8114285714286
 30
0.0
 10
1159.680654761905
 20
886.8114285714286
 30
0.0
 10
1157.773511904762
 20
885.8857142857143
 30
0.0
 10
1156.330297619048
 20
885.1828571428571
 30
0.0
 10
1155.196190476191
 20
884.3428571428571
 30
0.0
  0
SPLINE
  5
C7
330
1F
100
AcDbEntity
  8
機台尺寸 Machine Size$150W
100
AcDbSpline
210
0.0
220
0.0
230
1.0
 70
    24
 71
     1
 72
     4
 73
     2
 74
     0
 42
0.000000001
 43
0.0000000001
 40
-21.0
 40
-21.0
 40
-20.0
 40
-20.0
 10
1155.196190476191
 20
884.3428571428571
 30
0.0
 10
1155.298779761905
 20
888.81125
 30
0.0
  0
SPLINE
  5
C8
330
1F
100
AcDbEntity
  8
機台尺寸 Machine Size$150W
100
AcDbSpline
210
0.0
220
0.0
230
1.0
 70
    24
 71
     1
 72
     4
 73
     2
 74
     0
 42
0.000000001
 43
0.0000000001
 40
-20.0
 40
-20.0
 40
-19.0
 40
-19.0
 10
1155.298779761905
 20
888.81125
 30
0.0
 10
1161.250029761905
 20
891.1772321428571
 30
0.0
  0
SPLINE
  5
C9
330
1F
100
AcDbEntity
  8
機台尺寸 Machine Size$150W
100
AcDbSpline
210
0.0
220
0.0
230
1.0
 70
    24
 71
     1
 72
     4
 73
     2
 74
     0
 42
0.000000001
 43
0.0000000001
 40
-19.0
 40
-19.0
 40
-18.0
 40
-18.0
 10
1161.250029761905
 20
891.1772321428571
 30
0.0
 10
1161.247619047619
 20
891.7314285714285
 30
0.0
  0
SPLINE
  5
CA
330
1F
100
AcDbEntity
  8
機台尺寸 Machine Size$150W
100
AcDbSpline
210
0.0
220
0.0
230
1.0
 70
    24
 71
     1
 72
     4
 73
     2
 74
     0
 42
0.000000001
 43
0.0000000001
 40
-18.0
 40
-18.0
 40
-17.0
 40
-17.0
 10
1161.247619047619
 20
891.7314285714285
 30
0.0
 10
1154.801904761905
 20
889.1085714285713
 30
0.0
  0
SPLINE
  5
CB
330
1F
100
AcDbEntity
  8
機台尺寸 Machine Size$150W
100
AcDbSpline
210
0.0
220
0.0
230
1.0
 70
    24
 71
     1
 72
     4
 73
     2
 74
     0
 42
0.000000001
 43
0.0000000001
 40
-17.0
 40
-17.0
 40
-16.0
 40
-16.0
 10
1154.801904761905
 20
889.1085714285713
 30
0.0
 10
1154.699047619048
 20
883.5542857142856
 30
0.0
  0
SPLINE
  5
CC
330
1F
100
AcDbEntity
  8
機台尺寸 Machine Size$150W
100
AcDbSpline
210
0.0
220
0.0
230
1.0
 70
    24
 71
     1
 72
     4
 73
     2
 74
     0
 42
0.000000001
 43
0.0000000001
 40
-16.0
 40
-16.0
 40
-15.0
 40
-15.0
 10
1154.699047619048
 20
883.5542857142856
 30
0.0
 10
1155.110476190476
 20
883.5542857142856
 30
0.0
  0
SPLINE
  5
CD
330
1F
100
AcDbEntity
  8
機台尺寸 Machine Size$150W
100
AcDbSpline
210
0.0
220
0.0
230
1.0
 70
     8
 71
     2
 72
    18
 73
    15
 74
     0
 42
0.000000001
 43
0.0000000001
 40
-15.0
 40
-15.0
 40
-15.0
 40
-14.0
 40
-14.0
 40
-13.0
 40
-13.0
 40
-12.0
 40
-12.0
 40
-11.0
 40
-11.0
 40
-10.0
 40
-10.0
 40
-9.0
 40
-9.0
 40
-8.0
 40
-8.0
 40
-8.0
 10
1155.110476190476
 20
883.5542857142856
 30
0.0
 10
1155.367619047619
 20
883.982857142857
 30
0.0
 10
1157.339047619048
 20
885.0971428571428
 30
0.0
 10
1159.619047619048
 20
886.3657142857142
 30
0.0
 10
1160.904761904762
 20
886.3657142857142
 30
0.0
 10
1161.384761904762
 20
886.3657142857142
 30
0.0
 10
1161.770476190476
 20
886.1251785714287
 30
0.0
 10
1162.156190476191
 20
885.8846423339844
 30
0.0
 10
1162.156190476191
 20
885.4381250000001
 30
0.0
 10
1162.156190476191
 20
884.6308035714287
 30
0.0
 10
1160.936369047619
 20
882.9987499999999
 30
0.0
 10
1159.664850667318
 20
881.315267857143
 30
0.0
 10
1158.066815476191
 20
880.0785714285712
 30
0.0
 10
1156.193958071754
 20
878.6527678571429
 30
0.0
 10
1154.699047619048
 20
878.549642857143
 30
0.0
  0
SPLINE
  5
CE
330
1F
100
AcDbEntity
  8
機台尺寸 Machine Size$150W
100
AcDbSpline
210
0.0
220
0.0
230
1.0
 70
    24
 71
     1
 72
     4
 73
     2
 74
     0
 42
0.000000001
 43
0.0000000001
 40
-8.0
 40
-8.0
 40
-7.0
 40
-7.0
 10
1154.699047619048
 20
878.549642857143
 30
0.0
 10
1154.699047619048
 20
878.0342857142857
 30
0.0
  0
SPLINE
  5
CF
330
1F
100
AcDbEntity
  8
機台尺寸 Machine Size$150W
100
AcDbSpline
210
0.0
220
0.0
230
1.0
 70
     8
 71
     2
 72
    12
 73
     9
 74
     0
 42
0.000000001
 43
0.0000000001
 40
-7.0
 40
-7.0
 40
-7.0
 40
-6.0
 40
-6.0
 40
-5.0
 40
-5.0
 40
-4.0
 40
-4.0
 40
-3.0
 40
-3.0
 40
-3.0
 10
1154.699047619048
 20
878.0342857142857
 30
0.0
 10
1156.313958333333
 20
878.1545536204747
 30
0.0
 10
1158.306815476191
 20
879.6660714285712
 30
0.0
 10
1160.041993524461
 20
880.98875
 30
0.0
 10
1161.364940476191
 20
882.7922321428571
 30
0.0
 10
1162.653333333333
 20
884.5440178571429
 30
0.0
 10
1162.653333333333
 20
885.5058928571429
 30
0.0
 10
1162.653333333333
 20
885.6778571428572
 30
0.0
 10
1162.601904761905
 20
885.7981249999999
 30
0.0
  0
SPLINE
  5
D0
330
1F
100
AcDbEntity
  8
機台尺寸 Machine Size$150W
100
AcDbSpline
210
0.0
220
0.0
230
1.0
 70
    24
 71
     1
 72
     4
 73
     2
 74
     0
 42
0.000000001
 43
0.0000000001
 40
-4.0
 40
-4.0
 40
-3.0
 40
-3.0
 10
1150.773333333333
 20
878.0
 30
0.0
 10
1150.773333333333
 20
891.8342857142858
 30
0.0
  0
SPLINE
  5
D1
330
1F
100
AcDbEntity
  8
機台尺寸 Machine Size$150W
100
AcDbSpline
210
0.0
220
0.0
230
1.0
 70
    24
 71
     1
 72
     4
 73
     2
 74
     0
 42
0.000000001
 43
0.0000000001
 40
-3.0
 40
-3.0
 40
-2.0
 40
-2.0
 10
1150.773333333333
 20
891.8342857142858
 30
0.0
 10
1150.27619047619
 20
891.8342857142858
 30
0.0
  0
SPLINE
  5
D2
330
1F
100
AcDbEntity
  8
機台尺寸 Machine Size$150W
100
AcDbSpline
210
0.0
220
0.0
230
1.0
 70
    24
 71
     1
 72
     4
 73
     2
 74
     0
 42
0.000000001
 43
0.0000000001
 40
-2.0
 40
-2.0
 40
-1.0
 40
-1.0
 10
1150.27619047619
 20
891.8342857142858
 30
0.0
 10
1150.27619047619
 20
878.0
 30
0.0
  0
SPLINE
  5
D3
330
1F
100
AcDbEntity
  8
機台尺寸 Machine Size$150W
100
AcDbSpline
210
0.0
220
0.0
230
1.0
 70
    24
 71
     1
 72
     4
 73
     2
 74
     0
 42
0.000000001
 43
0.0000000001
 40
-1.0
 40
-1.0
 40
0.0
 40
0.0
 10
1150.27619047619
 20
878.0
 30
0.0
 10
1150.773333333333
 20
878.0
 30
0.0
  0
LINE
  5
D4
330
1F
100
AcDbEntity
  8
機台尺寸 Machine Size$80W
100
AcDbLine
 10
880.2020238095238
 20
579.524375
 30
0.0
 11
877.8705952380953
 21
591.7643749999999
 31
0.0
  0
LINE
  5
D5
330
1F
100
AcDbEntity
  8
機台尺寸 Machine Size$80W
100
AcDbLine
 10
877.8705952380953
 20
591.7643749999999
 30
0.0
 11
877.346398809524
 21
591.7657142857142
 31
0.0
  0
LINE
  5
D6
330
1F
100
AcDbEntity
  8
機台尺寸 Machine Size$80W
100
AcDbLine
 10
877.346398809524
 20
591.7657142857142
 30
0.0
 11
879.952380952381
 21
578.0857142857143
 31
0.0
  0
LINE
  5
D7
330
1F
100
AcDbEntity
  8
機台尺寸 Machine Size$80W
100
AcDbLine
 10
879.952380952381
 20
578.0857142857143
 30
0.0
 11
880.3576488095238
 21
578.0918749999999
 31
0.0
  0
LINE
  5
D8
330
1F
100
AcDbEntity
  8
機台尺寸 Machine Size$80W
100
AcDbLine
 10
880.3576488095238
 20
578.0918749999999
 30
0.0
 11
883.5922916666667
 21
590.4143749999999
 31
0.0
  0
LINE
  5
D9
330
1F
100
AcDbEntity
  8
機台尺寸 Machine Size$80W
100
AcDbLine
 10
883.5922916666667
 20
590.4143749999999
 30
0.0
 11
886.1018452380953
 21
578.0024107142857
 31
0.0
  0
LINE
  5
DA
330
1F
100
AcDbEntity
  8
機台尺寸 Machine Size$80W
100
AcDbLine
 10
886.1018452380953
 20
578.0024107142857
 30
0.0
 11
886.5178273809522
 21
578.0
 31
0.0
  0
LINE
  5
DB
330
1F
100
AcDbEntity
  8
機台尺寸 Machine Size$80W
100
AcDbLine
 10
886.5178273809522
 20
578.0
 30
0.0
 11
890.1866666666666
 21
591.8342857142858
 31
0.0
  0
LINE
  5
DC
330
1F
100
AcDbEntity
  8
機台尺寸 Machine Size$80W
100
AcDbLine
 10
890.1866666666666
 20
591.8342857142858
 30
0.0
 11
889.653630952381
 21
591.8302678571428
 31
0.0
  0
LINE
  5
DD
330
1F
100
AcDbEntity
  8
機台尺寸 Machine Size$80W
100
AcDbLine
 10
889.653630952381
 20
591.8302678571428
 30
0.0
 11
886.3496130952382
 21
579.3719642857142
 31
0.0
  0
LINE
  5
DE
330
1F
100
AcDbEntity
  8
機台尺寸 Machine Size$80W
100
AcDbLine
 10
886.3496130952382
 20
579.3719642857142
 30
0.0
 11
883.8438095238096
 21
591.7657142857142
 31
0.0
  0
LINE
  5
DF
330
1F
100
AcDbEntity
  8
機台尺寸 Machine Size$80W
100
AcDbLine
 10
883.8438095238096
 20
591.7657142857142
 30
0.0
 11
883.4155059523808
 21
591.7657142857142
 31
0.0
  0
SPLINE
  5
E0
330
1F
100
AcDbEntity
  8
機台尺寸 Machine Size$80W
100
AcDbSpline
210
0.0
220
0.0
230
1.0
 70
     8
 71
     2
 72
     6
 73
     3
 74
     0
 42
0.000000001
 43
0.0000000001
 40
-13.0
 40
-13.0
 40
-13.0
 40
-12.0
 40
-12.0
 40
-12.0
 10
883.4155059523808
 20
591.7657142857142
 30
0.0
 10
881.0784518577939
 20
582.8332142857142
 30
0.0
 10
880.2020238095238
 20
579.524375
 30
0.0
  0
SPLINE
  5
E1
330
1F
100
AcDbEntity
  8
機台尺寸 Machine Size$80W
100
AcDbSpline
210
0.0
220
0.0
230
1.0
 70
     9
 71
     2
 72
    22
 73
    19
 74
     0
 42
0.000000001
 43
0.0000000001
 40
0.0
 40
0.0
 40
0.0
 40
1.0
 40
1.0
 40
2.0
 40
2.0
 40
3.0
 40
3.0
 40
4.0
 40
4.0
 40
5.0
 40
5.0
 40
6.0
 40
6.0
 40
7.0
 40
7.0
 40
8.0
 40
8.0
 40
9.0
 40
9.0
 40
9.0
 10
875.7518452380953
 20
583.76
 30
0.0
 10
876.0780952380953
 20
585.0285714285714
 30
0.0
 10
876.0780952380953
 20
586.1428571428571
 30
0.0
 10
876.0780952380953
 20
589.0057142857142
 30
0.0
 10
873.9488988095239
 20
590.8057142857143
 30
0.0
 10
873.0047023809522
 20
591.5942857142858
 30
0.0
 10
871.7513988095237
 20
591.5942857142858
 30
0.0
 10
869.4505054292225
 20
591.5942857142858
 30
0.0
 10
867.321443452381
 20
589.4428571428573
 30
0.0
 10
865.1923809523809
 20
587.2914285714285
 30
0.0
 10
865.1923809523809
 20
584.8742857142857
 30
0.0
 10
865.1923809523809
 20
580.7085714285713
 30
0.0
 10
868.0426488095237
 20
579.0457142857142
 30
0.0
 10
868.9182738095237
 20
578.5314285714285
 30
0.0
 10
869.9313095238094
 20
578.5314285714285
 30
0.0
 10
871.8028273809522
 20
578.5314285714285
 30
0.0
 10
873.5369345238096
 20
580.1428571428571
 30
0.0
 10
875.2196130952382
 20
581.6857142857143
 30
0.0
 10
875.7518452380953
 20
583.76
 30
0.0
  0
SPLINE
  5
E2
330
1F
100
AcDbEntity
  8
機台尺寸 Machine Size$80W
100
AcDbSpline
210
0.0
220
0.0
230
1.0
 70
     9
 71
     2
 72
    22
 73
    19
 74
     0
 42
0.000000001
 43
0.0000000001
 40
-9.0
 40
-9.0
 40
-9.0
 40
-8.0
 40
-8.0
 40
-7.0
 40
-7.0
 40
-6.0
 40
-6.0
 40
-5.0
 40
-5.0
 40
-4.0
 40
-4.0
 40
-3.0
 40
-3.0
 40
-2.0
 40
-2.0
 40
-1.0
 40
-1.0
 40
0.0
 40
0.0
 40
0.0
 10
876.2666666666667
 20
583.6571428571427
 30
0.0
 10
876.6095238095237
 20
584.9771428571428
 30
0.0
 10
876.6095238095237
 20
586.16
 30
0.0
 10
876.6095238095237
 20
589.2628571428571
 30
0.0
 10
874.2952380952383
 20
591.2171428571428
 30
0.0
 10
873.2666666666668
 20
592.0914285714285
 30
0.0
 10
871.8438095238097
 20
592.0914285714285
 30
0.0
 10
869.3409523809522
 20
592.0914285714285
 30
0.0
 10
867.0266666666664
 20
589.8114285714285
 30
0.0
 10
864.6952380952383
 20
587.48
 30
0.0
 10
864.6952380952383
 20
584.8742857142857
 30
0.0
 10
864.6952380952383
 20
580.3828571428571
 30
0.0
 10
867.7809523809523
 20
578.6
 30
0.0
 10
868.7580952380953
 20
578.0342857142857
 30
0.0
 10
869.872380952381
 20
578.0342857142857
 30
0.0
 10
871.929523809524
 20
578.0342857142857
 30
0.0
 10
873.8323809523809
 20
579.7314285714285
 30
0.0
 10
875.6838095238096
 20
581.3942857142857
 30
0.0
 10
876.2666666666667
 20
583.6571428571427
 30
0.0
  0
SPLINE
  5
E3
330
1F
100
AcDbEntity
  8
機台尺寸 Machine Size$80W
100
AcDbSpline
210
0.0
220
0.0
230
1.0
 70
     8
 71
     2
 72
    10
 73
     7
 74
     0
 42
0.000000001
 43
0.0000000001
 40
0.0
 40
0.0
 40
0.0
 40
1.0
 40
1.0
 40
2.0
 40
2.0
 40
3.0
 40
3.0
 40
3.0
 10
862.6038095238097
 20
589.9828571428571
 30
0.0
 10
862.7066666666667
 20
591.6628571428571
 30
0.0
 10
860.4730059523809
 20
591.6628571428571
 30
0.0
 10
859.9230947149367
 20
591.6628571428571
 30
0.0
 10
859.2355059523809
 20
591.542857142857
 30
0.0
 10
857.4997914050873
 20
591.2514285714286
 30
0.0
 10
856.8467559523808
 20
590.84
 30
0.0
  0
SPLINE
  5
E4
330
1F
100
AcDbEntity
  8
機台尺寸 Machine Size$80W
100
AcDbSpline
210
0.0
220
0.0
230
1.0
 70
     8
 71
     2
 72
    10
 73
     7
 74
     0
 42
0.000000001
 43
0.0000000001
 40
3.0
 40
3.0
 40
3.0
 40
4.0
 40
4.0
 40
5.0
 40
5.0
 40
6.0
 40
6.0
 40
6.0
 10
856.8467559523808
 20
590.84
 30
0.0
 10
856.0048806908016
 20
590.2742857142857
 30
0.0
 10
855.6612202380952
 20
588.8514285714285
 30
0.0
 10
855.5923809523809
 20
588.5599999999999
 30
0.0
 10
855.5923809523809
 20
588.3028571428573
 30
0.0
 10
855.5923809523809
 20
586.8114285714285
 30
0.0
 10
857.8263095238096
 20
586.88
 30
0.0
  0
SPLINE
  5
E5
330
1F
100
AcDbEntity
  8
機台尺寸 Machine Size$80W
100
AcDbSpline
210
0.0
220
0.0
230
1.0
 70
     8
 71
     2
 72
     6
 73
     3
 74
     0
 42
0.000000001
 43
0.0000000001
 40
6.0
 40
6.0
 40
6.0
 40
7.0
 40
7.0
 40
7.0
 10
857.8263095238096
 20
586.88
 30
0.0
 10
858.3076488095239
 20
586.9657142857143
 30
0.0
 10
859.1152380952381
 20
587.0342857142857
 30
0.0
  0
SPLINE
  5
E6
330
1F
100
AcDbEntity
  8
機台尺寸 Machine Size$80W
100
AcDbSpline
210
0.0
220
0.0
230
1.0
 70
     8
 71
     2
 72
     8
 73
     5
 74
     0
 42
0.000000001
 43
0.0000000001
 40
7.0
 40
7.0
 40
7.0
 40
8.0
 40
8.0
 40
9.0
 40
9.0
 40
9.0
 10
859.1152380952381
 20
587.0342857142857
 30
0.0
 10
860.9369345238096
 20
587.4285714285714
 30
0.0
 10
861.5899702380952
 20
587.8914285714285
 30
0.0
 10
862.5178273809522
 20
588.5257142857142
 30
0.0
 10
862.6038095238097
 20
589.9828571428571
 30
0.0
  0
SPLINE
  5
E7
330
1F
100
AcDbEntity
  8
機台尺寸 Machine Size$80W
100
AcDbSpline
210
0.0
220
0.0
230
1.0
 70
     8
 71
     2
 72
    10
 73
     7
 74
     0
 42
0.000000001
 43
0.0000000001
 40
0.0
 40
0.0
 40
0.0
 40
1.0
 40
1.0
 40
2.0
 40
2.0
 40
3.0
 40
3.0
 40
3.0
 10
862.7580952380952
 20
583.3485714285713
 30
0.0
 10
862.792380952381
 20
583.5714285714285
 30
0.0
 10
862.792380952381
 20
583.7942857142857
 30
0.0
 10
862.792380952381
 20
585.1142857142857
 30
0.0
 10
861.777068452381
 20
585.8514285714285
 30
0.0
 10
860.7617559523809
 20
586.5885714285714
 30
0.0
 10
859.2472916666666
 20
586.5199999999999
 30
0.0
  0
SPLINE
  5
E8
330
1F
100
AcDbEntity
  8
機台尺寸 Machine Size$80W
100
AcDbSpline
210
0.0
220
0.0
230
1.0
 70
    24
 71
     2
 72
     6
 73
     3
 74
     0
 42
0.000000001
 43
0.0000000001
 40
3.0
 40
3.0
 40
3.0
 40
4.0
 40
4.0
 40
4.0
 10
859.2472916666666
 20
586.5199999999999
 30
0.0
 10
859.2301488095237
 20
586.5199999999999
 30
0.0
 10
859.1787202380952
 20
586.5199999999999
 30
0.0
  0
SPLINE
  5
E9
330
1F
100
AcDbEntity
  8
機台尺寸 Machine Size$80W
100
AcDbSpline
210
0.0
220
0.0
230
1.0
 70
     8
 71
     2
 72
     6
 73
     3
 74
     0
 42
0.000000001
 43
0.0000000001
 40
4.0
 40
4.0
 40
4.0
 40
5.0
 40
5.0
 40
5.0
 10
859.1787202380952
 20
586.5199999999999
 30
0.0
 10
858.6105952380952
 20
586.3999999999999
 30
0.0
 10
857.9224702380953
 20
586.3657142857142
 30
0.0
  0
SPLINE
  5
EA
330
1F
100
AcDbEntity
  8
機台尺寸 Machine Size$80W
100
AcDbSpline
210
0.0
220
0.0
230
1.0
 70
     8
 71
     2
 72
    18
 73
    15
 74
     0
 42
0.000000001
 43
0.0000000001
 40
5.0
 40
5.0
 40
5.0
 40
6.0
 40
6.0
 40
7.0
 40
7.0
 40
8.0
 40
8.0
 40
9.0
 40
9.0
 40
10.0
 40
10.0
 40
11.0
 40
11.0
 40
12.0
 40
12.0
 40
12.0
 10
857.9224702380953
 20
586.3657142857142
 30
0.0
 10
855.8918452380952
 20
586.0228571428571
 30
0.0
 10
854.9109523809523
 20
584.7885714285714
 30
0.0
 10
853.9988988095238
 20
583.64
 30
0.0
 10
853.8095238095239
 20
581.4799999999999
 30
0.0
 10
853.6895238095237
 20
580.0571428571426
 30
0.0
 10
854.6184523809522
 20
579.2514285714286
 30
0.0
 10
855.4788092622302
 20
578.4971428571428
 30
0.0
 10
856.9241666666666
 20
578.4971428571428
 30
0.0
 10
857.6642556908018
 20
578.4971428571428
 30
0.0
 10
858.4214880952382
 20
578.7028571428573
 30
0.0
 10
860.469255952381
 20
579.2685714285714
 30
0.0
 10
861.4501488095239
 20
580.2799999999999
 30
0.0
 10
862.4998809523809
 20
581.36
 30
0.0
 10
862.7580952380952
 20
583.3485714285713
 30
0.0
  0
SPLINE
  5
EB
330
1F
100
AcDbEntity
  8
機台尺寸 Machine Size$80W
100
AcDbSpline
210
0.0
220
0.0
230
1.0
 70
     8
 71
     2
 72
    10
 73
     7
 74
     0
 42
0.000000001
 43
0.0000000001
 40
-18.0
 40
-18.0
 40
-18.0
 40
-17.0
 40
-17.0
 40
-16.0
 40
-16.0
 40
-15.0
 40
-15.0
 40
-15.0
 10
863.2552380952381
 20
583.2799999999999
 30
0.0
 10
863.2895238095239
 20
583.5542857142857
 30
0.0
 10
863.2895238095239
 20
583.8114285714286
 30
0.0
 10
863.2895238095239
 20
585.0114285714286
 30
0.0
 10
862.5866666666667
 20
585.8171428571426
 30
0.0
 10
861.8838095238094
 20
586.6228571428571
 30
0.0
 10
860.6838095238098
 20
586.8971428571428
 30
0.0
  0
SPLINE
  5
EC
330
1F
100
AcDbEntity
  8
機台尺寸 Machine Size$80W
100
AcDbSpline
210
0.0
220
0.0
230
1.0
 70
     8
 71
     2
 72
    20
 73
    17
 74
     0
 42
0.000000001
 43
0.0000000001
 40
-15.0
 40
-15.0
 40
-15.0
 40
-14.0
 40
-14.0
 40
-13.0
 40
-13.0
 40
-12.0
 40
-12.0
 40
-11.0
 40
-11.0
 40
-10.0
 40
-10.0
 40
-9.0
 40
-9.0
 40
-8.0
 40
-8.0
 40
-7.0
 40
-7.0
 40
-7.0
 10
860.6838095238098
 20
586.8971428571428
 30
0.0
 10
861.8495238095238
 20
587.2742857142857
 30
0.0
 10
862.3980952380952
 20
587.9085714285714
 30
0.0
 10
863.0152380952381
 20
588.6285714285714
 30
0.0
 10
863.1009523809522
 20
589.9485714285714
 30
0.0
 10
863.2552380952381
 20
592.1599999999999
 30
0.0
 10
860.4095238095238
 20
592.1599999999999
 30
0.0
 10
859.8266666666667
 20
592.1599999999999
 30
0.0
 10
859.1580952380953
 20
592.0571428571427
 30
0.0
 10
857.2380952380953
 20
591.7485714285714
 30
0.0
 10
856.4838095238096
 20
591.2342857142857
 30
0.0
 10
855.5238095238095
 20
590.5828571428572
 30
0.0
 10
855.1466666666666
 20
588.9542857142857
 30
0.0
 10
855.0609523809523
 20
588.5771428571427
 30
0.0
 10
855.0609523809523
 20
588.2342857142857
 30
0.0
 10
855.0609523809523
 20
586.8971428571428
 30
0.0
 10
856.4323809523809
 20
586.5199999999999
 30
0.0
  0
SPLINE
  5
ED
330
1F
100
AcDbEntity
  8
機台尺寸 Machine Size$80W
100
AcDbSpline
210
0.0
220
0.0
230
1.0
 70
     8
 71
     2
 72
    18
 73
    15
 74
     0
 42
0.000000001
 43
0.0000000001
 40
-7.0
 40
-7.0
 40
-7.0
 40
-6.0
 40
-6.0
 40
-5.0
 40
-5.0
 40
-4.0
 40
-4.0
 40
-3.0
 40
-3.0
 40
-2.0
 40
-2.0
 40
-1.0
 40
-1.0
 40
0.0
 40
0.0
 40
0.0
 10
856.4323809523809
 20
586.5199999999999
 30
0.0
 10
854.9409523809524
 20
585.9542857142858
 30
0.0
 10
854.1866666666667
 20
584.6857142857142
 30
0.0
 10
853.4838095238097
 20
583.5199999999999
 30
0.0
 10
853.3123809523809
 20
581.5142857142857
 30
0.0
 10
853.1580952380952
 20
579.8514285714285
 30
0.0
 10
854.2552380952381
 20
578.8914285714286
 30
0.0
 10
855.2666666666667
 20
578.0
 30
0.0
 10
856.9295238095239
 20
578.0
 30
0.0
 10
857.7352380952381
 20
578.0
 30
0.0
 10
858.5580952380952
 20
578.2228571428572
 30
0.0
 10
860.752380952381
 20
578.8228571428573
 30
0.0
 10
861.8323809523809
 20
579.9371428571427
 30
0.0
 10
862.9809523809523
 20
581.12
 30
0.0
 10
863.2552380952381
 20
583.2799999999999
 30
0.0
  0
SPLINE
  5
EE
330
1F
100
AcDbEntity
  8
機台尺寸 Machine Size$60W 6.60
100
AcDbSpline
210
0.0
220
0.0
230
1.0
 70
     9
 71
     2
 72
    22
 73
    19
 74
     0
 42
0.000000001
 43
0.0000000001
 40
0.0
 40
0.0
 40
0.0
 40
1.0
 40
1.0
 40
2.0
 40
2.0
 40
3.0
 40
3.0
 40
4.0
 40
4.0
 40
5.0
 40
5.0
 40
6.0
 40
6.0
 40
7.0
 40
7.0
 40
8.0
 40
8.0
 40
9.0
 40
9.0
 40
9.0
 10
788.6147023809522
 20
433.76
 30
0.0
 10
788.9409523809523
 20
435.0285714285714
 30
0.0
 10
788.9409523809523
 20
436.1428571428572
 30
0.0
 10
788.9409523809523
 20
439.0057142857143
 30
0.0
 10
786.811755952381
 20
440.8057142857143
 30
0.0
 10
785.8675595238095
 20
441.5942857142856
 30
0.0
 10
784.6142559523809
 20
441.5942857142856
 30
0.0
 10
782.3133625720794
 20
441.5942857142856
 30
0.0
 10
780.184300595238
 20
439.4428571428571
 30
0.0
 10
778.0552380952382
 20
437.2914285714285
 30
0.0
 10
778.0552380952382
 20
434.8742857142856
 30
0.0
 10
778.0552380952382
 20
430.7085714285713
 30
0.0
 10
780.9055059523809
 20
429.0457142857142
 30
0.0
 10
781.7811309523809
 20
428.5314285714285
 30
0.0
 10
782.7941666666665
 20
428.5314285714285
 30
0.0
 10
784.6656845238093
 20
428.5314285714285
 30
0.0
 10
786.3997916666666
 20
430.1428571428572
 30
0.0
 10
788.0824702380952
 20
431.6857142857143
 30
0.0
 10
788.6147023809522
 20
433.76
 30
0.0
  0
SPLINE
  5
EF
330
1F
100
AcDbEntity
  8
機台尺寸 Machine Size$60W 6.60
100
AcDbSpline
210
0.0
220
0.0
230
1.0
 70
     9
 71
     2
 72
    22
 73
    19
 74
     0
 42
0.000000001
 43
0.0000000001
 40
-9.0
 40
-9.0
 40
-9.0
 40
-8.0
 40
-8.0
 40
-7.0
 40
-7.0
 40
-6.0
 40
-6.0
 40
-5.0
 40
-5.0
 40
-4.0
 40
-4.0
 40
-3.0
 40
-3.0
 40
-2.0
 40
-2.0
 40
-1.0
 40
-1.0
 40
0.0
 40
0.0
 40
0.0
 10
789.1295238095238
 20
433.6571428571428
 30
0.0
 10
789.4723809523809
 20
434.9771428571427
 30
0.0
 10
789.4723809523809
 20
436.16
 30
0.0
 10
789.4723809523809
 20
439.2628571428571
 30
0.0
 10
787.1580952380952
 20
441.2171428571427
 30
0.0
 10
786.1295238095237
 20
442.0914285714285
 30
0.0
 10
784.7066666666665
 20
442.0914285714285
 30
0.0
 10
782.2038095238094
 20
442.0914285714285
 30
0.0
 10
779.8895238095237
 20
439.8114285714286
 30
0.0
 10
777.5580952380952
 20
437.48
 30
0.0
 10
777.5580952380952
 20
434.8742857142856
 30
0.0
 10
777.5580952380952
 20
430.3828571428571
 30
0.0
 10
780.6438095238095
 20
428.6
 30
0.0
 10
781.6209523809523
 20
428.0342857142856
 30
0.0
 10
782.7352380952381
 20
428.0342857142856
 30
0.0
 10
784.7923809523808
 20
428.0342857142856
 30
0.0
 10
786.6952380952382
 20
429.7314285714286
 30
0.0
 10
788.5466666666665
 20
431.3942857142857
 30
0.0
 10
789.1295238095238
 20
433.6571428571428
 30
0.0
  0
SPLINE
  5
F0
330
1F
100
AcDbEntity
  8
機台尺寸 Machine Size$60W 6.60
100
AcDbSpline
210
0.0
220
0.0
230
1.0
 70
     8
 71
     2
 72
    12
 73
     9
 74
     0
 42
0.000000001
 43
0.0000000001
 40
-30.0
 40
-30.0
 40
-30.0
 40
-29.0
 40
-29.0
 40
-28.0
 40
-28.0
 40
-27.0
 40
-27.0
 40
-26.0
 40
-26.0
 40
-26.0
 10
775.1066666666665
 20
435.4914285714285
 30
0.0
 10
774.6438095238095
 20
436.6399999999999
 30
0.0
 10
773.5123809523807
 20
436.6399999999999
 30
0.0
 10
772.4152380952379
 20
436.6399999999999
 30
0.0
 10
770.8723809523807
 20
435.6285714285713
 30
0.0
 10
769.5523809523808
 20
434.7542857142856
 30
0.0
 10
768.4295238095237
 20
433.5457142857143
 30
0.0
 10
767.3066666666666
 20
432.3371428571428
 30
0.0
 10
767.2038095238094
 20
431.7542857142856
 30
0.0
  0
SPLINE
  5
F1
330
1F
100
AcDbEntity
  8
機台尺寸 Machine Size$60W 6.60
100
AcDbSpline
210
0.0
220
0.0
230
1.0
 70
    24
 71
     1
 72
     4
 73
     2
 74
     0
 42
0.000000001
 43
0.0000000001
 40
-26.0
 40
-26.0
 40
-25.0
 40
-25.0
 10
767.2038095238094
 20
431.7542857142856
 30
0.0
 10
767.2721130952382
 20
431.1028571428571
 30
0.0
  0
SPLINE
  5
F2
330
1F
100
AcDbEntity
  8
機台尺寸 Machine Size$60W 6.60
100
AcDbSpline
210
0.0
220
0.0
230
1.0
 70
     8
 71
     2
 72
    28
 73
    25
 74
     0
 42
0.000000001
 43
0.0000000001
 40
-25.0
 40
-25.0
 40
-25.0
 40
-24.0
 40
-24.0
 40
-23.0
 40
-23.0
 40
-22.0
 40
-22.0
 40
-21.0
 40
-21.0
 40
-20.0
 40
-20.0
 40
-19.0
 40
-19.0
 40
-18.0
 40
-18.0
 40
-17.0
 40
-17.0
 40
-16.0
 40
-16.0
 40
-15.0
 40
-15.0
 40
-14.0
 40
-14.0
 40
-13.0
 40
-13.0
 40
-13.0
 10
767.2721130952382
 20
431.1028571428571
 30
0.0
 10
767.3578273809522
 20
431.6152673339844
 30
0.0
 10
768.4522916666666
 20
432.8283928571427
 30
0.0
 10
769.5984521193731
 20
434.1095535714286
 30
0.0
 10
770.8812202380952
 20
435.0151785714285
 30
0.0
 10
772.4034518577937
 20
436.0914285714286
 30
0.0
 10
773.3953273809523
 20
436.0914285714286
 30
0.0
 10
774.2505941917783
 20
436.0914285714286
 30
0.0
 10
774.6097916666665
 20
435.2704464285714
 30
0.0
 10
774.7466666666666
 20
434.9455351911272
 30
0.0
 10
774.7466666666666
 20
434.5177678571428
 30
0.0
 10
774.7466666666666
 20
432.8075
 30
0.0
 10
773.1047023809523
 20
430.720625
 30
0.0
 10
771.3770238095237
 20
428.4971428571428
 30
0.0
 10
769.666488095238
 20
428.4971428571428
 30
0.0
 10
768.5888988095237
 20
428.4971428571428
 30
0.0
 10
767.8533630952379
 20
429.2857142857143
 30
0.0
 10
767.0495238095237
 20
430.16
 30
0.0
 10
767.0495238095237
 20
431.6342857142856
 30
0.0
 10
767.0495238095237
 20
433.0571428571428
 30
0.0
 10
768.1895238095237
 20
435.2857142857143
 30
0.0
 10
769.3295238095237
 20
437.5142857142856
 30
0.0
 10
770.8895238095237
 20
439.1771428571429
 30
0.0
 10
772.6209523809523
 20
441.0114285714286
 30
0.0
 10
774.0266666666665
 20
441.2171428571427
 30
0.0
  0
SPLINE
  5
F3
330
1F
100
AcDbEntity
  8
機台尺寸 Machine Size$60W 6.60
100
AcDbSpline
210
0.0
220
0.0
230
1.0
 70
    24
 71
     1
 72
     4
 73
     2
 74
     0
 42
0.000000001
 43
0.0000000001
 40
-13.0
 40
-13.0
 40
-12.0
 40
-12.0
 10
774.0266666666665
 20
441.2171428571427
 30
0.0
 10
774.0266666666665
 20
441.7314285714286
 30
0.0
  0
SPLINE
  5
F4
330
1F
100
AcDbEntity
  8
機台尺寸 Machine Size$60W 6.60
100
AcDbSpline
210
0.0
220
0.0
230
1.0
 70
     8
 71
     2
 72
    20
 73
    17
 74
     0
 42
0.000000001
 43
0.0000000001
 40
-12.0
 40
-12.0
 40
-12.0
 40
-11.0
 40
-11.0
 40
-10.0
 40
-10.0
 40
-9.0
 40
-9.0
 40
-8.0
 40
-8.0
 40
-7.0
 40
-7.0
 40
-6.0
 40
-6.0
 40
-5.0
 40
-5.0
 40
-4.0
 40
-4.0
 40
-4.0
 10
774.0266666666665
 20
441.7314285714286
 30
0.0
 10
772.4838095238093
 20
441.5257142857143
 30
0.0
 10
770.6323809523808
 20
439.6057142857143
 30
0.0
 10
768.9695238095238
 20
437.8742857142856
 30
0.0
 10
767.7523809523807
 20
435.5085714285714
 30
0.0
 10
766.535238095238
 20
433.1428571428572
 30
0.0
 10
766.535238095238
 20
431.6
 30
0.0
 10
766.535238095238
 20
429.8857142857143
 30
0.0
 10
767.4780952380952
 20
428.8914285714285
 30
0.0
 10
768.3352380952381
 20
428.0
 30
0.0
 10
769.6209523809523
 20
428.0
 30
0.0
 10
771.5923809523809
 20
428.0
 30
0.0
 10
773.4780952380952
 20
430.4
 30
0.0
 10
775.2438095238093
 20
432.68
 30
0.0
 10
775.2438095238093
 20
434.6514285714285
 30
0.0
 10
775.2438095238093
 20
435.1314285714286
 30
0.0
 10
775.1066666666665
 20
435.4914285714285
 30
0.0
  0
SPLINE
  5
F5
330
1F
100
AcDbEntity
  8
機台尺寸 Machine Size$60W 6.60
100
AcDbSpline
210
0.0
220
0.0
230
1.0
 70
    24
 71
     1
 72
     4
 73
     2
 74
     0
 42
0.000000001
 43
0.0000000001
 40
-4.0
 40
-4.0
 40
-3.0
 40
-3.0
 10
764.8895238095238
 20
428.0
 30
0.0
 10
764.8895238095238
 20
430.5371428571428
 30
0.0
  0
SPLINE
  5
F6
330
1F
100
AcDbEntity
  8
機台尺寸 Machine Size$60W 6.60
100
AcDbSpline
210
0.0
220
0.0
230
1.0
 70
    24
 71
     1
 72
     4
 73
     2
 74
     0
 42
0.000000001
 43
0.0000000001
 40
-3.0
 40
-3.0
 40
-2.0
 40
-2.0
 10
764.8895238095238
 20
430.5371428571428
 30
0.0
 10
764.3580952380952
 20
430.5371428571428
 30
0.0
  0
SPLINE
  5
F7
330
1F
100
AcDbEntity
  8
機台尺寸 Machine Size$60W 6.60
100
AcDbSpline
210
0.0
220
0.0
230
1.0
 70
    24
 71
     1
 72
     4
 73
     2
 74
     0
 42
0.000000001
 43
0.0000000001
 40
-2.0
 40
-2.0
 40
-1.0
 40
-1.0
 10
764.3580952380952
 20
430.5371428571428
 30
0.0
 10
764.3580952380952
 20
428.0
 30
0.0
  0
SPLINE
  5
F8
330
1F
100
AcDbEntity
  8
機台尺寸 Machine Size$60W 6.60
100
AcDbSpline
210
0.0
220
0.0
230
1.0
 70
    24
 71
     1
 72
     4
 73
     2
 74
     0
 42
0.000000001
 43
0.0000000001
 40
-1.0
 40
-1.0
 40
0.0
 40
0.0
 10
764.3580952380952
 20
428.0
 30
0.0
 10
764.8895238095238
 20
428.0
 30
0.0
  0
SPLINE
  5
F9
330
1F
100
AcDbEntity
  8
機台尺寸 Machine Size$60W 6.60
100
AcDbSpline
210
0.0
220
0.0
230
1.0
 70
     8
 71
     2
 72
    12
 73
     9
 74
     0
 42
0.000000001
 43
0.0000000001
 40
-30.0
 40
-30.0
 40
-30.0
 40
-29.0
 40
-29.0
 40
-28.0
 40
-28.0
 40
-27.0
 40
-27.0
 40
-26.0
 40
-26.0
 40
-26.0
 10
760.4323809523808
 20
435.4914285714285
 30
0.0
 10
759.9695238095238
 20
436.6399999999999
 30
0.0
 10
758.8380952380951
 20
436.6399999999999
 30
0.0
 10
757.7409523809523
 20
436.6399999999999
 30
0.0
 10
756.1980952380952
 20
435.6285714285713
 30
0.0
 10
754.8780952380952
 20
434.7542857142856
 30
0.0
 10
753.755238095238
 20
433.5457142857143
 30
0.0
 10
752.6323809523808
 20
432.3371428571428
 30
0.0
 10
752.5295238095237
 20
431.7542857142856
 30
0.0
  0
SPLINE
  5
FA
330
1F
100
AcDbEntity
  8
機台尺寸 Machine Size$60W 6.60
100
AcDbSpline
210
0.0
220
0.0
230
1.0
 70
    24
 71
     1
 72
     4
 73
     2
 74
     0
 42
0.000000001
 43
0.0000000001
 40
-26.0
 40
-26.0
 40
-25.0
 40
-25.0
 10
752.5295238095237
 20
431.7542857142856
 30
0.0
 10
752.5978273809522
 20
431.1028571428571
 30
0.0
  0
SPLINE
  5
FB
330
1F
100
AcDbEntity
  8
機台尺寸 Machine Size$60W 6.60
100
AcDbSpline
210
0.0
220
0.0
230
1.0
 70
     8
 71
     2
 72
    28
 73
    25
 74
     0
 42
0.000000001
 43
0.0000000001
 40
-25.0
 40
-25.0
 40
-25.0
 40
-24.0
 40
-24.0
 40
-23.0
 40
-23.0
 40
-22.0
 40
-22.0
 40
-21.0
 40
-21.0
 40
-20.0
 40
-20.0
 40
-19.0
 40
-19.0
 40
-18.0
 40
-18.0
 40
-17.0
 40
-17.0
 40
-16.0
 40
-16.0
 40
-15.0
 40
-15.0
 40
-14.0
 40
-14.0
 40
-13.0
 40
-13.0
 40
-13.0
 10
752.5978273809522
 20
431.1028571428571
 30
0.0
 10
752.6835416666667
 20
431.6152673339844
 30
0.0
 10
753.7780059523807
 20
432.8283928571427
 30
0.0
 10
754.9241664050875
 20
434.1095535714286
 30
0.0
 10
756.2069345238095
 20
435.0151785714285
 30
0.0
 10
757.7291661435081
 20
436.0914285714286
 30
0.0
 10
758.7210416666667
 20
436.0914285714286
 30
0.0
 10
759.5763084774924
 20
436.0914285714286
 30
0.0
 10
759.9355059523808
 20
435.2704464285714
 30
0.0
 10
760.072380952381
 20
434.9455351911272
 30
0.0
 10
760.072380952381
 20
434.5177678571428
 30
0.0
 10
760.072380952381
 20
432.8075
 30
0.0
 10
758.4304166666665
 20
430.720625
 30
0.0
 10
756.702738095238
 20
428.4971428571428
 30
0.0
 10
754.9922023809523
 20
428.4971428571428
 30
0.0
 10
753.9146130952381
 20
428.4971428571428
 30
0.0
 10
753.1790773809523
 20
429.2857142857143
 30
0.0
 10
752.375238095238
 20
430.16
 30
0.0
 10
752.375238095238
 20
431.6342857142856
 30
0.0
 10
752.375238095238
 20
433.0571428571428
 30
0.0
 10
753.515238095238
 20
435.2857142857143
 30
0.0
 10
754.655238095238
 20
437.5142857142856
 30
0.0
 10
756.2152380952381
 20
439.1771428571429
 30
0.0
 10
757.9466666666665
 20
441.0114285714286
 30
0.0
 10
759.3523809523808
 20
441.2171428571427
 30
0.0
  0
SPLINE
  5
FC
330
1F
100
AcDbEntity
  8
機台尺寸 Machine Size$60W 6.60
100
AcDbSpline
210
0.0
220
0.0
230
1.0
 70
    24
 71
     1
 72
     4
 73
     2
 74
     0
 42
0.000000001
 43
0.0000000001
 40
-13.0
 40
-13.0
 40
-12.0
 40
-12.0
 10
759.3523809523808
 20
441.2171428571427
 30
0.0
 10
759.3523809523808
 20
441.7314285714286
 30
0.0
  0
SPLINE
  5
FD
330
1F
100
AcDbEntity
  8
機台尺寸 Machine Size$60W 6.60
100
AcDbSpline
210
0.0
220
0.0
230
1.0
 70
     8
 71
     2
 72
    20
 73
    17
 74
     0
 42
0.000000001
 43
0.0000000001
 40
-12.0
 40
-12.0
 40
-12.0
 40
-11.0
 40
-11.0
 40
-10.0
 40
-10.0
 40
-9.0
 40
-9.0
 40
-8.0
 40
-8.0
 40
-7.0
 40
-7.0
 40
-6.0
 40
-6.0
 40
-5.0
 40
-5.0
 40
-4.0
 40
-4.0
 40
-4.0
 10
759.3523809523808
 20
441.7314285714286
 30
0.0
 10
757.8095238095237
 20
441.5257142857143
 30
0.0
 10
755.9580952380952
 20
439.6057142857143
 30
0.0
 10
754.295238095238
 20
437.8742857142856
 30
0.0
 10
753.0780952380951
 20
435.5085714285714
 30
0.0
 10
751.8609523809523
 20
433.1428571428572
 30
0.0
 10
751.8609523809523
 20
431.6
 30
0.0
 10
751.8609523809523
 20
429.8857142857143
 30
0.0
 10
752.8038095238095
 20
428.8914285714285
 30
0.0
 10
753.6609523809523
 20
428.0
 30
0.0
 10
754.9466666666666
 20
428.0
 30
0.0
 10
756.9180952380953
 20
428.0
 30
0.0
 10
758.8038095238094
 20
430.4
 30
0.0
 10
760.5695238095237
 20
432.68
 30
0.0
 10
760.5695238095237
 20
434.6514285714285
 30
0.0
 10
760.5695238095237
 20
435.1314285714286
 30
0.0
 10
760.4323809523808
 20
435.4914285714285
 30
0.0
  0
LINE
  5
FE
330
1F
100
AcDbEntity
  8
機台尺寸 Machine Size$60W 6.60
100
AcDbLine
 10
737.1277380952382
 20
429.524375
 30
0.0
 11
734.7963095238092
 21
441.7643749999999
 31
0.0
  0
LINE
  5
FF
330
1F
100
AcDbEntity
  8
機台尺寸 Machine Size$60W 6.60
100
AcDbLine
 10
734.7963095238092
 20
441.7643749999999
 30
0.0
 11
734.2721130952382
 21
441.7657142857144
 31
0.0
  0
LINE
  5
100
330
1F
100
AcDbEntity
  8
機台尺寸 Machine Size$60W 6.60
100
AcDbLine
 10
734.2721130952382
 20
441.7657142857144
 30
0.0
 11
736.8780952380952
 21
428.0857142857143
 31
0.0
  0
LINE
  5
101
330
1F
100
AcDbEntity
  8
機台尺寸 Machine Size$60W 6.60
100
AcDbLine
 10
736.8780952380952
 20
428.0857142857143
 30
0.0
 11
737.2833630952381
 21
428.091875
 31
0.0
  0
LINE
  5
102
330
1F
100
AcDbEntity
  8
機台尺寸 Machine Size$60W 6.60
100
AcDbLine
 10
737.2833630952381
 20
428.091875
 30
0.0
 11
740.5180059523807
 21
440.414375
 31
0.0
  0
LINE
  5
103
330
1F
100
AcDbEntity
  8
機台尺寸 Machine Size$60W 6.60
100
AcDbLine
 10
740.5180059523807
 20
440.414375
 30
0.0
 11
743.0275595238095
 21
428.0024107142856
 31
0.0
  0
LINE
  5
104
330
1F
100
AcDbEntity
  8
機台尺寸 Machine Size$60W 6.60
100
AcDbLine
 10
743.0275595238095
 20
428.0024107142856
 30
0.0
 11
743.4435416666665
 21
428.0
 31
0.0
  0
LINE
  5
105
330
1F
100
AcDbEntity
  8
機台尺寸 Machine Size$60W 6.60
100
AcDbLine
 10
743.4435416666665
 20
428.0
 30
0.0
 11
747.1123809523808
 21
441.8342857142857
 31
0.0
  0
LINE
  5
106
330
1F
100
AcDbEntity
  8
機台尺寸 Machine Size$60W 6.60
100
AcDbLine
 10
747.1123809523808
 20
441.8342857142857
 30
0.0
 11
746.5793452380952
 21
441.8302678571428
 31
0.0
  0
LINE
  5
107
330
1F
100
AcDbEntity
  8
機台尺寸 Machine Size$60W 6.60
100
AcDbLine
 10
746.5793452380952
 20
441.8302678571428
 30
0.0
 11
743.2753273809522
 21
429.3719642857143
 31
0.0
  0
LINE
  5
108
330
1F
100
AcDbEntity
  8
機台尺寸 Machine Size$60W 6.60
100
AcDbLine
 10
743.2753273809522
 20
429.3719642857143
 30
0.0
 11
740.7695238095238
 21
441.7657142857144
 31
0.0
  0
LINE
  5
109
330
1F
100
AcDbEntity
  8
機台尺寸 Machine Size$60W 6.60
100
AcDbLine
 10
740.7695238095238
 20
441.7657142857144
 30
0.0
 11
740.3412202380953
 21
441.7657142857144
 31
0.0
  0
SPLINE
  5
10A
330
1F
100
AcDbEntity
  8
機台尺寸 Machine Size$60W 6.60
100
AcDbSpline
210
0.0
220
0.0
230
1.0
 70
     8
 71
     2
 72
     6
 73
     3
 74
     0
 42
0.000000001
 43
0.0000000001
 40
-13.0
 40
-13.0
 40
-13.0
 40
-12.0
 40
-12.0
 40
-12.0
 10
740.3412202380953
 20
441.7657142857144
 30
0.0
 10
738.0041661435083
 20
432.8332142857143
 30
0.0
 10
737.1277380952382
 20
429.524375
 30
0.0
  0
SPLINE
  5
10B
330
1F
100
AcDbEntity
  8
機台尺寸 Machine Size$60W 6.60
100
AcDbSpline
210
0.0
220
0.0
230
1.0
 70
     9
 71
     2
 72
    22
 73
    19
 74
     0
 42
0.000000001
 43
0.0000000001
 40
0.0
 40
0.0
 40
0.0
 40
1.0
 40
1.0
 40
2.0
 40
2.0
 40
3.0
 40
3.0
 40
4.0
 40
4.0
 40
5.0
 40
5.0
 40
6.0
 40
6.0
 40
7.0
 40
7.0
 40
8.0
 40
8.0
 40
9.0
 40
9.0
 40
9.0
 10
732.6775595238094
 20
433.76
 30
0.0
 10
733.0038095238095
 20
435.0285714285714
 30
0.0
 10
733.0038095238095
 20
436.1428571428572
 30
0.0
 10
733.0038095238095
 20
439.0057142857143
 30
0.0
 10
730.874613095238
 20
440.8057142857143
 30
0.0
 10
729.9304166666665
 20
441.5942857142856
 30
0.0
 10
728.677113095238
 20
441.5942857142856
 30
0.0
 10
726.3762197149367
 20
441.5942857142856
 30
0.0
 10
724.2471577380952
 20
439.4428571428571
 30
0.0
 10
722.1180952380953
 20
437.2914285714285
 30
0.0
 10
722.1180952380953
 20
434.8742857142856
 30
0.0
 10
722.1180952380953
 20
430.7085714285713
 30
0.0
 10
724.968363095238
 20
429.0457142857142
 30
0.0
 10
725.843988095238
 20
428.5314285714285
 30
0.0
 10
726.8570238095237
 20
428.5314285714285
 30
0.0
 10
728.7285416666666
 20
428.5314285714285
 30
0.0
 10
730.4626488095237
 20
430.1428571428572
 30
0.0
 10
732.1453273809522
 20
431.6857142857143
 30
0.0
 10
732.6775595238094
 20
433.76
 30
0.0
  0
SPLINE
  5
10C
330
1F
100
AcDbEntity
  8
機台尺寸 Machine Size$60W 6.60
100
AcDbSpline
210
0.0
220
0.0
230
1.0
 70
     9
 71
     2
 72
    22
 73
    19
 74
     0
 42
0.000000001
 43
0.0000000001
 40
-9.0
 40
-9.0
 40
-9.0
 40
-8.0
 40
-8.0
 40
-7.0
 40
-7.0
 40
-6.0
 40
-6.0
 40
-5.0
 40
-5.0
 40
-4.0
 40
-4.0
 40
-3.0
 40
-3.0
 40
-2.0
 40
-2.0
 40
-1.0
 40
-1.0
 40
0.0
 40
0.0
 40
0.0
 10
733.1923809523809
 20
433.6571428571428
 30
0.0
 10
733.535238095238
 20
434.9771428571427
 30
0.0
 10
733.535238095238
 20
436.16
 30
0.0
 10
733.535238095238
 20
439.2628571428571
 30
0.0
 10
731.2209523809523
 20
441.2171428571427
 30
0.0
 10
730.192380952381
 20
442.0914285714285
 30
0.0
 10
728.7695238095238
 20
442.0914285714285
 30
0.0
 10
726.2666666666667
 20
442.0914285714285
 30
0.0
 10
723.9523809523809
 20
439.8114285714286
 30
0.0
 10
721.6209523809522
 20
437.48
 30
0.0
 10
721.6209523809522
 20
434.8742857142856
 30
0.0
 10
721.6209523809522
 20
430.3828571428571
 30
0.0
 10
724.7066666666666
 20
428.6
 30
0.0
 10
725.6838095238094
 20
428.0342857142856
 30
0.0
 10
726.7980952380952
 20
428.0342857142856
 30
0.0
 10
728.8552380952381
 20
428.0342857142856
 30
0.0
 10
730.7580952380952
 20
429.7314285714286
 30
0.0
 10
732.6095238095238
 20
431.3942857142857
 30
0.0
 10
733.1923809523809
 20
433.6571428571428
 30
0.0
  0
SPLINE
  5
10D
330
1F
100
AcDbEntity
  8
機台尺寸 Machine Size$60W 6.60
100
AcDbSpline
210
0.0
220
0.0
230
1.0
 70
     8
 71
     2
 72
    12
 73
     9
 74
     0
 42
0.000000001
 43
0.0000000001
 40
-30.0
 40
-30.0
 40
-30.0
 40
-29.0
 40
-29.0
 40
-28.0
 40
-28.0
 40
-27.0
 40
-27.0
 40
-26.0
 40
-26.0
 40
-26.0
 10
719.1695238095237
 20
435.4914285714285
 30
0.0
 10
718.7066666666666
 20
436.6399999999999
 30
0.0
 10
717.5752380952381
 20
436.6399999999999
 30
0.0
 10
716.4780952380952
 20
436.6399999999999
 30
0.0
 10
714.9352380952382
 20
435.6285714285713
 30
0.0
 10
713.615238095238
 20
434.7542857142856
 30
0.0
 10
712.4923809523807
 20
433.5457142857143
 30
0.0
 10
711.3695238095238
 20
432.3371428571428
 30
0.0
 10
711.2666666666667
 20
431.7542857142856
 30
0.0
  0
SPLINE
  5
10E
330
1F
100
AcDbEntity
  8
機台尺寸 Machine Size$60W 6.60
100
AcDbSpline
210
0.0
220
0.0
230
1.0
 70
    24
 71
     1
 72
     4
 73
     2
 74
     0
 42
0.000000001
 43
0.0000000001
 40
-26.0
 40
-26.0
 40
-25.0
 40
-25.0
 10
711.2666666666667
 20
431.7542857142856
 30
0.0
 10
711.3349702380952
 20
431.1028571428571
 30
0.0
  0
SPLINE
  5
10F
330
1F
100
AcDbEntity
  8
機台尺寸 Machine Size$60W 6.60
100
AcDbSpline
210
0.0
220
0.0
230
1.0
 70
     8
 71
     2
 72
    28
 73
    25
 74
     0
 42
0.000000001
 43
0.0000000001
 40
-25.0
 40
-25.0
 40
-25.0
 40
-24.0
 40
-24.0
 40
-23.0
 40
-23.0
 40
-22.0
 40
-22.0
 40
-21.0
 40
-21.0
 40
-20.0
 40
-20.0
 40
-19.0
 40
-19.0
 40
-18.0
 40
-18.0
 40
-17.0
 40
-17.0
 40
-16.0
 40
-16.0
 40
-15.0
 40
-15.0
 40
-14.0
 40
-14.0
 40
-13.0
 40
-13.0
 40
-13.0
 10
711.3349702380952
 20
431.1028571428571
 30
0.0
 10
711.4206845238095
 20
431.6152673339844
 30
0.0
 10
712.5151488095237
 20
432.8283928571427
 30
0.0
 10
713.6613092622302
 20
434.1095535714286
 30
0.0
 10
714.9440773809523
 20
435.0151785714285
 30
0.0
 10
716.4663090006509
 20
436.0914285714286
 30
0.0
 10
717.4581845238095
 20
436.0914285714286
 30
0.0
 10
718.3134513346352
 20
436.0914285714286
 30
0.0
 10
718.6726488095238
 20
435.2704464285714
 30
0.0
 10
718.8095238095237
 20
434.9455351911272
 30
0.0
 10
718.8095238095237
 20
434.5177678571428
 30
0.0
 10
718.8095238095237
 20
432.8075
 30
0.0
 10
717.1675595238094
 20
430.720625
 30
0.0
 10
715.4398809523808
 20
428.4971428571428
 30
0.0
 10
713.7293452380951
 20
428.4971428571428
 30
0.0
 10
712.6517559523809
 20
428.4971428571428
 30
0.0
 10
711.9162202380952
 20
429.2857142857143
 30
0.0
 10
711.1123809523808
 20
430.16
 30
0.0
 10
711.1123809523808
 20
431.6342857142856
 30
0.0
 10
711.1123809523808
 20
433.0571428571428
 30
0.0
 10
712.2523809523808
 20
435.2857142857143
 30
0.0
 10
713.3923809523808
 20
437.5142857142856
 30
0.0
 10
714.952380952381
 20
439.1771428571429
 30
0.0
 10
716.6838095238095
 20
441.0114285714286
 30
0.0
 10
718.0895238095238
 20
441.2171428571427
 30
0.0
  0
SPLINE
  5
110
330
1F
100
AcDbEntity
  8
機台尺寸 Machine Size$60W 6.60
100
AcDbSpline
210
0.0
220
0.0
230
1.0
 70
    24
 71
     1
 72
     4
 73
     2
 74
     0
 42
0.000000001
 43
0.0000000001
 40
-13.0
 40
-13.0
 40
-12.0
 40
-12.0
 10
718.0895238095238
 20
441.2171428571427
 30
0.0
 10
718.0895238095238
 20
441.7314285714286
 30
0.0
  0
SPLINE
  5
111
330
1F
100
AcDbEntity
  8
機台尺寸 Machine Size$60W 6.60
100
AcDbSpline
210
0.0
220
0.0
230
1.0
 70
     8
 71
     2
 72
    20
 73
    17
 74
     0
 42
0.000000001
 43
0.0000000001
 40
-12.0
 40
-12.0
 40
-12.0
 40
-11.0
 40
-11.0
 40
-10.0
 40
-10.0
 40
-9.0
 40
-9.0
 40
-8.0
 40
-8.0
 40
-7.0
 40
-7.0
 40
-6.0
 40
-6.0
 40
-5.0
 40
-5.0
 40
-4.0
 40
-4.0
 40
-4.0
 10
718.0895238095238
 20
441.7314285714286
 30
0.0
 10
716.5466666666665
 20
441.5257142857143
 30
0.0
 10
714.6952380952382
 20
439.6057142857143
 30
0.0
 10
713.0323809523807
 20
437.8742857142856
 30
0.0
 10
711.8152380952381
 20
435.5085714285714
 30
0.0
 10
710.5980952380952
 20
433.1428571428572
 30
0.0
 10
710.5980952380952
 20
431.6
 30
0.0
 10
710.5980952380952
 20
429.8857142857143
 30
0.0
 10
711.5409523809522
 20
428.8914285714285
 30
0.0
 10
712.3980952380953
 20
428.0
 30
0.0
 10
713.6838095238094
 20
428.0
 30
0.0
 10
715.655238095238
 20
428.0
 30
0.0
 10
717.5409523809523
 20
430.4
 30
0.0
 10
719.3066666666666
 20
432.68
 30
0.0
 10
719.3066666666666
 20
434.6514285714285
 30
0.0
 10
719.3066666666666
 20
435.1314285714286
 30
0.0
 10
719.1695238095237
 20
435.4914285714285
 30
0.0
  0
SPLINE
  5
112
330
1F
100
AcDbEntity
  8
機台尺寸 Machine Size$60W 3.60
100
AcDbSpline
210
0.0
220
0.0
230
1.0
 70
     9
 71
     2
 72
    22
 73
    19
 74
     0
 42
0.000000001
 43
0.0000000001
 40
0.0
 40
0.0
 40
0.0
 40
1.0
 40
1.0
 40
2.0
 40
2.0
 40
3.0
 40
3.0
 40
4.0
 40
4.0
 40
5.0
 40
5.0
 40
6.0
 40
6.0
 40
7.0
 40
7.0
 40
8.0
 40
8.0
 40
9.0
 40
9.0
 40
9.0
 10
588.5708928571428
 20
283.76
 30
0.0
 10
588.8971428571428
 20
285.0285714285714
 30
0.0
 10
588.8971428571428
 20
286.1428571428572
 30
0.0
 10
588.8971428571428
 20
289.0057142857143
 30
0.0
 10
586.7679464285714
 20
290.8057142857143
 30
0.0
 10
585.82375
 20
291.5942857142857
 30
0.0
 10
584.5704464285715
 20
291.5942857142857
 30
0.0
 10
582.2695530482702
 20
291.5942857142857
 30
0.0
 10
580.1404910714286
 20
289.4428571428571
 30
0.0
 10
578.0114285714286
 20
287.2914285714287
 30
0.0
 10
578.0114285714286
 20
284.8742857142857
 30
0.0
 10
578.0114285714286
 20
280.7085714285714
 30
0.0
 10
580.8616964285715
 20
279.0457142857143
 30
0.0
 10
581.7373214285715
 20
278.5314285714286
 30
0.0
 10
582.7503571428573
 20
278.5314285714286
 30
0.0
 10
584.621875
 20
278.5314285714286
 30
0.0
 10
586.3559821428573
 20
280.1428571428571
 30
0.0
 10
588.0386607142857
 20
281.6857142857143
 30
0.0
 10
588.5708928571428
 20
283.76
 30
0.0
  0
SPLINE
  5
113
330
1F
100
AcDbEntity
  8
機台尺寸 Machine Size$60W 3.60
100
AcDbSpline
210
0.0
220
0.0
230
1.0
 70
     9
 71
     2
 72
    22
 73
    19
 74
     0
 42
0.000000001
 43
0.0000000001
 40
-9.0
 40
-9.0
 40
-9.0
 40
-8.0
 40
-8.0
 40
-7.0
 40
-7.0
 40
-6.0
 40
-6.0
 40
-5.0
 40
-5.0
 40
-4.0
 40
-4.0
 40
-3.0
 40
-3.0
 40
-2.0
 40
-2.0
 40
-1.0
 40
-1.0
 40
0.0
 40
0.0
 40
0.0
 10
589.0857142857142
 20
283.6571428571428
 30
0.0
 10
589.4285714285714
 20
284.9771428571429
 30
0.0
 10
589.4285714285714
 20
286.16
 30
0.0
 10
589.4285714285714
 20
289.2628571428571
 30
0.0
 10
587.1142857142857
 20
291.2171428571428
 30
0.0
 10
586.0857142857143
 20
292.0914285714287
 30
0.0
 10
584.6628571428573
 20
292.0914285714287
 30
0.0
 10
582.1600000000001
 20
292.0914285714287
 30
0.0
 10
579.8457142857142
 20
289.8114285714286
 30
0.0
 10
577.5142857142857
 20
287.48
 30
0.0
 10
577.5142857142857
 20
284.8742857142857
 30
0.0
 10
577.5142857142857
 20
280.3828571428571
 30
0.0
 10
580.6
 20
278.6
 30
0.0
 10
581.5771428571429
 20
278.0342857142857
 30
0.0
 10
582.6914285714285
 20
278.0342857142857
 30
0.0
 10
584.7485714285714
 20
278.0342857142857
 30
0.0
 10
586.6514285714286
 20
279.7314285714286
 30
0.0
 10
588.5028571428571
 20
281.3942857142857
 30
0.0
 10
589.0857142857142
 20
283.6571428571428
 30
0.0
  0
SPLINE
  5
114
330
1F
100
AcDbEntity
  8
機台尺寸 Machine Size$60W 3.60
100
AcDbSpline
210
0.0
220
0.0
230
1.0
 70
     8
 71
     2
 72
    12
 73
     9
 74
     0
 42
0.000000001
 43
0.0000000001
 40
-30.0
 40
-30.0
 40
-30.0
 40
-29.0
 40
-29.0
 40
-28.0
 40
-28.0
 40
-27.0
 40
-27.0
 40
-26.0
 40
-26.0
 40
-26.0
 10
575.0628571428572
 20
285.4914285714286
 30
0.0
 10
574.6
 20
286.64
 30
0.0
 10
573.4685714285713
 20
286.64
 30
0.0
 10
572.3714285714286
 20
286.64
 30
0.0
 10
570.8285714285714
 20
285.6285714285714
 30
0.0
 10
569.5085714285714
 20
284.7542857142857
 30
0.0
 10
568.3857142857143
 20
283.5457142857143
 30
0.0
 10
567.2628571428571
 20
282.3371428571428
 30
0.0
 10
567.1600000000002
 20
281.7542857142857
 30
0.0
  0
SPLINE
  5
115
330
1F
100
AcDbEntity
  8
機台尺寸 Machine Size$60W 3.60
100
AcDbSpline
210
0.0
220
0.0
230
1.0
 70
    24
 71
     1
 72
     4
 73
     2
 74
     0
 42
0.000000001
 43
0.0000000001
 40
-26.0
 40
-26.0
 40
-25.0
 40
-25.0
 10
567.1600000000002
 20
281.7542857142857
 30
0.0
 10
567.2283035714285
 20
281.1028571428571
 30
0.0
  0
SPLINE
  5
116
330
1F
100
AcDbEntity
  8
機台尺寸 Machine Size$60W 3.60
100
AcDbSpline
210
0.0
220
0.0
230
1.0
 70
     8
 71
     2
 72
    28
 73
    25
 74
     0
 42
0.000000001
 43
0.0000000001
 40
-25.0
 40
-25.0
 40
-25.0
 40
-24.0
 40
-24.0
 40
-23.0
 40
-23.0
 40
-22.0
 40
-22.0
 40
-21.0
 40
-21.0
 40
-20.0
 40
-20.0
 40
-19.0
 40
-19.0
 40
-18.0
 40
-18.0
 40
-17.0
 40
-17.0
 40
-16.0
 40
-16.0
 40
-15.0
 40
-15.0
 40
-14.0
 40
-14.0
 40
-13.0
 40
-13.0
 40
-13.0
 10
567.2283035714285
 20
281.1028571428571
 30
0.0
 10
567.3140178571428
 20
281.6152673339844
 30
0.0
 10
568.408482142857
 20
282.8283928571428
 30
0.0
 10
569.5546425955638
 20
284.1095535714286
 30
0.0
 10
570.8374107142857
 20
285.0151785714286
 30
0.0
 10
572.3596423339844
 20
286.0914285714287
 30
0.0
 10
573.3515178571429
 20
286.0914285714287
 30
0.0
 10
574.2067846679687
 20
286.0914285714287
 30
0.0
 10
574.5659821428571
 20
285.2704464285714
 30
0.0
 10
574.7028571428573
 20
284.9455351911272
 30
0.0
 10
574.7028571428573
 20
284.5177678571429
 30
0.0
 10
574.7028571428573
 20
282.8075
 30
0.0
 10
573.0608928571428
 20
280.720625
 30
0.0
 10
571.3332142857142
 20
278.4971428571429
 30
0.0
 10
569.6226785714287
 20
278.4971428571429
 30
0.0
 10
568.5450892857143
 20
278.4971428571429
 30
0.0
 10
567.8095535714286
 20
279.2857142857143
 30
0.0
 10
567.0057142857143
 20
280.16
 30
0.0
 10
567.0057142857143
 20
281.6342857142857
 30
0.0
 10
567.0057142857143
 20
283.0571428571429
 30
0.0
 10
568.1457142857142
 20
285.2857142857143
 30
0.0
 10
569.2857142857142
 20
287.5142857142857
 30
0.0
 10
570.8457142857143
 20
289.1771428571429
 30
0.0
 10
572.5771428571428
 20
291.0114285714286
 30
0.0
 10
573.9828571428571
 20
291.2171428571428
 30
0.0
  0
SPLINE
  5
117
330
1F
100
AcDbEntity
  8
機台尺寸 Machine Size$60W 3.60
100
AcDbSpline
210
0.0
220
0.0
230
1.0
 70
    24
 71
     1
 72
     4
 73
     2
 74
     0
 42
0.000000001
 43
0.0000000001
 40
-13.0
 40
-13.0
 40
-12.0
 40
-12.0
 10
573.9828571428571
 20
291.2171428571428
 30
0.0
 10
573.9828571428571
 20
291.7314285714287
 30
0.0
  0
SPLINE
  5
118
330
1F
100
AcDbEntity
  8
機台尺寸 Machine Size$60W 3.60
100
AcDbSpline
210
0.0
220
0.0
230
1.0
 70
     8
 71
     2
 72
    20
 73
    17
 74
     0
 42
0.000000001
 43
0.0000000001
 40
-12.0
 40
-12.0
 40
-12.0
 40
-11.0
 40
-11.0
 40
-10.0
 40
-10.0
 40
-9.0
 40
-9.0
 40
-8.0
 40
-8.0
 40
-7.0
 40
-7.0
 40
-6.0
 40
-6.0
 40
-5.0
 40
-5.0
 40
-4.0
 40
-4.0
 40
-4.0
 10
573.9828571428571
 20
291.7314285714287
 30
0.0
 10
572.4400000000001
 20
291.5257142857143
 30
0.0
 10
570.5885714285714
 20
289.6057142857143
 30
0.0
 10
568.9257142857142
 20
287.8742857142857
 30
0.0
 10
567.7085714285714
 20
285.5085714285714
 30
0.0
 10
566.4914285714286
 20
283.1428571428572
 30
0.0
 10
566.4914285714286
 20
281.6
 30
0.0
 10
566.4914285714286
 20
279.8857142857143
 30
0.0
 10
567.4342857142857
 20
278.8914285714285
 30
0.0
 10
568.2914285714286
 20
278.0
 30
0.0
 10
569.5771428571429
 20
278.0
 30
0.0
 10
571.5485714285714
 20
278.0
 30
0.0
 10
573.4342857142856
 20
280.4
 30
0.0
 10
575.2
 20
282.68
 30
0.0
 10
575.2
 20
284.6514285714286
 30
0.0
 10
575.2
 20
285.1314285714286
 30
0.0
 10
575.0628571428572
 20
285.4914285714286
 30
0.0
  0
SPLINE
  5
119
330
1F
100
AcDbEntity
  8
機台尺寸 Machine Size$60W 3.60
100
AcDbSpline
210
0.0
220
0.0
230
1.0
 70
    24
 71
     1
 72
     4
 73
     2
 74
     0
 42
0.000000001
 43
0.0000000001
 40
-4.0
 40
-4.0
 40
-3.0
 40
-3.0
 10
564.8457142857142
 20
278.0
 30
0.0
 10
564.8457142857142
 20
280.5371428571429
 30
0.0
  0
SPLINE
  5
11A
330
1F
100
AcDbEntity
  8
機台尺寸 Machine Size$60W 3.60
100
AcDbSpline
210
0.0
220
0.0
230
1.0
 70
    24
 71
     1
 72
     4
 73
     2
 74
     0
 42
0.000000001
 43
0.0000000001
 40
-3.0
 40
-3.0
 40
-2.0
 40
-2.0
 10
564.8457142857142
 20
280.5371428571429
 30
0.0
 10
564.3142857142857
 20
280.5371428571429
 30
0.0
  0
SPLINE
  5
11B
330
1F
100
AcDbEntity
  8
機台尺寸 Machine Size$60W 3.60
100
AcDbSpline
210
0.0
220
0.0
230
1.0
 70
    24
 71
     1
 72
     4
 73
     2
 74
     0
 42
0.000000001
 43
0.0000000001
 40
-2.0
 40
-2.0
 40
-1.0
 40
-1.0
 10
564.3142857142857
 20
280.5371428571429
 30
0.0
 10
564.3142857142857
 20
278.0
 30
0.0
  0
SPLINE
  5
11C
330
1F
100
AcDbEntity
  8
機台尺寸 Machine Size$60W 3.60
100
AcDbSpline
210
0.0
220
0.0
230
1.0
 70
    24
 71
     1
 72
     4
 73
     2
 74
     0
 42
0.000000001
 43
0.0000000001
 40
-1.0
 40
-1.0
 40
0.0
 40
0.0
 10
564.3142857142857
 20
278.0
 30
0.0
 10
564.8457142857142
 20
278.0
 30
0.0
  0
SPLINE
  5
11D
330
1F
100
AcDbEntity
  8
機台尺寸 Machine Size$60W 3.60
100
AcDbSpline
210
0.0
220
0.0
230
1.0
 70
     8
 71
     2
 72
     8
 73
     5
 74
     0
 42
0.000000001
 43
0.0000000001
 40
-27.0
 40
-27.0
 40
-27.0
 40
-26.0
 40
-26.0
 40
-25.0
 40
-25.0
 40
-25.0
 10
561.2116964285714
 20
286.8971428571429
 30
0.0
 10
560.6116953822545
 20
287.6685714285715
 30
0.0
 10
559.3950892857143
 20
287.6685714285715
 30
0.0
 10
557.81875
 20
287.6685714285715
 30
0.0
 10
555.7109821428571
 20
286.535
 30
0.0
  0
SPLINE
  5
11E
330
1F
100
AcDbEntity
  8
機台尺寸 Machine Size$60W 3.60
100
AcDbSpline
210
0.0
220
0.0
230
1.0
 70
    24
 71
     1
 72
     4
 73
     2
 74
     0
 42
0.000000001
 43
0.0000000001
 40
-25.0
 40
-25.0
 40
-24.0
 40
-24.0
 10
555.7109821428571
 20
286.535
 30
0.0
 10
559.6420535714286
 20
291.3995535714287
 30
0.0
  0
SPLINE
  5
11F
330
1F
100
AcDbEntity
  8
機台尺寸 Machine Size$60W 3.60
100
AcDbSpline
210
0.0
220
0.0
230
1.0
 70
    24
 71
     1
 72
     4
 73
     2
 74
     0
 42
0.000000001
 43
0.0000000001
 40
-24.0
 40
-24.0
 40
-23.0
 40
-23.0
 10
559.6420535714286
 20
291.3995535714287
 30
0.0
 10
559.4457142857143
 20
291.7657142857143
 30
0.0
  0
SPLINE
  5
120
330
1F
100
AcDbEntity
  8
機台尺寸 Machine Size$60W 3.60
100
AcDbSpline
210
0.0
220
0.0
230
1.0
 70
    24
 71
     1
 72
     4
 73
     2
 74
     0
 42
0.000000001
 43
0.0000000001
 40
-23.0
 40
-23.0
 40
-22.0
 40
-22.0
 10
559.4457142857143
 20
291.7657142857143
 30
0.0
 10
552.7085714285714
 20
289.0882142857143
 30
0.0
  0
SPLINE
  5
121
330
1F
100
AcDbEntity
  8
機台尺寸 Machine Size$60W 3.60
100
AcDbSpline
210
0.0
220
0.0
230
1.0
 70
    24
 71
     1
 72
     4
 73
     2
 74
     0
 42
0.000000001
 43
0.0000000001
 40
-22.0
 40
-22.0
 40
-21.0
 40
-21.0
 10
552.7085714285714
 20
289.0882142857143
 30
0.0
 10
552.7101785714286
 20
288.5388392857143
 30
0.0
  0
SPLINE
  5
122
330
1F
100
AcDbEntity
  8
機台尺寸 Machine Size$60W 3.60
100
AcDbSpline
210
0.0
220
0.0
230
1.0
 70
    24
 71
     1
 72
     4
 73
     2
 74
     0
 42
0.000000001
 43
0.0000000001
 40
-21.0
 40
-21.0
 40
-20.0
 40
-20.0
 10
552.7101785714286
 20
288.5388392857143
 30
0.0
 10
558.5007142857143
 20
290.8373214285714
 30
0.0
  0
SPLINE
  5
123
330
1F
100
AcDbEntity
  8
機台尺寸 Machine Size$60W 3.60
100
AcDbSpline
210
0.0
220
0.0
230
1.0
 70
    24
 71
     1
 72
     4
 73
     2
 74
     0
 42
0.000000001
 43
0.0000000001
 40
-20.0
 40
-20.0
 40
-19.0
 40
-19.0
 10
558.5007142857143
 20
290.8373214285714
 30
0.0
 10
553.8914285714286
 20
285.1657142857143
 30
0.0
  0
SPLINE
  5
124
330
1F
100
AcDbEntity
  8
機台尺寸 Machine Size$60W 3.60
100
AcDbSpline
210
0.0
220
0.0
230
1.0
 70
    24
 71
     1
 72
     4
 73
     2
 74
     0
 42
0.000000001
 43
0.0000000001
 40
-19.0
 40
-19.0
 40
-18.0
 40
-18.0
 10
553.8914285714286
 20
285.1657142857143
 30
0.0
 10
554.5428571428572
 20
284.8057142857143
 30
0.0
  0
SPLINE
  5
125
330
1F
100
AcDbEntity
  8
機台尺寸 Machine Size$60W 3.60
100
AcDbSpline
210
0.0
220
0.0
230
1.0
 70
     8
 71
     2
 72
    22
 73
    19
 74
     0
 42
0.000000001
 43
0.0000000001
 40
-18.0
 40
-18.0
 40
-18.0
 40
-17.0
 40
-17.0
 40
-16.0
 40
-16.0
 40
-15.0
 40
-15.0
 40
-14.0
 40
-14.0
 40
-13.0
 40
-13.0
 40
-12.0
 40
-12.0
 40
-11.0
 40
-11.0
 40
-10.0
 40
-10.0
 40
-9.0
 40
-9.0
 40
-9.0
 10
554.5428571428572
 20
284.8057142857143
 30
0.0
 10
554.5428571428572
 20
285.3028571428571
 30
0.0
 10
556.1542857142856
 20
286.2285714285715
 30
0.0
 10
557.8857142857144
 20
287.2228571428571
 30
0.0
 10
559.2571428571428
 20
287.2228571428571
 30
0.0
 10
560.3028571428572
 20
287.2228571428571
 30
0.0
 10
560.8171428571428
 20
286.555625
 30
0.0
 10
561.0914285714286
 20
286.1964280482701
 30
0.0
 10
561.0914285714286
 20
285.6832142857143
 30
0.0
 10
561.0914285714286
 20
284.7253571428571
 30
0.0
 10
560.2171428571429
 20
283.37375
 30
0.0
 10
559.4457142857143
 20
282.2104464285713
 30
0.0
 10
558.3142857142856
 20
281.1328571428571
 30
0.0
 10
557.4057142857143
 20
280.2773211669922
 30
0.0
 10
555.7428571428571
 20
279.6275
 30
0.0
 10
554.2857142857143
 20
279.0628571428571
 30
0.0
 10
553.4457142857142
 20
279.0628571428571
 30
0.0
 10
553.2914285714285
 20
279.0628571428571
 30
0.0
 10
553.2057142857143
 20
279.0628571428571
 30
0.0
  0
SPLINE
  5
126
330
1F
100
AcDbEntity
  8
機台尺寸 Machine Size$60W 3.60
100
AcDbSpline
210
0.0
220
0.0
230
1.0
 70
    24
 71
     1
 72
     4
 73
     2
 74
     0
 42
0.000000001
 43
0.0000000001
 40
-9.0
 40
-9.0
 40
-8.0
 40
-8.0
 10
553.2057142857143
 20
279.0628571428571
 30
0.0
 10
553.2057142857143
 20
278.5308928571429
 30
0.0
  0
SPLINE
  5
127
330
1F
100
AcDbEntity
  8
機台尺寸 Machine Size$60W 3.60
100
AcDbSpline
210
0.0
220
0.0
230
1.0
 70
     8
 71
     2
 72
    16
 73
    13
 74
     0
 42
0.000000001
 43
0.0000000001
 40
-8.0
 40
-8.0
 40
-8.0
 40
-7.0
 40
-7.0
 40
-6.0
 40
-6.0
 40
-5.0
 40
-5.0
 40
-4.0
 40
-4.0
 40
-3.0
 40
-3.0
 40
-2.0
 40
-2.0
 40
-2.0
 10
553.2057142857143
 20
278.5308928571429
 30
0.0
 10
553.2742857142856
 20
278.5142857142857
 30
0.0
 10
553.3942857142855
 20
278.5142857142857
 30
0.0
 10
554.2685714285714
 20
278.5142857142857
 30
0.0
 10
555.8285714285714
 20
279.0971428571428
 30
0.0
 10
557.6800000000002
 20
279.7828571428571
 30
0.0
 10
558.6914285714285
 20
280.7428571428571
 30
0.0
 10
559.8742857142856
 20
281.8571428571429
 30
0.0
 10
560.6800000000001
 20
283.1942857142857
 30
0.0
 10
561.5542857142856
 20
284.6685714285715
 30
0.0
 10
561.5542857142856
 20
285.7657142857143
 30
0.0
 10
561.5542857142856
 20
286.4514285714287
 30
0.0
 10
561.2116964285714
 20
286.8971428571429
 30
0.0
  0
LINE
  5
128
330
1F
100
AcDbEntity
  8
機台尺寸 Machine Size$60W 3.60
100
AcDbLine
 10
538.0610714285714
 20
279.524375
 30
0.0
 11
535.7296428571428
 21
291.764375
 31
0.0
  0
LINE
  5
129
330
1F
100
AcDbEntity
  8
機台尺寸 Machine Size$60W 3.60
100
AcDbLine
 10
535.7296428571428
 20
291.764375
 30
0.0
 11
535.2054464285714
 21
291.7657142857143
 31
0.0
  0
LINE
  5
12A
330
1F
100
AcDbEntity
  8
機台尺寸 Machine Size$60W 3.60
100
AcDbLine
 10
535.2054464285714
 20
291.7657142857143
 30
0.0
 11
537.8114285714286
 21
278.0857142857143
 31
0.0
  0
LINE
  5
12B
330
1F
100
AcDbEntity
  8
機台尺寸 Machine Size$60W 3.60
100
AcDbLine
 10
537.8114285714286
 20
278.0857142857143
 30
0.0
 11
538.2166964285715
 21
278.091875
 31
0.0
  0
LINE
  5
12C
330
1F
100
AcDbEntity
  8
機台尺寸 Machine Size$60W 3.60
100
AcDbLine
 10
538.2166964285715
 20
278.091875
 30
0.0
 11
541.4513392857143
 21
290.414375
 31
0.0
  0
LINE
  5
12D
330
1F
100
AcDbEntity
  8
機台尺寸 Machine Size$60W 3.60
100
AcDbLine
 10
541.4513392857143
 20
290.414375
 30
0.0
 11
543.9608928571429
 21
278.0024107142857
 31
0.0
  0
LINE
  5
12E
330
1F
100
AcDbEntity
  8
機台尺寸 Machine Size$60W 3.60
100
AcDbLine
 10
543.9608928571429
 20
278.0024107142857
 30
0.0
 11
544.376875
 21
278.0
 31
0.0
  0
LINE
  5
12F
330
1F
100
AcDbEntity
  8
機台尺寸 Machine Size$60W 3.60
100
AcDbLine
 10
544.376875
 20
278.0
 30
0.0
 11
548.0457142857143
 21
291.8342857142857
 31
0.0
  0
LINE
  5
130
330
1F
100
AcDbEntity
  8
機台尺寸 Machine Size$60W 3.60
100
AcDbLine
 10
548.0457142857143
 20
291.8342857142857
 30
0.0
 11
547.5126785714286
 21
291.8302678571428
 31
0.0
  0
LINE
  5
131
330
1F
100
AcDbEntity
  8
機台尺寸 Machine Size$60W 3.60
100
AcDbLine
 10
547.5126785714286
 20
291.8302678571428
 30
0.0
 11
544.2086607142857
 21
279.3719642857143
 31
0.0
  0
LINE
  5
132
330
1F
100
AcDbEntity
  8
機台尺寸 Machine Size$60W 3.60
100
AcDbLine
 10
544.2086607142857
 20
279.3719642857143
 30
0.0
 11
541.7028571428572
 21
291.7657142857143
 31
0.0
  0
LINE
  5
133
330
1F
100
AcDbEntity
  8
機台尺寸 Machine Size$60W 3.60
100
AcDbLine
 10
541.7028571428572
 20
291.7657142857143
 30
0.0
 11
541.2745535714285
 21
291.7657142857143
 31
0.0
  0
SPLINE
  5
134
330
1F
100
AcDbEntity
  8
機台尺寸 Machine Size$60W 3.60
100
AcDbSpline
210
0.0
220
0.0
230
1.0
 70
     8
 71
     2
 72
     6
 73
     3
 74
     0
 42
0.000000001
 43
0.0000000001
 40
-13.0
 40
-13.0
 40
-13.0
 40
-12.0
 40
-12.0
 40
-12.0
 10
541.2745535714285
 20
291.7657142857143
 30
0.0
 10
538.9374994768417
 20
282.8332142857143
 30
0.0
 10
538.0610714285714
 20
279.524375
 30
0.0
  0
SPLINE
  5
135
330
1F
100
AcDbEntity
  8
機台尺寸 Machine Size$60W 3.60
100
AcDbSpline
210
0.0
220
0.0
230
1.0
 70
     9
 71
     2
 72
    22
 73
    19
 74
     0
 42
0.000000001
 43
0.0000000001
 40
0.0
 40
0.0
 40
0.0
 40
1.0
 40
1.0
 40
2.0
 40
2.0
 40
3.0
 40
3.0
 40
4.0
 40
4.0
 40
5.0
 40
5.0
 40
6.0
 40
6.0
 40
7.0
 40
7.0
 40
8.0
 40
8.0
 40
9.0
 40
9.0
 40
9.0
 10
533.6108928571428
 20
283.76
 30
0.0
 10
533.9371428571427
 20
285.0285714285714
 30
0.0
 10
533.9371428571427
 20
286.1428571428572
 30
0.0
 10
533.9371428571427
 20
289.0057142857143
 30
0.0
 10
531.8079464285714
 20
290.8057142857143
 30
0.0
 10
530.8637499999999
 20
291.5942857142857
 30
0.0
 10
529.6104464285714
 20
291.5942857142857
 30
0.0
 10
527.30955304827
 20
291.5942857142857
 30
0.0
 10
525.1804910714286
 20
289.4428571428571
 30
0.0
 10
523.0514285714285
 20
287.2914285714287
 30
0.0
 10
523.0514285714285
 20
284.8742857142857
 30
0.0
 10
523.0514285714285
 20
280.7085714285714
 30
0.0
 10
525.9016964285714
 20
279.0457142857143
 30
0.0
 10
526.7773214285714
 20
278.5314285714286
 30
0.0
 10
527.7903571428571
 20
278.5314285714286
 30
0.0
 10
529.661875
 20
278.5314285714286
 30
0.0
 10
531.3959821428571
 20
280.1428571428571
 30
0.0
 10
533.0786607142857
 20
281.6857142857143
 30
0.0
 10
533.6108928571428
 20
283.76
 30
0.0
  0
SPLINE
  5
136
330
1F
100
AcDbEntity
  8
機台尺寸 Machine Size$60W 3.60
100
AcDbSpline
210
0.0
220
0.0
230
1.0
 70
     9
 71
     2
 72
    22
 73
    19
 74
     0
 42
0.000000001
 43
0.0000000001
 40
-9.0
 40
-9.0
 40
-9.0
 40
-8.0
 40
-8.0
 40
-7.0
 40
-7.0
 40
-6.0
 40
-6.0
 40
-5.0
 40
-5.0
 40
-4.0
 40
-4.0
 40
-3.0
 40
-3.0
 40
-2.0
 40
-2.0
 40
-1.0
 40
-1.0
 40
0.0
 40
0.0
 40
0.0
 10
534.1257142857143
 20
283.6571428571428
 30
0.0
 10
534.4685714285714
 20
284.9771428571429
 30
0.0
 10
534.4685714285714
 20
286.16
 30
0.0
 10
534.4685714285714
 20
289.2628571428571
 30
0.0
 10
532.1542857142856
 20
291.2171428571428
 30
0.0
 10
531.1257142857143
 20
292.0914285714287
 30
0.0
 10
529.7028571428572
 20
292.0914285714287
 30
0.0
 10
527.2
 20
292.0914285714287
 30
0.0
 10
524.8857142857143
 20
289.8114285714286
 30
0.0
 10
522.5542857142857
 20
287.48
 30
0.0
 10
522.5542857142857
 20
284.8742857142857
 30
0.0
 10
522.5542857142857
 20
280.3828571428571
 30
0.0
 10
525.64
 20
278.6
 30
0.0
 10
526.6171428571428
 20
278.0342857142857
 30
0.0
 10
527.7314285714286
 20
278.0342857142857
 30
0.0
 10
529.7885714285714
 20
278.0342857142857
 30
0.0
 10
531.6914285714285
 20
279.7314285714286
 30
0.0
 10
533.5428571428572
 20
281.3942857142857
 30
0.0
 10
534.1257142857143
 20
283.6571428571428
 30
0.0
  0
SPLINE
  5
137
330
1F
100
AcDbEntity
  8
機台尺寸 Machine Size$60W 3.60
100
AcDbSpline
210
0.0
220
0.0
230
1.0
 70
     8
 71
     2
 72
    12
 73
     9
 74
     0
 42
0.000000001
 43
0.0000000001
 40
-30.0
 40
-30.0
 40
-30.0
 40
-29.0
 40
-29.0
 40
-28.0
 40
-28.0
 40
-27.0
 40
-27.0
 40
-26.0
 40
-26.0
 40
-26.0
 10
520.1028571428572
 20
285.4914285714286
 30
0.0
 10
519.6399999999999
 20
286.64
 30
0.0
 10
518.5085714285714
 20
286.64
 30
0.0
 10
517.4114285714286
 20
286.64
 30
0.0
 10
515.8685714285715
 20
285.6285714285714
 30
0.0
 10
514.5485714285714
 20
284.7542857142857
 30
0.0
 10
513.4257142857143
 20
283.5457142857143
 30
0.0
 10
512.3028571428571
 20
282.3371428571428
 30
0.0
 10
512.2
 20
281.7542857142857
 30
0.0
  0
SPLINE
  5
138
330
1F
100
AcDbEntity
  8
機台尺寸 Machine Size$60W 3.60
100
AcDbSpline
210
0.0
220
0.0
230
1.0
 70
    24
 71
     1
 72
     4
 73
     2
 74
     0
 42
0.000000001
 43
0.0000000001
 40
-26.0
 40
-26.0
 40
-25.0
 40
-25.0
 10
512.2
 20
281.7542857142857
 30
0.0
 10
512.2683035714286
 20
281.1028571428571
 30
0.0
  0
SPLINE
  5
139
330
1F
100
AcDbEntity
  8
機台尺寸 Machine Size$60W 3.60
100
AcDbSpline
210
0.0
220
0.0
230
1.0
 70
     8
 71
     2
 72
    28
 73
    25
 74
     0
 42
0.000000001
 43
0.0000000001
 40
-25.0
 40
-25.0
 40
-25.0
 40
-24.0
 40
-24.0
 40
-23.0
 40
-23.0
 40
-22.0
 40
-22.0
 40
-21.0
 40
-21.0
 40
-20.0
 40
-20.0
 40
-19.0
 40
-19.0
 40
-18.0
 40
-18.0
 40
-17.0
 40
-17.0
 40
-16.0
 40
-16.0
 40
-15.0
 40
-15.0
 40
-14.0
 40
-14.0
 40
-13.0
 40
-13.0
 40
-13.0
 10
512.2683035714286
 20
281.1028571428571
 30
0.0
 10
512.3540178571428
 20
281.6152673339844
 30
0.0
 10
513.4484821428571
 20
282.8283928571428
 30
0.0
 10
514.5946425955636
 20
284.1095535714286
 30
0.0
 10
515.8774107142857
 20
285.0151785714286
 30
0.0
 10
517.3996423339843
 20
286.0914285714287
 30
0.0
 10
518.3915178571428
 20
286.0914285714287
 30
0.0
 10
519.2467846679688
 20
286.0914285714287
 30
0.0
 10
519.6059821428572
 20
285.2704464285714
 30
0.0
 10
519.7428571428571
 20
284.9455351911272
 30
0.0
 10
519.7428571428571
 20
284.5177678571429
 30
0.0
 10
519.7428571428571
 20
282.8075
 30
0.0
 10
518.1008928571428
 20
280.720625
 30
0.0
 10
516.3732142857143
 20
278.4971428571429
 30
0.0
 10
514.6626785714286
 20
278.4971428571429
 30
0.0
 10
513.5850892857144
 20
278.4971428571429
 30
0.0
 10
512.8495535714286
 20
279.2857142857143
 30
0.0
 10
512.0457142857143
 20
280.16
 30
0.0
 10
512.0457142857143
 20
281.6342857142857
 30
0.0
 10
512.0457142857143
 20
283.0571428571429
 30
0.0
 10
513.1857142857143
 20
285.2857142857143
 30
0.0
 10
514.3257142857143
 20
287.5142857142857
 30
0.0
 10
515.8857142857143
 20
289.1771428571429
 30
0.0
 10
517.6171428571429
 20
291.0114285714286
 30
0.0
 10
519.0228571428572
 20
291.2171428571428
 30
0.0
  0
SPLINE
  5
13A
330
1F
100
AcDbEntity
  8
機台尺寸 Machine Size$60W 3.60
100
AcDbSpline
210
0.0
220
0.0
230
1.0
 70
    24
 71
     1
 72
     4
 73
     2
 74
     0
 42
0.000000001
 43
0.0000000001
 40
-13.0
 40
-13.0
 40
-12.0
 40
-12.0
 10
519.0228571428572
 20
291.2171428571428
 30
0.0
 10
519.0228571428572
 20
291.7314285714287
 30
0.0
  0
SPLINE
  5
13B
330
1F
100
AcDbEntity
  8
機台尺寸 Machine Size$60W 3.60
100
AcDbSpline
210
0.0
220
0.0
230
1.0
 70
     8
 71
     2
 72
    20
 73
    17
 74
     0
 42
0.000000001
 43
0.0000000001
 40
-12.0
 40
-12.0
 40
-12.0
 40
-11.0
 40
-11.0
 40
-10.0
 40
-10.0
 40
-9.0
 40
-9.0
 40
-8.0
 40
-8.0
 40
-7.0
 40
-7.0
 40
-6.0
 40
-6.0
 40
-5.0
 40
-5.0
 40
-4.0
 40
-4.0
 40
-4.0
 10
519.0228571428572
 20
291.7314285714287
 30
0.0
 10
517.48
 20
291.5257142857143
 30
0.0
 10
515.6285714285714
 20
289.6057142857143
 30
0.0
 10
513.9657142857142
 20
287.8742857142857
 30
0.0
 10
512.7485714285715
 20
285.5085714285714
 30
0.0
 10
511.5314285714285
 20
283.1428571428572
 30
0.0
 10
511.5314285714285
 20
281.6
 30
0.0
 10
511.5314285714285
 20
279.8857142857143
 30
0.0
 10
512.4742857142857
 20
278.8914285714285
 30
0.0
 10
513.3314285714285
 20
278.0
 30
0.0
 10
514.6171428571428
 20
278.0
 30
0.0
 10
516.5885714285714
 20
278.0
 30
0.0
 10
518.4742857142857
 20
280.4
 30
0.0
 10
520.2399999999999
 20
282.68
 30
0.0
 10
520.2399999999999
 20
284.6514285714286
 30
0.0
 10
520.2399999999999
 20
285.1314285714286
 30
0.0
 10
520.1028571428572
 20
285.4914285714286
 30
0.0
  0
POLYLINE
  5
13C
330
1F
100
AcDbEntity
  8
機台尺寸 Machine Size$50W
100
AcDb2dPolyline
 66
     1
 10
0.0
 20
0.0
 30
0.0
 70
     1
  0
VERTEX
  5
13D
330
13C
100
AcDbEntity
  8
機台尺寸 Machine Size$50W
100
AcDbVertex
100
AcDb2dVertex
 10
0.0
 20
0.0
 30
0.0
  0
VERTEX
  5
13E
330
13C
100
AcDbEntity
  8
機台尺寸 Machine Size$50W
100
AcDbVertex
100
AcDb2dVertex
 10
800.0
 20
0.0
 30
0.0
  0
VERTEX
  5
13F
330
13C
100
AcDbEntity
  8
機台尺寸 Machine Size$50W
100
AcDbVertex
100
AcDb2dVertex
 10
800.0
 20
600.0
 30
0.0
  0
VERTEX
  5
140
330
13C
100
AcDbEntity
  8
機台尺寸 Machine Size$50W
100
AcDbVertex
100
AcDb2dVertex
 10
0.0
 20
600.0
 30
0.0
  0
SEQEND
  5
141
330
13C
100
AcDbEntity
  8
機台尺寸 Machine Size$50W
  0
POLYLINE
  5
142
330
1F
100
AcDbEntity
  8
機台尺寸 Machine Size$150W
100
AcDb2dPolyline
 66
     1
 10
0.0
 20
0.0
 30
0.0
 70
     1
  0
VERTEX
  5
143
330
142
100
AcDbEntity
  8
機台尺寸 Machine Size$150W
100
AcDbVertex
100
AcDb2dVertex
 10
0.0
 20
0.0
 30
0.0
  0
VERTEX
  5
144
330
142
100
AcDbEntity
  8
機台尺寸 Machine Size$150W
100
AcDbVertex
100
AcDb2dVertex
 10
1200.0
 20
0.0
 30
0.0
  0
VERTEX
  5
145
330
142
100
AcDbEntity
  8
機台尺寸 Machine Size$150W
100
AcDbVertex
100
AcDb2dVertex
 10
1200.0
 20
900.0
 30
0.0
  0
VERTEX
  5
146
330
142
100
AcDbEntity
  8
機台尺寸 Machine Size$150W
100
AcDbVertex
100
AcDb2dVertex
 10
0.0
 20
900.0
 30
0.0
  0
SEQEND
  5
147
330
142
100
AcDbEntity
  8
機台尺寸 Machine Size$150W
  0
POLYLINE
  5
148
330
1F
100
AcDbEntity
  8
機台尺寸 Machine Size$80W
100
AcDb2dPolyline
 66
     1
 10
0.0
 20
0.0
 30
0.0
 70
     1
  0
VERTEX
  5
149
330
148
100
AcDbEntity
  8
機台尺寸 Machine Size$80W
100
AcDbVertex
100
AcDb2dVertex
 10
0.0
 20
0.0
 30
0.0
  0
VERTEX
  5
14A
330
148
100
AcDbEntity
  8
機台尺寸 Machine Size$80W
100
AcDbVertex
100
AcDb2dVertex
 10
900.0
 20
0.0
 30
0.0
  0
VERTEX
  5
14B
330
148
100
AcDbEntity
  8
機台尺寸 Machine Size$80W
100
AcDbVertex
100
AcDb2dVertex
 10
900.0
 20
600.0
 30
0.0
  0
VERTEX
  5
14C
330
148
100
AcDbEntity
  8
機台尺寸 Machine Size$80W
100
AcDbVertex
100
AcDb2dVertex
 10
0.0
 20
600.0
 30
0.0
  0
SEQEND
  5
14D
330
148
100
AcDbEntity
  8
機台尺寸 Machine Size$80W
  0
POLYLINE
  5
14E
330
1F
100
AcDbEntity
  8
機台尺寸 Machine Size$60W 6.60
100
AcDb2dPolyline
 66
     1
 10
0.0
 20
0.0
 30
0.0
 70
     1
  0
VERTEX
  5
14F
330
14E
100
AcDbEntity
  8
機台尺寸 Machine Size$60W 6.60
100
AcDbVertex
100
AcDb2dVertex
 10
0.0
 20
0.0
 30
0.0
  0
VERTEX
  5
150
330
14E
100
AcDbEntity
  8
機台尺寸 Machine Size$60W 6.60
100
AcDbVertex
100
AcDb2dVertex
 10
800.0
 20
0.0
 30
0.0
  0
VERTEX
  5
151
330
14E
100
AcDbEntity
  8
機台尺寸 Machine Size$60W 6.60
100
AcDbVertex
100
AcDb2dVertex
 10
800.0
 20
450.0
 30
0.0
  0
VERTEX
  5
152
330
14E
100
AcDbEntity
  8
機台尺寸 Machine Size$60W 6.60
100
AcDbVertex
100
AcDb2dVertex
 10
0.0
 20
450.0
 30
0.0
  0
SEQEND
  5
153
330
14E
100
AcDbEntity
  8
機台尺寸 Machine Size$60W 6.60
  0
POLYLINE
  5
154
330
1F
100
AcDbEntity
  8
機台尺寸 Machine Size$60W 3.60
100
AcDb2dPolyline
 66
     1
 10
0.0
 20
0.0
 30
0.0
 70
     1
  0
VERTEX
  5
155
330
154
100
AcDbEntity
  8
機台尺寸 Machine Size$60W 3.60
100
AcDbVertex
100
AcDb2dVertex
 10
0.0
 20
0.0
 30
0.0
  0
VERTEX
  5
156
330
154
100
AcDbEntity
  8
機台尺寸 Machine Size$60W 3.60
100
AcDbVertex
100
AcDb2dVertex
 10
600.0
 20
0.0
 30
0.0
  0
VERTEX
  5
157
330
154
100
AcDbEntity
  8
機台尺寸 Machine Size$60W 3.60
100
AcDbVertex
100
AcDb2dVertex
 10
600.0
 20
300.0
 30
0.0
  0
VERTEX
  5
158
330
154
100
AcDbEntity
  8
機台尺寸 Machine Size$60W 3.60
100
AcDbVertex
100
AcDb2dVertex
 10
0.0
 20
300.0
 30
0.0
  0
SEQEND
  5
159
330
154
100
AcDbEntity
  8
機台尺寸 Machine Size$60W 3.60
  0
ENDSEC
  0
SECTION
  2
OBJECTS
  0
DICTIONARY
  5
C
330
0
100
AcDbDictionary
281
     1
  3
ACAD_CIP_PREVIOUS_PRODUCT_INFO
350
19E
  3
ACAD_COLOR
350
199
  3
ACAD_DETAILVIEWSTYLE
350
195
  3
ACAD_GROUP
350
D
  3
ACAD_LAST_SAVED_VERSION_INFO
350
19F
  3
ACAD_LAYOUT
350
1A
  3
ACAD_MATERIAL
350
43
  3
ACAD_MLEADERSTYLE
350
5B
  3
ACAD_MLINESTYLE
350
17
  3
ACAD_PLOTSETTINGS
350
19
  3
ACAD_PLOTSTYLENAME
350
E
  3
ACAD_SCALELIST
350
47
  3
ACAD_SECTIONVIEWSTYLE
350
196
  3
ACAD_TABLESTYLE
350
59
  3
ACAD_VISUALSTYLE
350
2A
  3
ACDB_RECOMPOSE_DATA
350
1B4
  3
AcDbVariableDictionary
350
15A
  0
SUN
  5
5D
330
29
100
AcDbSun
 90
        1
290
     1
 63
     7
421
 16777215
 40
1.0
291
     1
 91
  2455826
 92
 54000000
292
     0
 70
     0
 71
   256
280
     1
  0
DICTIONARY
  5
1A0
330
10
100
AcDbDictionary
280
     1
281
     1
  3
ADSK_XREC_LAYER_RECONCILED
360
1A1
  0
DICTIONARY
  5
1A2
330
5F
100
AcDbDictionary
280
     1
281
     1
  3
ADSK_XREC_LAYER_RECONCILED
360
1A3
  0
DICTIONARY
  5
1A4
330
60
100
AcDbDictionary
280
     1
281
     1
  3
ADSK_XREC_LAYER_RECONCILED
360
1A5
  0
DICTIONARY
  5
1A6
330
61
100
AcDbDictionary
280
     1
281
     1
  3
ADSK_XREC_LAYER_RECONCILED
360
1A7
  0
DICTIONARY
  5
1A8
330
62
100
AcDbDictionary
280
     1
281
     1
  3
ADSK_XREC_LAYER_RECONCILED
360
1A9
  0
DICTIONARY
  5
1AA
330
63
100
AcDbDictionary
280
     1
281
     1
  3
ADSK_XREC_LAYER_RECONCILED
360
1AB
  0
DICTIONARY
  5
1AC
330
64
100
AcDbDictionary
280
     1
281
     1
  3
ADSK_XREC_LAYER_RECONCILED
360
1AD
  0
XRECORD
  5
19E
102
{ACAD_REACTORS
330
C
102
}
330
C
100
AcDbXrecord
280
     1
300
ACDLT
300
2026
300

  0
DICTIONARY
  5
199
102
{ACAD_REACTORS
330
C
102
}
330
C
100
AcDbDictionary
281
     1
  0
DICTIONARY
  5
195
102
{ACAD_REACTORS
330
C
102
}
330
C
100
AcDbDictionary
281
     1
  3
Metric50
350
19B
  0
DICTIONARY
  5
D
102
{ACAD_REACTORS
330
C
102
}
330
C
100
AcDbDictionary
281
     1
  0
XRECORD
  5
19F
102
{ACAD_REACTORS
330
C
102
}
330
C
100
AcDbXrecord
280
     1
300
{7A4D3E28-E27F-EA40-B1F8-88FB64A61A2A}
301
{2BBB601C-2444-A546-A156-F3971AB4349F}
302
{7A4D3E28-E27F-EA40-B1F8-88FB64A61A2A}
303
C:\Users\User\Downloads\WorkArea.dxf
  0
DICTIONARY
  5
1A
102
{ACAD_REACTORS
330
C
102
}
330
C
100
AcDbDictionary
281
     1
  3
Layout1
350
1E
  3
Layout2
350
26
  3
Model
350
22
  0
DICTIONARY
  5
43
102
{ACAD_REACTORS
330
C
102
}
330
C
100
AcDbDictionary
281
     1
  3
ByBlock
350
45
  3
ByLayer
350
44
  3
Global
350
46
  0
DICTIONARY
  5
5B
102
{ACAD_REACTORS
330
C
102
}
330
C
100
AcDbDictionary
281
     1
  3
Standard
350
5C
  0
DICTIONARY
  5
17
102
{ACAD_REACTORS
330
C
102
}
330
C
100
AcDbDictionary
281
     1
  3
Standard
350
18
  0
DICTIONARY
  5
19
102
{ACAD_REACTORS
330
C
102
}
330
C
100
AcDbDictionary
281
     1
  0
ACDBDICTIONARYWDFLT
  5
E
102
{ACAD_REACTORS
330
C
102
}
330
C
100
AcDbDictionary
281
     1
  3
Normal
350
F
100
AcDbDictionaryWithDefault
340
F
  0
DICTIONARY
  5
47
102
{ACAD_REACTORS
330
C
102
}
330
C
100
AcDbDictionary
281
     1
  3
A0
350
48
  3
A1
350
49
  3
A2
350
4A
  3
A3
350
4B
  3
A4
350
4C
  3
A5
350
4D
  3
A6
350
4E
  3
A7
350
4F
  3
A8
350
50
  3
A9
350
51
  3
B1
350
52
  3
B2
350
53
  3
B3
350
54
  3
B4
350
55
  3
B5
350
56
  3
B6
350
57
  3
B7
350
58
  0
DICTIONARY
  5
196
102
{ACAD_REACTORS
330
C
102
}
330
C
100
AcDbDictionary
281
     1
  3
Metric50
350
19A
  0
DICTIONARY
  5
59
102
{ACAD_REACTORS
330
C
102
}
330
C
100
AcDbDictionary
281
     1
  3
Standard
350
5A
  0
DICTIONARY
  5
2A
102
{ACAD_REACTORS
330
C
102
}
330
C
100
AcDbDictionary
281
     1
  3
2dWireframe
350
2F
  3
Basic
350
32
  3
Brighten
350
36
  3
ColorChange
350
3A
  3
Conceptual
350
34
  3
Dim
350
35
  3
EdgeColorOff
350
3D
  3
Facepattern
350
39
  3
Flat
350
2B
  3
FlatWithEdges
350
2C
  3
Gouraud
350
2D
  3
GouraudWithEdges
350
2E
  3
Hidden
350
31
  3
JitterOff
350
3B
  3
Linepattern
350
38
  3
OverhangOff
350
3C
  3
Realistic
350
33
  3
Shaded
350
42
  3
Shaded with edges
350
41
  3
Shades of Gray
350
3E
  3
Sketchy
350
3F
  3
Thicken
350
37
  3
Wireframe
350
30
  3
X-Ray
350
40
  0
XRECORD
  5
1B4
102
{ACAD_REACTORS
330
C
102
}
330
C
100
AcDbXrecord
280
     1
 90
        1
330
5A
  0
DICTIONARY
  5
15A
102
{ACAD_REACTORS
330
C
102
}
330
C
100
AcDbDictionary
281
     1
  3
CANNOSCALE
350
15B
  3
CMLEADERSTYLE
350
194
  3
CTABLESTYLE
350
193
  3
CVIEWDETAILSTYLE
350
1AE
  3
CVIEWSECTIONSTYLE
350
1AF
  3
LAYEREVAL
350
1B0
  3
LAYERNOTIFY
350
1B1
  0
XRECORD
  5
1A1
102
{ACAD_REACTORS
330
1A0
102
}
330
1A0
100
AcDbXrecord
280
     1
290
     1
  0
XRECORD
  5
1A3
102
{ACAD_REACTORS
330
1A2
102
}
330
1A2
100
AcDbXrecord
280
     1
290
     1
  0
XRECORD
  5
1A5
102
{ACAD_REACTORS
330
1A4
102
}
330
1A4
100
AcDbXrecord
280
     1
290
     1
  0
XRECORD
  5
1A7
102
{ACAD_REACTORS
330
1A6
102
}
330
1A6
100
AcDbXrecord
280
     1
290
     1
  0
XRECORD
  5
1A9
102
{ACAD_REACTORS
330
1A8
102
}
330
1A8
100
AcDbXrecord
280
     1
290
     1
  0
XRECORD
  5
1AB
102
{ACAD_REACTORS
330
1AA
102
}
330
1AA
100
AcDbXrecord
280
     1
290
     1
  0
XRECORD
  5
1AD
102
{ACAD_REACTORS
330
1AC
102
}
330
1AC
100
AcDbXrecord
280
     1
290
     1
  0
ACDBDETAILVIEWSTYLE
  5
19B
102
{ACAD_REACTORS
330
195
102
}
330
195
100
AcDbModelDocViewStyle
 70
     0
  3
Metric50
290
     0
300
Metric50
 90
        0
100
AcDbDetailViewStyle
 70
     0
 71
     0
 90
        3
 71
     1
340
11
 62
   256
 40
5.0
340
0
 62
   256
 40
5.0
300

 40
0.0
280
     1
 71
     2
340
16
 90
       25
 62
   256
 71
     3
340
11
 62
   256
 40
5.0
 90
        0
 40
15.0
 90
        1
300
%<\AcVar ViewDetailId>% (%<\AcVar ViewScale \f "%sn">%)
 71
     4
340
16
 90
       25
 62
   256
340
16
 90
       25
 62
   256
280
     0
  0
LAYOUT
  5
1E
102
{ACAD_REACTORS
330
1A
102
}
330
1A
100
AcDbPlotSettings
  1

  2
none_device
  4

  6

 40
0.0
 41
0.0
 42
0.0
 43
0.0
 44
0.0
 45
0.0
 46
0.0
 47
0.0
 48
0.0
 49
0.0
140
0.0
141
0.0
142
1.0
143
1.0
 70
   688
 72
     0
 73
     0
 74
     5
  7

 75
    16
147
1.0
 76
     0
 77
     2
 78
   300
148
0.0
149
0.0
100
AcDbLayout
  1
Layout1
 70
     1
 71
     1
 10
0.0
 20
0.0
 11
12.0
 21
9.0
 12
0.0
 22
0.0
 32
0.0
 14
1.000000000000000E+20
 24
1.000000000000000E+20
 34
1.000000000000000E+20
 15
-1.000000000000000E+20
 25
-1.000000000000000E+20
 35
-1.000000000000000E+20
146
0.0
 13
0.0
 23
0.0
 33
0.0
 16
1.0
 26
0.0
 36
0.0
 17
0.0
 27
1.0
 37
0.0
 76
     0
330
1B
  0
LAYOUT
  5
26
102
{ACAD_REACTORS
330
1A
102
}
330
1A
100
AcDbPlotSettings
  1

  2
none_device
  4

  6

 40
0.0
 41
0.0
 42
0.0
 43
0.0
 44
0.0
 45
0.0
 46
0.0
 47
0.0
 48
0.0
 49
0.0
140
0.0
141
0.0
142
1.0
143
1.0
 70
   688
 72
     0
 73
     0
 74
     5
  7

 75
    16
147
1.0
 76
     0
 77
     2
 78
   300
148
0.0
149
0.0
100
AcDbLayout
  1
Layout2
 70
     1
 71
     2
 10
0.0
 20
0.0
 11
0.0
 21
0.0
 12
0.0
 22
0.0
 32
0.0
 14
0.0
 24
0.0
 34
0.0
 15
0.0
 25
0.0
 35
0.0
146
0.0
 13
0.0
 23
0.0
 33
0.0
 16
1.0
 26
0.0
 36
0.0
 17
0.0
 27
1.0
 37
0.0
 76
     0
330
23
  0
LAYOUT
  5
22
102
{ACAD_REACTORS
330
1A
102
}
330
1A
100
AcDbPlotSettings
  1

  2
none_device
  4
Letter_(8.50_x_11.00_Inches)
  6

 40
6.349999999999999
 41
6.349999999999999
 42
6.350005079999999
 43
6.350005079999999
 44
215.9
 45
279.4
 46
0.0
 47
0.0
 48
0.0
 49
0.0
140
0.0
141
0.0
142
1.0
143
1.0
 70
  1712
 72
     0
 73
     0
 74
     0
  7

 75
     0
147
1.0
 76
     0
 77
     2
 78
   300
148
0.0
149
0.0
100
AcDbLayout
  1
Model
 70
     1
 71
     0
 10
0.0
 20
0.0
 11
12.0
 21
9.0
 12
0.0
 22
0.0
 32
0.0
 14
0.0
 24
0.0
 34
0.0
 15
1200.0
 25
900.0
 35
0.0
146
0.0
 13
0.0
 23
0.0
 33
0.0
 16
1.0
 26
0.0
 36
0.0
 17
0.0
 27
1.0
 37
0.0
 76
     0
330
1F
331
29
  0
MATERIAL
  5
45
102
{ACAD_REACTORS
330
43
102
}
330
43
100
AcDbMaterial
  1
ByBlock
  0
MATERIAL
  5
44
102
{ACAD_REACTORS
330
43
102
}
330
43
100
AcDbMaterial
  1
ByLayer
  0
MATERIAL
  5
46
102
{ACAD_REACTORS
330
43
102
}
330
43
100
AcDbMaterial
  1
Global
  0
MLEADERSTYLE
  5
5C
102
{ACAD_REACTORS
330
5B
102
}
330
5B
100
AcDbMLeaderStyle
179
     2
170
     2
171
     1
172
     0
 90
        2
 40
0.0
 41
0.0
173
     1
 91
-1056964608
340
14
 92
       -2
290
     1
 42
0.09
291
     1
 43
0.36
  3
Standard
 44
0.18
300

342
11
174
     1
178
     6
175
     1
176
     0
 93
-1056964608
 45
0.18
292
     0
297
     0
 46
0.18
 94
-1056964608
 47
1.0
 49
1.0
140
1.0
293
     1
141
0.0
294
     1
177
     0
142
1.0
295
     0
296
     0
143
0.125
271
     0
272
     9
273
     9
298
     0
1001
ACAD_MLEADERVER
1070
     2
  0
MLINESTYLE
  5
18
102
{ACAD_REACTORS
330
17
102
}
330
17
100
AcDbMlineStyle
  2
STANDARD
 70
     0
  3

 62
   256
 51
90.0
 52
90.0
 71
     2
 49
0.5
 62
   256
  6
BYLAYER
 49
-0.5
 62
   256
  6
BYLAYER
  0
ACDBPLACEHOLDER
  5
F
102
{ACAD_REACTORS
330
E
102
}
330
E
  0
SCALE
  5
48
102
{ACAD_REACTORS
330
47
102
}
330
47
100
AcDbScale
 70
     0
300
1:1
140
1.0
141
1.0
290
     1
  0
SCALE
  5
49
102
{ACAD_REACTORS
330
47
102
}
330
47
100
AcDbScale
 70
     0
300
1/128" = 1'-0"
140
0.0078125
141
12.0
290
     0
  0
SCALE
  5
4A
102
{ACAD_REACTORS
330
47
102
}
330
47
100
AcDbScale
 70
     0
300
1/64" = 1'-0"
140
0.015625
141
12.0
290
     0
  0
SCALE
  5
4B
102
{ACAD_REACTORS
330
47
102
}
330
47
100
AcDbScale
 70
     0
300
1/32" = 1'-0"
140
0.03125
141
12.0
290
     0
  0
SCALE
  5
4C
102
{ACAD_REACTORS
330
47
102
}
330
47
100
AcDbScale
 70
     0
300
1/16" = 1'-0"
140
0.0625
141
12.0
290
     0
  0
SCALE
  5
4D
102
{ACAD_REACTORS
330
47
102
}
330
47
100
AcDbScale
 70
     0
300
3/32" = 1'-0"
140
0.09375
141
12.0
290
     0
  0
SCALE
  5
4E
102
{ACAD_REACTORS
330
47
102
}
330
47
100
AcDbScale
 70
     0
300
1/8" = 1'-0"
140
0.125
141
12.0
290
     0
  0
SCALE
  5
4F
102
{ACAD_REACTORS
330
47
102
}
330
47
100
AcDbScale
 70
     0
300
3/16" = 1'-0"
140
0.1875
141
12.0
290
     0
  0
SCALE
  5
50
102
{ACAD_REACTORS
330
47
102
}
330
47
100
AcDbScale
 70
     0
300
1/4" = 1'-0"
140
0.25
141
12.0
290
     0
  0
SCALE
  5
51
102
{ACAD_REACTORS
330
47
102
}
330
47
100
AcDbScale
 70
     0
300
3/8" = 1'-0"
140
0.375
141
12.0
290
     0
  0
SCALE
  5
52
102
{ACAD_REACTORS
330
47
102
}
330
47
100
AcDbScale
 70
     0
300
1/2" = 1'-0"
140
0.5
141
12.0
290
     0
  0
SCALE
  5
53
102
{ACAD_REACTORS
330
47
102
}
330
47
100
AcDbScale
 70
     0
300
3/4" = 1'-0"
140
0.75
141
12.0
290
     0
  0
SCALE
  5
54
102
{ACAD_REACTORS
330
47
102
}
330
47
100
AcDbScale
 70
     0
300
1" = 1'-0"
140
1.0
141
12.0
290
     0
  0
SCALE
  5
55
102
{ACAD_REACTORS
330
47
102
}
330
47
100
AcDbScale
 70
     0
300
1-1/2" = 1'-0"
140
1.5
141
12.0
290
     0
  0
SCALE
  5
56
102
{ACAD_REACTORS
330
47
102
}
330
47
100
AcDbScale
 70
     0
300
3" = 1'-0"
140
3.0
141
12.0
290
     0
  0
SCALE
  5
57
102
{ACAD_REACTORS
330
47
102
}
330
47
100
AcDbScale
 70
     0
300
6" = 1'-0"
140
6.0
141
12.0
290
     0
  0
SCALE
  5
58
102
{ACAD_REACTORS
330
47
102
}
330
47
100
AcDbScale
 70
     0
300
1'-0" = 1'-0"
140
12.0
141
12.0
290
     0
  0
ACDBSECTIONVIEWSTYLE
  5
19A
102
{ACAD_REACTORS
330
196
102
}
330
196
100
AcDbModelDocViewStyle
 70
     0
  3
Metric50
290
     0
300
Metric50
 90
        0
100
AcDbSectionViewStyle
 70
     0
 71
     0
 90
      102
 71
     1
340
11
 62
   256
 40
5.0
340
0
340
0
 62
   256
 40
5.0
300
I, O, Q, S, X, Z
 40
10.0
 90
        0
 40
2.5
 90
        0
 71
     2
340
16
 90
       25
 62
   256
340
16
 90
       50
 62
   256
 40
5.0
 40
2.5
 40
5.0
 71
     3
340
11
 62
   256
 40
5.0
 90
        0
 40
15.0
 90
        1
300
%<\AcVar ViewSectionStartId>%-%<\AcVar ViewSectionEndId>% (%<\AcVar ViewScale \f "%sn">%)
 71
     4
 62
   256
 62
   257
300
ANSI31
 40
1.0
 90
        0
290
     0
290
     0
 90
        6
 40
0.0
 40
1.570796326794896
 40
0.2617993877991494
 40
1.308996938995747
 40
-0.2617993877991494
 40
1.832595714594046
  0
TABLESTYLE
  5
5A
102
{ACAD_XDICTIONARY
360
18D
102
}
102
{ACAD_REACTORS
330
59
102
}
330
59
100
AcDbTableStyle
280
     0
  3
Standard
 70
     0
 71
     0
 40
0.06
 41
0.06
280
     0
281
     0
  7
Standard
140
0.18
170
     2
 62
     0
 63
     7
283
     0
 90
        4
 91
        0
  1

274
    -2
284
     1
 64
     0
275
    -2
285
     1
 65
     0
276
    -2
286
     1
 66
     0
277
    -2
287
     1
 67
     0
278
    -2
288
     1
 68
     0
279
    -2
289
     1
 69
     0
  7
Standard
140
0.25
170
     5
 62
     0
 63
     7
283
     0
 90
        4
 91
        0
  1

274
    -2
284
     1
 64
     0
275
    -2
285
     1
 65
     0
276
    -2
286
     1
 66
     0
277
    -2
287
     1
 67
     0
278
    -2
288
     1
 68
     0
279
    -2
289
     1
 69
     0
  7
Standard
140
0.18
170
     5
 62
     0
 63
     7
283
     0
 90
        4
 91
        0
  1

274
    -2
284
     1
 64
     0
275
    -2
285
     1
 65
     0
276
    -2
286
     1
 66
     0
277
    -2
287
     1
 67
     0
278
    -2
288
     1
 68
     0
279
    -2
289
     1
 69
     0
  0
VISUALSTYLE
  5
2F
102
{ACAD_REACTORS
330
2A
102
}
330
2A
100
AcDbVisualStyle
  2

 70
     4
177
     3
291
     0
 70
    58
 90
        0
176
     1
 90
        2
176
     1
 90
        0
176
     1
 90
        0
176
     1
 40
0.6
176
     1
 40
30.0
176
     1
 62
     7
420
 16777215
176
     1
 90
        1
176
     1
 90
        4
176
     1
 62
     7
176
     1
 62
   257
176
     1
 90
        1
176
     1
 90
        1
176
     1
 40
1.0
176
     1
 90
        0
176
     1
 62
   257
176
     1
 40
1.0
176
     1
 90
        1
176
     1
 90
        6
176
     1
 90
        2
176
     1
 62
     7
176
     1
 90
        5
176
     1
 90
        0
176
     1
 90
        0
176
     1
290
     0
176
     1
 90
        1
176
     1
 40
0.0
176
     1
 90
        0
176
     1
290
     1
176
     1
290
     1
176
     1
290
     0
176
     1
290
     0
176
     1
290
     0
176
     1
290
     0
176
     1
290
     0
176
     1
290
     0
176
     1
290
     0
176
     1
 90
       50
176
     1
 40
0.0
176
     1
 40
1.0
176
     1
 90
        0
176
     1
 62
    18
420
        0
176
     1
 90
       50
176
     1
 90
        3
176
     1
 62
     5
420
      255
176
     1
290
     0
176
     1
 90
       50
176
     1
 90
       50
176
     1
 90
       50
176
     1
290
     0
176
     1
 90
       50
176
     1
 62
   256
176
     0
 40
1.0
176
     0
 90
        2
176
     1
  1
strokes_ogs.tif
176
     1
290
     0
176
     1
 40
1.0
176
     1
 40
1.0
176
     1
  0
VISUALSTYLE
  5
32
102
{ACAD_REACTORS
330
2A
102
}
330
2A
100
AcDbVisualStyle
  2

 70
     7
177
     3
291
     1
 70
    58
 90
        1
176
     1
 90
        0
176
     1
 90
        1
176
     1
 90
        0
176
     1
 40
0.6
176
     1
 40
30.0
176
     1
 62
     7
420
 16777215
176
     1
 90
        0
176
     1
 90
        4
176
     1
 62
     7
176
     1
 62
   257
176
     1
 90
        1
176
     1
 90
        1
176
     1
 40
1.0
176
     1
 90
        8
176
     1
 62
     7
176
     1
 40
1.0
176
     1
 90
        1
176
     1
 90
        6
176
     1
 90
        2
176
     1
 62
     7
176
     1
 90
        5
176
     1
 90
        0
176
     1
 90
        0
176
     1
290
     0
176
     1
 90
        1
176
     1
 40
0.0
176
     1
 90
        0
176
     1
290
     0
176
     1
290
     1
176
     1
290
     1
176
     1
290
     0
176
     1
290
     0
176
     1
290
     0
176
     1
290
     0
176
     1
290
     0
176
     1
290
     0
176
     1
 90
       50
176
     1
 40
0.0
176
     1
 40
1.0
176
     1
 90
        0
176
     1
 62
    18
420
        0
176
     1
 90
       50
176
     1
 90
        3
176
     1
 62
     5
420
      255
176
     1
290
     0
176
     1
 90
       50
176
     1
 90
       50
176
     1
 90
       50
176
     1
290
     0
176
     1
 90
       50
176
     1
 62
   256
176
     0
 40
1.0
176
     0
 90
        2
176
     1
  1
strokes_ogs.tif
176
     1
290
     0
176
     1
 40
1.0
176
     1
 40
1.0
176
     1
  0
VISUALSTYLE
  5
36
102
{ACAD_REACTORS
330
2A
102
}
330
2A
100
AcDbVisualStyle
  2

 70
    12
177
     3
291
     1
 70
    58
 90
        2
176
     1
 90
        2
176
     1
 90
        0
176
     1
 90
        0
176
     1
 40
0.6
176
     1
 40
30.0
176
     1
 62
     7
420
 16777215
176
     1
 90
        1
176
     1
 90
        4
176
     1
 62
     7
176
     1
 62
   257
176
     1
 90
        1
176
     1
 90
        1
176
     1
 40
1.0
176
     1
 90
        8
176
     1
 62
     7
176
     1
 40
1.0
176
     1
 90
        1
176
     1
 90
        6
176
     1
 90
        2
176
     1
 62
     7
176
     1
 90
        5
176
     1
 90
        0
176
     1
 90
        0
176
     1
290
     0
176
     1
 90
        1
176
     1
 40
50.0
176
     1
 90
        0
176
     1
290
     0
176
     1
290
     1
176
     1
290
     1
176
     1
290
     0
176
     1
290
     0
176
     1
290
     0
176
     1
290
     0
176
     1
290
     0
176
     1
290
     0
176
     1
 90
       50
176
     1
 40
0.0
176
     1
 40
1.0
176
     1
 90
        0
176
     1
 62
    18
420
        0
176
     1
 90
       50
176
     1
 90
        3
176
     1
 62
     5
420
      255
176
     1
290
     0
176
     1
 90
       50
176
     1
 90
       50
176
     1
 90
       50
176
     1
290
     0
176
     1
 90
       50
176
     1
 62
   256
176
     0
 40
1.0
176
     0
 90
        2
176
     1
  1
strokes_ogs.tif
176
     1
290
     0
176
     1
 40
1.0
176
     1
 40
1.0
176
     1
  0
VISUALSTYLE
  5
3A
102
{ACAD_REACTORS
330
2A
102
}
330
2A
100
AcDbVisualStyle
  2

 70
    16
177
     3
291
     1
 70
    58
 90
        2
176
     1
 90
        2
176
     1
 90
        3
176
     1
 90
        0
176
     1
 40
0.6
176
     1
 40
30.0
176
     1
 62
     8
420
  8421504
176
     1
 90
        1
176
     1
 90
        4
176
     1
 62
     7
176
     1
 62
   257
176
     1
 90
        1
176
     1
 90
        1
176
     1
 40
1.0
176
     1
 90
        8
176
     1
 62
     8
420
  8421504
176
     1
 40
1.0
176
     1
 90
        1
176
     1
 90
        6
176
     1
 90
        2
176
     1
 62
     7
176
     1
 90
        5
176
     1
 90
        0
176
     1
 90
        0
176
     1
290
     0
176
     1
 90
        1
176
     1
 40
0.0
176
     1
 90
        0
176
     1
290
     0
176
     1
290
     1
176
     1
290
     1
176
     1
290
     0
176
     1
290
     0
176
     1
290
     0
176
     1
290
     0
176
     1
290
     0
176
     1
290
     0
176
     1
 90
       50
176
     1
 40
0.0
176
     1
 40
1.0
176
     1
 90
        0
176
     1
 62
    18
420
        0
176
     1
 90
       50
176
     1
 90
        3
176
     1
 62
     5
420
      255
176
     1
290
     0
176
     1
 90
       50
176
     1
 90
       50
176
     1
 90
       50
176
     1
290
     0
176
     1
 90
       50
176
     1
 62
   256
176
     0
 40
1.0
176
     0
 90
        2
176
     1
  1
strokes_ogs.tif
176
     1
290
     0
176
     1
 40
1.0
176
     1
 40
1.0
176
     1
  0
VISUALSTYLE
  5
34
102
{ACAD_REACTORS
330
2A
102
}
330
2A
100
AcDbVisualStyle
  2

 70
     9
177
     3
291
     0
 70
    58
 90
        3
176
     1
 90
        2
176
     1
 90
        0
176
     1
 90
        0
176
     1
 40
0.6
176
     1
 40
30.0
176
     1
 62
     7
420
 16777215
176
     1
 90
        2
176
     1
 90
        2
176
     1
 62
     7
176
     1
 62
   257
176
     1
 90
        1
176
     1
 90
        1
176
     1
 40
179.0
176
     1
 90
        8
176
     1
 62
     7
176
     1
 40
1.0
176
     1
 90
        1
176
     1
 90
        6
176
     1
 90
        2
176
     1
 62
     7
176
     1
 90
        3
176
     1
 90
        0
176
     1
 90
        0
176
     1
290
     0
176
     1
 90
        1
176
     1
 40
0.0
176
     1
 90
        0
176
     1
290
     0
176
     1
290
     1
176
     1
290
     1
176
     1
290
     0
176
     1
290
     0
176
     1
290
     0
176
     1
290
     0
176
     1
290
     0
176
     1
290
     0
176
     1
 90
       50
176
     1
 40
0.0
176
     1
 40
1.0
176
     1
 90
        0
176
     1
 62
    18
420
        0
176
     1
 90
       50
176
     1
 90
        3
176
     1
 62
     5
420
      255
176
     1
290
     0
176
     1
 90
       50
176
     1
 90
       50
176
     1
 90
       50
176
     1
290
     0
176
     1
 90
       50
176
     1
 62
   256
176
     0
 40
1.0
176
     0
 90
        2
176
     1
  1
strokes_ogs.tif
176
     1
290
     0
176
     1
 40
1.0
176
     1
 40
1.0
176
     1
  0
VISUALSTYLE
  5
35
102
{ACAD_REACTORS
330
2A
102
}
330
2A
100
AcDbVisualStyle
  2

 70
    11
177
     3
291
     1
 70
    58
 90
        2
176
     1
 90
        2
176
     1
 90
        0
176
     1
 90
        0
176
     1
 40
0.6
176
     1
 40
30.0
176
     1
 62
     7
420
 16777215
176
     1
 90
        1
176
     1
 90
        4
176
     1
 62
     7
176
     1
 62
   257
176
     1
 90
        1
176
     1
 90
        1
176
     1
 40
1.0
176
     1
 90
        8
176
     1
 62
     7
176
     1
 40
1.0
176
     1
 90
        1
176
     1
 90
        6
176
     1
 90
        2
176
     1
 62
     7
176
     1
 90
        5
176
     1
 90
        0
176
     1
 90
        0
176
     1
290
     0
176
     1
 90
        1
176
     1
 40
-50.0
176
     1
 90
        0
176
     1
290
     0
176
     1
290
     1
176
     1
290
     1
176
     1
290
     0
176
     1
290
     0
176
     1
290
     0
176
     1
290
     0
176
     1
290
     0
176
     1
290
     0
176
     1
 90
       50
176
     1
 40
0.0
176
     1
 40
1.0
176
     1
 90
        0
176
     1
 62
    18
420
        0
176
     1
 90
       50
176
     1
 90
        3
176
     1
 62
     5
420
      255
176
     1
290
     0
176
     1
 90
       50
176
     1
 90
       50
176
     1
 90
       50
176
     1
290
     0
176
     1
 90
       50
176
     1
 62
   256
176
     0
 40
1.0
176
     0
 90
        2
176
     1
  1
strokes_ogs.tif
176
     1
290
     0
176
     1
 40
1.0
176
     1
 40
1.0
176
     1
  0
VISUALSTYLE
  5
3D
102
{ACAD_REACTORS
330
2A
102
}
330
2A
100
AcDbVisualStyle
  2

 70
    22
177
     3
291
     1
 70
    58
 90
        2
176
     0
 90
        2
176
     0
 90
        0
176
     0
 90
        0
176
     0
 40
0.6
176
     0
 40
30.0
176
     0
 62
     7
420
 16777215
176
     0
 90
        1
176
     0
 90
        4
176
     0
 62
     7
176
     0
 62
   257
176
     0
 90
        1
176
     0
 90
        1
176
     0
 40
1.0
176
     0
 90
        8
176
     2
 62
     7
176
     0
 40
1.0
176
     0
 90
        1
176
     0
 90
        6
176
     0
 90
        2
176
     0
 62
     7
176
     0
 90
        5
176
     0
 90
        0
176
     0
 90
        0
176
     0
290
     0
176
     0
 90
        1
176
     0
 40
0.0
176
     0
 90
        0
176
     0
290
     0
176
     0
290
     1
176
     0
290
     1
176
     0
290
     0
176
     0
290
     0
176
     0
290
     0
176
     0
290
     0
176
     0
290
     0
176
     0
290
     0
176
     0
 90
       50
176
     0
 40
0.0
176
     0
 40
1.0
176
     0
 90
        0
176
     0
 62
    18
420
        0
176
     0
 90
       50
176
     0
 90
        3
176
     0
 62
     5
420
      255
176
     0
290
     0
176
     0
 90
       50
176
     0
 90
       50
176
     0
 90
       50
176
     0
290
     0
176
     0
 90
       50
176
     0
 62
   256
176
     0
 40
1.0
176
     0
 90
        2
176
     0
  1
strokes_ogs.tif
176
     0
290
     0
176
     0
 40
1.0
176
     0
 40
1.0
176
     0
  0
VISUALSTYLE
  5
39
102
{ACAD_REACTORS
330
2A
102
}
330
2A
100
AcDbVisualStyle
  2

 70
    15
177
     3
291
     1
 70
    58
 90
        2
176
     1
 90
        2
176
     1
 90
        0
176
     1
 90
        0
176
     1
 40
0.6
176
     1
 40
30.0
176
     1
 62
     7
420
 16777215
176
     1
 90
        1
176
     1
 90
        4
176
     1
 62
     7
176
     1
 62
   257
176
     1
 90
        1
176
     1
 90
        1
176
     1
 40
1.0
176
     1
 90
        8
176
     1
 62
     7
176
     1
 40
1.0
176
     1
 90
        1
176
     1
 90
        6
176
     1
 90
        2
176
     1
 62
     7
176
     1
 90
        5
176
     1
 90
        0
176
     1
 90
        0
176
     1
290
     0
176
     1
 90
        1
176
     1
 40
0.0
176
     1
 90
        0
176
     1
290
     0
176
     1
290
     1
176
     1
290
     1
176
     1
290
     0
176
     1
290
     0
176
     1
290
     0
176
     1
290
     0
176
     1
290
     0
176
     1
290
     0
176
     1
 90
       50
176
     1
 40
0.0
176
     1
 40
1.0
176
     1
 90
        0
176
     1
 62
    18
420
        0
176
     1
 90
       50
176
     1
 90
        3
176
     1
 62
     5
420
      255
176
     1
290
     0
176
     1
 90
       50
176
     1
 90
       50
176
     1
 90
       50
176
     1
290
     0
176
     1
 90
       50
176
     1
 62
   256
176
     0
 40
1.0
176
     0
 90
        2
176
     1
  1
strokes_ogs.tif
176
     1
290
     0
176
     1
 40
1.0
176
     1
 40
1.0
176
     1
  0
VISUALSTYLE
  5
2B
102
{ACAD_REACTORS
330
2A
102
}
330
2A
100
AcDbVisualStyle
  2

 70
     0
177
     3
291
     1
 70
    58
 90
        2
176
     1
 90
        1
176
     1
 90
        1
176
     1
 90
        2
176
     1
 40
0.6
176
     1
 40
30.0
176
     1
 62
     7
420
 16777215
176
     1
 90
        0
176
     1
 90
        0
176
     1
 62
     7
176
     1
 62
   257
176
     1
 90
        1
176
     1
 90
        1
176
     1
 40
1.0
176
     1
 90
        8
176
     1
 62
     7
176
     1
 40
1.0
176
     1
 90
        1
176
     1
 90
        6
176
     1
 90
        2
176
     1
 62
     7
176
     1
 90
        5
176
     1
 90
        0
176
     1
 90
        0
176
     1
290
     0
176
     1
 90
       13
176
     1
 40
0.0
176
     1
 90
        0
176
     1
290
     0
176
     1
290
     1
176
     1
290
     1
176
     1
290
     0
176
     1
290
     0
176
     1
290
     0
176
     1
290
     0
176
     1
290
     0
176
     1
290
     0
176
     1
 90
       50
176
     1
 40
0.0
176
     1
 40
1.0
176
     1
 90
        0
176
     1
 62
    18
420
        0
176
     1
 90
       50
176
     1
 90
        3
176
     1
 62
     5
420
      255
176
     1
290
     0
176
     1
 90
       50
176
     1
 90
       50
176
     1
 90
       50
176
     1
290
     0
176
     1
 90
       50
176
     1
 62
   256
176
     0
 40
1.0
176
     0
 90
        2
176
     1
  1
strokes_ogs.tif
176
     1
290
     0
176
     1
 40
1.0
176
     1
 40
1.0
176
     1
  0
VISUALSTYLE
  5
2C
102
{ACAD_REACTORS
330
2A
102
}
330
2A
100
AcDbVisualStyle
  2

 70
     1
177
     3
291
     1
 70
    58
 90
        2
176
     1
 90
        1
176
     1
 90
        1
176
     1
 90
        2
176
     1
 40
0.6
176
     1
 40
30.0
176
     1
 62
     7
420
 16777215
176
     1
 90
        1
176
     1
 90
        0
176
     1
 62
     7
176
     1
 62
   257
176
     1
 90
        1
176
     1
 90
        1
176
     1
 40
1.0
176
     1
 90
        0
176
     1
 62
   257
176
     1
 40
1.0
176
     1
 90
        1
176
     1
 90
        6
176
     1
 90
        2
176
     1
 62
     7
176
     1
 90
        5
176
     1
 90
        0
176
     1
 90
        0
176
     1
290
     0
176
     1
 90
       13
176
     1
 40
0.0
176
     1
 90
        0
176
     1
290
     0
176
     1
290
     1
176
     1
290
     1
176
     1
290
     0
176
     1
290
     0
176
     1
290
     0
176
     1
290
     0
176
     1
290
     0
176
     1
290
     0
176
     1
 90
       50
176
     1
 40
0.0
176
     1
 40
1.0
176
     1
 90
        0
176
     1
 62
    18
420
        0
176
     1
 90
       50
176
     1
 90
        3
176
     1
 62
     5
420
      255
176
     1
290
     0
176
     1
 90
       50
176
     1
 90
       50
176
     1
 90
       50
176
     1
290
     0
176
     1
 90
       50
176
     1
 62
   256
176
     0
 40
1.0
176
     0
 90
        2
176
     1
  1
strokes_ogs.tif
176
     1
290
     0
176
     1
 40
1.0
176
     1
 40
1.0
176
     1
  0
VISUALSTYLE
  5
2D
102
{ACAD_REACTORS
330
2A
102
}
330
2A
100
AcDbVisualStyle
  2

 70
     2
177
     3
291
     1
 70
    58
 90
        2
176
     1
 90
        2
176
     1
 90
        1
176
     1
 90
        2
176
     1
 40
0.6
176
     1
 40
30.0
176
     1
 62
     7
420
 16777215
176
     1
 90
        0
176
     1
 90
        0
176
     1
 62
     7
176
     1
 62
   257
176
     1
 90
        1
176
     1
 90
        1
176
     1
 40
1.0
176
     1
 90
        0
176
     1
 62
     7
176
     1
 40
1.0
176
     1
 90
        1
176
     1
 90
        6
176
     1
 90
        2
176
     1
 62
     7
176
     1
 90
        5
176
     1
 90
        0
176
     1
 90
        0
176
     1
290
     0
176
     1
 90
       13
176
     1
 40
0.0
176
     1
 90
        0
176
     1
290
     0
176
     1
290
     1
176
     1
290
     1
176
     1
290
     0
176
     1
290
     0
176
     1
290
     0
176
     1
290
     0
176
     1
290
     0
176
     1
290
     0
176
     1
 90
       50
176
     1
 40
0.0
176
     1
 40
1.0
176
     1
 90
        0
176
     1
 62
    18
420
        0
176
     1
 90
       50
176
     1
 90
        3
176
     1
 62
     5
420
      255
176
     1
290
     0
176
     1
 90
       50
176
     1
 90
       50
176
     1
 90
       50
176
     1
290
     0
176
     1
 90
       50
176
     1
 62
   256
176
     0
 40
1.0
176
     0
 90
        2
176
     1
  1
strokes_ogs.tif
176
     1
290
     0
176
     1
 40
1.0
176
     1
 40
1.0
176
     1
  0
VISUALSTYLE
  5
2E
102
{ACAD_REACTORS
330
2A
102
}
330
2A
100
AcDbVisualStyle
  2

 70
     3
177
     3
291
     1
 70
    58
 90
        2
176
     1
 90
        2
176
     1
 90
        1
176
     1
 90
        2
176
     1
 40
0.6
176
     1
 40
30.0
176
     1
 62
     7
420
 16777215
176
     1
 90
        1
176
     1
 90
        0
176
     1
 62
     7
176
     1
 62
   257
176
     1
 90
        1
176
     1
 90
        1
176
     1
 40
1.0
176
     1
 90
        0
176
     1
 62
   257
176
     1
 40
1.0
176
     1
 90
        1
176
     1
 90
        6
176
     1
 90
        2
176
     1
 62
     7
176
     1
 90
        5
176
     1
 90
        0
176
     1
 90
        0
176
     1
290
     0
176
     1
 90
       13
176
     1
 40
0.0
176
     1
 90
        0
176
     1
290
     0
176
     1
290
     1
176
     1
290
     1
176
     1
290
     0
176
     1
290
     0
176
     1
290
     0
176
     1
290
     0
176
     1
290
     0
176
     1
290
     0
176
     1
 90
       50
176
     1
 40
0.0
176
     1
 40
1.0
176
     1
 90
        0
176
     1
 62
    18
420
        0
176
     1
 90
       50
176
     1
 90
        3
176
     1
 62
     5
420
      255
176
     1
290
     0
176
     1
 90
       50
176
     1
 90
       50
176
     1
 90
       50
176
     1
290
     0
176
     1
 90
       50
176
     1
 62
   256
176
     0
 40
1.0
176
     0
 90
        2
176
     1
  1
strokes_ogs.tif
176
     1
290
     0
176
     1
 40
1.0
176
     1
 40
1.0
176
     1
  0
VISUALSTYLE
  5
31
102
{ACAD_REACTORS
330
2A
102
}
330
2A
100
AcDbVisualStyle
  2

 70
     6
177
     3
291
     0
 70
    58
 90
        1
176
     1
 90
        2
176
     1
 90
        2
176
     1
 90
        0
176
     1
 40
0.6
176
     1
 40
30.0
176
     1
 62
     7
420
 16777215
176
     1
 90
        2
176
     1
 90
        2
176
     1
 62
     7
176
     1
 62
   257
176
     1
 90
        2
176
     1
 90
        1
176
     1
 40
40.0
176
     1
 90
        0
176
     1
 62
   257
176
     1
 40
1.0
176
     1
 90
        1
176
     1
 90
        6
176
     1
 90
        2
176
     1
 62
     7
176
     1
 90
        3
176
     1
 90
        0
176
     1
 90
        0
176
     1
290
     0
176
     1
 90
        1
176
     1
 40
0.0
176
     1
 90
        0
176
     1
290
     0
176
     1
290
     1
176
     1
290
     1
176
     1
290
     0
176
     1
290
     0
176
     1
290
     0
176
     1
290
     0
176
     1
290
     0
176
     1
290
     0
176
     1
 90
       50
176
     1
 40
0.0
176
     1
 40
1.0
176
     1
 90
        0
176
     1
 62
    18
420
        0
176
     1
 90
       50
176
     1
 90
        3
176
     1
 62
     5
420
      255
176
     1
290
     0
176
     1
 90
       50
176
     1
 90
       50
176
     1
 90
       50
176
     1
290
     0
176
     1
 90
       50
176
     1
 62
   256
176
     0
 40
1.0
176
     0
 90
        2
176
     1
  1
strokes_ogs.tif
176
     1
290
     0
176
     1
 40
1.0
176
     1
 40
1.0
176
     1
  0
VISUALSTYLE
  5
3B
102
{ACAD_REACTORS
330
2A
102
}
330
2A
100
AcDbVisualStyle
  2

 70
    20
177
     3
291
     1
 70
    58
 90
        2
176
     0
 90
        2
176
     0
 90
        0
176
     0
 90
        0
176
     0
 40
0.6
176
     0
 40
30.0
176
     0
 62
     7
420
 16777215
176
     0
 90
        1
176
     0
 90
        4
176
     0
 62
     7
176
     0
 62
   257
176
     0
 90
        1
176
     0
 90
        1
176
     0
 40
1.0
176
     0
 90
       10
176
     2
 62
     7
176
     0
 40
1.0
176
     0
 90
        1
176
     0
 90
        6
176
     0
 90
        2
176
     0
 62
     7
176
     0
 90
        5
176
     0
 90
        0
176
     0
 90
        0
176
     0
290
     0
176
     0
 90
        1
176
     0
 40
0.0
176
     0
 90
        0
176
     0
290
     0
176
     0
290
     1
176
     0
290
     1
176
     0
290
     0
176
     0
290
     0
176
     0
290
     0
176
     0
290
     0
176
     0
290
     0
176
     0
290
     0
176
     0
 90
       50
176
     0
 40
0.0
176
     0
 40
1.0
176
     0
 90
        0
176
     0
 62
    18
420
        0
176
     0
 90
       50
176
     0
 90
        3
176
     0
 62
     5
420
      255
176
     0
290
     0
176
     0
 90
       50
176
     0
 90
       50
176
     0
 90
       50
176
     0
290
     0
176
     0
 90
       50
176
     0
 62
   256
176
     0
 40
1.0
176
     0
 90
        2
176
     0
  1
strokes_ogs.tif
176
     0
290
     0
176
     0
 40
1.0
176
     0
 40
1.0
176
     0
  0
VISUALSTYLE
  5
38
102
{ACAD_REACTORS
330
2A
102
}
330
2A
100
AcDbVisualStyle
  2

 70
    14
177
     3
291
     1
 70
    58
 90
        2
176
     1
 90
        2
176
     1
 90
        0
176
     1
 90
        0
176
     1
 40
0.6
176
     1
 40
30.0
176
     1
 62
     7
420
 16777215
176
     1
 90
        1
176
     1
 90
        4
176
     1
 62
     7
176
     1
 62
   257
176
     1
 90
        7
176
     1
 90
        7
176
     1
 40
1.0
176
     1
 90
        8
176
     1
 62
     7
176
     1
 40
1.0
176
     1
 90
        1
176
     1
 90
        6
176
     1
 90
        2
176
     1
 62
     7
176
     1
 90
        5
176
     1
 90
        0
176
     1
 90
        0
176
     1
290
     0
176
     1
 90
        1
176
     1
 40
0.0
176
     1
 90
        0
176
     1
290
     0
176
     1
290
     1
176
     1
290
     1
176
     1
290
     0
176
     1
290
     0
176
     1
290
     0
176
     1
290
     0
176
     1
290
     0
176
     1
290
     0
176
     1
 90
       50
176
     1
 40
0.0
176
     1
 40
1.0
176
     1
 90
        0
176
     1
 62
    18
420
        0
176
     1
 90
       50
176
     1
 90
        3
176
     1
 62
     5
420
      255
176
     1
290
     0
176
     1
 90
       50
176
     1
 90
       50
176
     1
 90
       50
176
     1
290
     0
176
     1
 90
       50
176
     1
 62
   256
176
     0
 40
1.0
176
     0
 90
        2
176
     1
  1
strokes_ogs.tif
176
     1
290
     0
176
     1
 40
1.0
176
     1
 40
1.0
176
     1
  0
VISUALSTYLE
  5
3C
102
{ACAD_REACTORS
330
2A
102
}
330
2A
100
AcDbVisualStyle
  2

 70
    21
177
     3
291
     1
 70
    58
 90
        2
176
     0
 90
        2
176
     0
 90
        0
176
     0
 90
        0
176
     0
 40
0.6
176
     0
 40
30.0
176
     0
 62
     7
420
 16777215
176
     0
 90
        1
176
     0
 90
        4
176
     0
 62
     7
176
     0
 62
   257
176
     0
 90
        1
176
     0
 90
        1
176
     0
 40
1.0
176
     0
 90
        9
176
     2
 62
     7
176
     0
 40
1.0
176
     0
 90
        1
176
     0
 90
        6
176
     0
 90
        2
176
     0
 62
     7
176
     0
 90
        5
176
     0
 90
        0
176
     0
 90
        0
176
     0
290
     0
176
     0
 90
        1
176
     0
 40
0.0
176
     0
 90
        0
176
     0
290
     0
176
     0
290
     1
176
     0
290
     1
176
     0
290
     0
176
     0
290
     0
176
     0
290
     0
176
     0
290
     0
176
     0
290
     0
176
     0
290
     0
176
     0
 90
       50
176
     0
 40
0.0
176
     0
 40
1.0
176
     0
 90
        0
176
     0
 62
    18
420
        0
176
     0
 90
       50
176
     0
 90
        3
176
     0
 62
     5
420
      255
176
     0
290
     0
176
     0
 90
       50
176
     0
 90
       50
176
     0
 90
       50
176
     0
290
     0
176
     0
 90
       50
176
     0
 62
   256
176
     0
 40
1.0
176
     0
 90
        2
176
     0
  1
strokes_ogs.tif
176
     0
290
     0
176
     0
 40
1.0
176
     0
 40
1.0
176
     0
  0
VISUALSTYLE
  5
33
102
{ACAD_REACTORS
330
2A
102
}
330
2A
100
AcDbVisualStyle
  2

 70
     8
177
     3
291
     0
 70
    58
 90
        2
176
     1
 90
        3
176
     1
 90
        0
176
     1
 90
        2
176
     1
 40
0.6
176
     1
 40
30.0
176
     1
 62
     7
420
 16777215
176
     1
 90
        0
176
     1
 90
        0
176
     1
 62
     7
176
     1
 62
   257
176
     1
 90
        1
176
     1
 90
        1
176
     1
 40
1.0
176
     1
 90
        8
176
     1
 62
   257
176
     1
 40
1.0
176
     1
 90
        1
176
     1
 90
        6
176
     1
 90
        2
176
     1
 62
     7
176
     1
 90
        3
176
     1
 90
        0
176
     1
 90
        0
176
     1
290
     0
176
     1
 90
       13
176
     1
 40
0.0
176
     1
 90
        0
176
     1
290
     0
176
     1
290
     1
176
     1
290
     1
176
     1
290
     0
176
     1
290
     0
176
     1
290
     0
176
     1
290
     0
176
     1
290
     0
176
     1
290
     0
176
     1
 90
       50
176
     1
 40
0.0
176
     1
 40
1.0
176
     1
 90
        0
176
     1
 62
    18
420
        0
176
     1
 90
       50
176
     1
 90
        3
176
     1
 62
     5
420
      255
176
     1
290
     0
176
     1
 90
       50
176
     1
 90
       50
176
     1
 90
       50
176
     1
290
     0
176
     1
 90
       50
176
     1
 62
   256
176
     0
 40
1.0
176
     0
 90
        2
176
     1
  1
strokes_ogs.tif
176
     1
290
     0
176
     1
 40
1.0
176
     1
 40
1.0
176
     1
  0
VISUALSTYLE
  5
42
102
{ACAD_REACTORS
330
2A
102
}
330
2A
100
AcDbVisualStyle
  2

 70
    27
177
     3
291
     0
 70
    58
 90
        2
176
     1
 90
        2
176
     1
 90
        1
176
     1
 90
        2
176
     1
 40
0.6
176
     1
 40
30.0
176
     1
 62
     7
420
 16777215
176
     1
 90
        0
176
     1
 90
        4
176
     1
 62
     7
176
     1
 62
   257
176
     1
 90
        1
176
     1
 90
        1
176
     1
 40
1.0
176
     1
 90
        8
176
     1
 62
   257
176
     1
 40
1.0
176
     1
 90
        1
176
     1
 90
        6
176
     1
 90
        2
176
     1
 62
     8
420
  7895160
176
     1
 90
        3
176
     1
 90
        0
176
     1
 90
        0
176
     1
290
     0
176
     1
 90
        5
176
     1
 40
0.0
176
     1
 90
        0
176
     1
290
     0
176
     1
290
     1
176
     1
290
     1
176
     1
290
     0
176
     1
290
     0
176
     1
290
     0
176
     1
290
     0
176
     1
290
     0
176
     1
290
     0
176
     1
 90
       50
176
     1
 40
0.0
176
     1
 40
1.0
176
     1
 90
        0
176
     1
 62
    18
420
        0
176
     1
 90
       50
176
     1
 90
        3
176
     1
 62
     5
420
      255
176
     1
290
     0
176
     1
 90
       50
176
     1
 90
       50
176
     1
 90
       50
176
     1
290
     0
176
     1
 90
       50
176
     1
 62
   256
176
     0
 40
1.0
176
     0
 90
        2
176
     1
  1
strokes_ogs.tif
176
     1
290
     0
176
     1
 40
1.0
176
     1
 40
1.0
176
     1
  0
VISUALSTYLE
  5
41
102
{ACAD_REACTORS
330
2A
102
}
330
2A
100
AcDbVisualStyle
  2

 70
    26
177
     3
291
     0
 70
    58
 90
        2
176
     1
 90
        2
176
     1
 90
        1
176
     1
 90
        2
176
     1
 40
0.6
176
     1
 40
30.0
176
     1
 62
     7
420
 16777215
176
     1
 90
        1
176
     1
 90
       10
176
     1
 62
     7
176
     1
 62
   257
176
     1
 90
        2
176
     1
 90
        1
176
     1
 40
1.0
176
     1
 90
        8
176
     1
 62
   257
176
     1
 40
1.0
176
     1
 90
        1
176
     1
 90
        6
176
     1
 90
        2
176
     1
 62
     7
176
     1
 90
        3
176
     1
 90
        0
176
     1
 90
        0
176
     1
290
     0
176
     1
 90
        5
176
     1
 40
0.0
176
     1
 90
        0
176
     1
290
     0
176
     1
290
     1
176
     1
290
     1
176
     1
290
     0
176
     1
290
     0
176
     1
290
     0
176
     1
290
     0
176
     1
290
     0
176
     1
290
     0
176
     1
 90
       50
176
     1
 40
0.0
176
     1
 40
1.0
176
     1
 90
        0
176
     1
 62
    18
420
        0
176
     1
 90
       50
176
     1
 90
        3
176
     1
 62
     5
420
      255
176
     1
290
     0
176
     1
 90
       50
176
     1
 90
       50
176
     1
 90
       50
176
     1
290
     0
176
     1
 90
       50
176
     1
 62
   256
176
     0
 40
1.0
176
     0
 90
        2
176
     1
  1
strokes_ogs.tif
176
     1
290
     0
176
     1
 40
1.0
176
     1
 40
1.0
176
     1
  0
VISUALSTYLE
  5
3E
102
{ACAD_REACTORS
330
2A
102
}
330
2A
100
AcDbVisualStyle
  2

 70
    23
177
     3
291
     0
 70
    58
 90
        2
176
     1
 90
        2
176
     1
 90
        3
176
     1
 90
        0
176
     1
 40
0.6
176
     1
 40
30.0
176
     1
 62
     7
420
 16777215
176
     1
 90
        2
176
     1
 90
        2
176
     1
 62
     7
176
     1
 62
     7
176
     1
 90
        1
176
     1
 90
        1
176
     1
 40
40.0
176
     1
 90
        8
176
     1
 62
     7
176
     1
 40
1.0
176
     1
 90
        1
176
     1
 90
        6
176
     1
 90
        2
176
     1
 62
     7
176
     1
 90
        3
176
     1
 90
        0
176
     1
 90
        0
176
     1
290
     0
176
     1
 90
        1
176
     1
 40
0.0
176
     1
 90
        0
176
     1
290
     0
176
     1
290
     1
176
     1
290
     1
176
     1
290
     0
176
     1
290
     0
176
     1
290
     0
176
     1
290
     0
176
     1
290
     0
176
     1
290
     0
176
     1
 90
       50
176
     1
 40
0.0
176
     1
 40
1.0
176
     1
 90
        0
176
     1
 62
    18
420
        0
176
     1
 90
       50
176
     1
 90
        3
176
     1
 62
     5
420
      255
176
     1
290
     0
176
     1
 90
       50
176
     1
 90
       50
176
     1
 90
       50
176
     1
290
     0
176
     1
 90
       50
176
     1
 62
   256
176
     0
 40
1.0
176
     0
 90
        2
176
     1
  1
strokes_ogs.tif
176
     1
290
     0
176
     1
 40
1.0
176
     1
 40
1.0
176
     1
  0
VISUALSTYLE
  5
3F
102
{ACAD_REACTORS
330
2A
102
}
330
2A
100
AcDbVisualStyle
  2

 70
    24
177
     3
291
     0
 70
    58
 90
        1
176
     1
 90
        2
176
     1
 90
        2
176
     1
 90
        0
176
     1
 40
0.6
176
     1
 40
30.0
176
     1
 62
     7
420
 16777215
176
     1
 90
        2
176
     1
 90
        2
176
     1
 62
     7
176
     1
 62
     7
176
     1
 90
        1
176
     1
 90
        1
176
     1
 40
40.0
176
     1
 90
       11
176
     1
 62
     7
176
     1
 40
1.0
176
     1
 90
        1
176
     1
 90
        6
176
     1
 90
        2
176
     1
 62
     7
176
     1
 90
        6
176
     1
 90
        0
176
     1
 90
        0
176
     1
290
     0
176
     1
 90
        1
176
     1
 40
0.0
176
     1
 90
        0
176
     1
290
     0
176
     1
290
     1
176
     1
290
     1
176
     1
290
     0
176
     1
290
     0
176
     1
290
     0
176
     1
290
     0
176
     1
290
     0
176
     1
290
     0
176
     1
 90
       50
176
     1
 40
0.0
176
     1
 40
1.0
176
     1
 90
        0
176
     1
 62
    18
420
        0
176
     1
 90
       50
176
     1
 90
        3
176
     1
 62
     5
420
      255
176
     1
290
     0
176
     1
 90
       50
176
     1
 90
       50
176
     1
 90
       50
176
     1
290
     0
176
     1
 90
       50
176
     1
 62
   256
176
     0
 40
1.0
176
     0
 90
        2
176
     1
  1
strokes_ogs.tif
176
     1
290
     0
176
     1
 40
1.0
176
     1
 40
1.0
176
     1
  0
VISUALSTYLE
  5
37
102
{ACAD_REACTORS
330
2A
102
}
330
2A
100
AcDbVisualStyle
  2

 70
    13
177
     3
291
     1
 70
    58
 90
        2
176
     1
 90
        2
176
     1
 90
        0
176
     1
 90
        0
176
     1
 40
0.6
176
     1
 40
30.0
176
     1
 62
     7
420
 16777215
176
     1
 90
        1
176
     1
 90
        4
176
     1
 62
     7
176
     1
 62
   257
176
     1
 90
        1
176
     1
 90
        1
176
     1
 40
1.0
176
     1
 90
       12
176
     1
 62
     7
176
     1
 40
1.0
176
     1
 90
        1
176
     1
 90
        6
176
     1
 90
        2
176
     1
 62
     7
176
     1
 90
        5
176
     1
 90
        0
176
     1
 90
        0
176
     1
290
     0
176
     1
 90
        1
176
     1
 40
0.0
176
     1
 90
        0
176
     1
290
     0
176
     1
290
     1
176
     1
290
     1
176
     1
290
     0
176
     1
290
     0
176
     1
290
     0
176
     1
290
     0
176
     1
290
     0
176
     1
290
     0
176
     1
 90
       50
176
     1
 40
0.0
176
     1
 40
1.0
176
     1
 90
        0
176
     1
 62
    18
420
        0
176
     1
 90
       50
176
     1
 90
        3
176
     1
 62
     5
420
      255
176
     1
290
     0
176
     1
 90
       50
176
     1
 90
       50
176
     1
 90
       50
176
     1
290
     0
176
     1
 90
       50
176
     1
 62
   256
176
     0
 40
1.0
176
     0
 90
        2
176
     1
  1
strokes_ogs.tif
176
     1
290
     0
176
     1
 40
1.0
176
     1
 40
1.0
176
     1
  0
VISUALSTYLE
  5
30
102
{ACAD_REACTORS
330
2A
102
}
330
2A
100
AcDbVisualStyle
  2

 70
     5
177
     3
291
     0
 70
    58
 90
        0
176
     1
 90
        2
176
     1
 90
        0
176
     1
 90
        0
176
     1
 40
0.6
176
     1
 40
30.0
176
     1
 62
     7
420
 16777215
176
     1
 90
        1
176
     1
 90
        4
176
     1
 62
     7
176
     1
 62
   257
176
     1
 90
        1
176
     1
 90
        1
176
     1
 40
1.0
176
     1
 90
        0
176
     1
 62
   257
176
     1
 40
1.0
176
     1
 90
        1
176
     1
 90
        6
176
     1
 90
        2
176
     1
 62
     7
176
     1
 90
        3
176
     1
 90
        0
176
     1
 90
        0
176
     1
290
     0
176
     1
 90
        1
176
     1
 40
0.0
176
     1
 90
        0
176
     1
290
     0
176
     1
290
     1
176
     1
290
     1
176
     1
290
     0
176
     1
290
     0
176
     1
290
     0
176
     1
290
     0
176
     1
290
     0
176
     1
290
     0
176
     1
 90
       50
176
     1
 40
0.0
176
     1
 40
1.0
176
     1
 90
        0
176
     1
 62
    18
420
        0
176
     1
 90
       50
176
     1
 90
        3
176
     1
 62
     5
420
      255
176
     1
290
     0
176
     1
 90
       50
176
     1
 90
       50
176
     1
 90
       50
176
     1
290
     0
176
     1
 90
       50
176
     1
 62
   256
176
     0
 40
1.0
176
     0
 90
        2
176
     1
  1
strokes_ogs.tif
176
     1
290
     0
176
     1
 40
1.0
176
     1
 40
1.0
176
     1
  0
VISUALSTYLE
  5
40
102
{ACAD_REACTORS
330
2A
102
}
330
2A
100
AcDbVisualStyle
  2

 70
    25
177
     3
291
     0
 70
    58
 90
        2
176
     1
 90
        2
176
     1
 90
        1
176
     1
 90
        1
176
     1
 40
0.5
176
     1
 40
30.0
176
     1
 62
     7
420
 16777215
176
     1
 90
        1
176
     1
 90
        0
176
     1
 62
     7
176
     1
 62
   257
176
     1
 90
        1
176
     1
 90
        1
176
     1
 40
1.0
176
     1
 90
        8
176
     1
 62
     7
176
     1
 40
1.0
176
     1
 90
        1
176
     1
 90
        6
176
     1
 90
        2
176
     1
 62
     7
176
     1
 90
        3
176
     1
 90
        0
176
     1
 90
        0
176
     1
290
     0
176
     1
 90
       13
176
     1
 40
0.0
176
     1
 90
        0
176
     1
290
     0
176
     1
290
     1
176
     1
290
     1
176
     1
290
     0
176
     1
290
     0
176
     1
290
     0
176
     1
290
     0
176
     1
290
     0
176
     1
290
     0
176
     1
 90
       50
176
     1
 40
0.0
176
     1
 40
1.0
176
     1
 90
        0
176
     1
 62
    18
420
        0
176
     1
 90
       50
176
     1
 90
        3
176
     1
 62
     5
420
      255
176
     1
290
     0
176
     1
 90
       50
176
     1
 90
       50
176
     1
 90
       50
176
     1
290
     0
176
     1
 90
       50
176
     1
 62
   256
176
     0
 40
1.0
176
     0
 90
        2
176
     1
  1
strokes_ogs.tif
176
     1
290
     0
176
     1
 40
1.0
176
     1
 40
1.0
176
     1
  0
DICTIONARYVAR
  5
15B
102
{ACAD_REACTORS
330
15A
102
}
330
15A
100
DictionaryVariables
280
     0
  1
1:1
  0
DICTIONARYVAR
  5
194
102
{ACAD_REACTORS
330
15A
102
}
330
15A
100
DictionaryVariables
280
     0
  1
STANDARD
  0
DICTIONARYVAR
  5
193
102
{ACAD_REACTORS
330
15A
102
}
330
15A
100
DictionaryVariables
280
     0
  1
STANDARD
  0
DICTIONARYVAR
  5
1AE
102
{ACAD_REACTORS
330
15A
102
}
330
15A
100
DictionaryVariables
280
     0
  1
Metric50
  0
DICTIONARYVAR
  5
1AF
102
{ACAD_REACTORS
330
15A
102
}
330
15A
100
DictionaryVariables
280
     0
  1
Metric50
  0
DICTIONARYVAR
  5
1B0
102
{ACAD_REACTORS
330
15A
102
}
330
15A
100
DictionaryVariables
280
     0
  1
1
  0
DICTIONARYVAR
  5
1B1
102
{ACAD_REACTORS
330
15A
102
}
330
15A
100
DictionaryVariables
280
     0
  1
15
  0
DICTIONARY
  5
18D
330
5A
100
AcDbDictionary
280
     1
281
     1
  3
ACAD_ROUNDTRIP_2008_TABLESTYLE_CELLSTYLEMAP
360
1B3
  0
CELLSTYLEMAP
  5
1B3
102
{ACAD_REACTORS
330
18D
102
}
330
18D
100
AcDbCellStyleMap
 90
        3
300
CELLSTYLE
  1
TABLEFORMAT_BEGIN
 90
        5
170
     1
 91
        0
 92
    32768
 62
   257
 93
        1
300
CONTENTFORMAT
  1
CONTENTFORMAT_BEGIN
 90
        0
 91
        0
 92
        4
 93
        0
300

 40
0.0
140
1.0
 94
        5
 62
     0
340
11
144
0.25
309
CONTENTFORMAT_END
171
     1
301
MARGIN
  1
CELLMARGIN_BEGIN
 40
0.06
 40
0.06
 40
0.06
 40
0.06
 40
0.18
 40
0.18
309
CELLMARGIN_END
 94
        6
 95
        1
302
GRIDFORMAT
  1
GRIDFORMAT_BEGIN
 90
        0
 91
        1
 62
     0
 92
       -2
340
14
 93
        0
 40
0.045
309
GRIDFORMAT_END
 95
        2
302
GRIDFORMAT
  1
GRIDFORMAT_BEGIN
 90
        0
 91
        1
 62
     0
 92
       -2
340
14
 93
        0
 40
0.045
309
GRIDFORMAT_END
 95
        4
302
GRIDFORMAT
  1
GRIDFORMAT_BEGIN
 90
        0
 91
        1
 62
     0
 92
       -2
340
14
 93
        0
 40
0.045
309
GRIDFORMAT_END
 95
        8
302
GRIDFORMAT
  1
GRIDFORMAT_BEGIN
 90
        0
 91
        1
 62
     0
 92
       -2
340
14
 93
        0
 40
0.045
309
GRIDFORMAT_END
 95
       16
302
GRIDFORMAT
  1
GRIDFORMAT_BEGIN
 90
        0
 91
        1
 62
     0
 92
       -2
340
14
 93
        0
 40
0.045
309
GRIDFORMAT_END
 95
       32
302
GRIDFORMAT
  1
GRIDFORMAT_BEGIN
 90
        0
 91
        1
 62
     0
 92
       -2
340
14
 93
        0
 40
0.045
309
GRIDFORMAT_END
309
TABLEFORMAT_END
  1
CELLSTYLE_BEGIN
 90
        1
 91
        1
300
_TITLE
309
CELLSTYLE_END
300
CELLSTYLE
  1
TABLEFORMAT_BEGIN
 90
        5
170
     1
 91
        0
 92
        0
 62
   257
 93
        1
300
CONTENTFORMAT
  1
CONTENTFORMAT_BEGIN
 90
        0
 91
        0
 92
        4
 93
        0
300

 40
0.0
140
1.0
 94
        5
 62
     0
340
11
144
0.18
309
CONTENTFORMAT_END
171
     1
301
MARGIN
  1
CELLMARGIN_BEGIN
 40
0.06
 40
0.06
 40
0.06
 40
0.06
 40
0.18
 40
0.18
309
CELLMARGIN_END
 94
        6
 95
        1
302
GRIDFORMAT
  1
GRIDFORMAT_BEGIN
 90
        0
 91
        1
 62
     0
 92
       -2
340
14
 93
        0
 40
0.045
309
GRIDFORMAT_END
 95
        2
302
GRIDFORMAT
  1
GRIDFORMAT_BEGIN
 90
        0
 91
        1
 62
     0
 92
       -2
340
14
 93
        0
 40
0.045
309
GRIDFORMAT_END
 95
        4
302
GRIDFORMAT
  1
GRIDFORMAT_BEGIN
 90
        0
 91
        1
 62
     0
 92
       -2
340
14
 93
        0
 40
0.045
309
GRIDFORMAT_END
 95
        8
302
GRIDFORMAT
  1
GRIDFORMAT_BEGIN
 90
        0
 91
        1
 62
     0
 92
       -2
340
14
 93
        0
 40
0.045
309
GRIDFORMAT_END
 95
       16
302
GRIDFORMAT
  1
GRIDFORMAT_BEGIN
 90
        0
 91
        1
 62
     0
 92
       -2
340
14
 93
        0
 40
0.045
309
GRIDFORMAT_END
 95
       32
302
GRIDFORMAT
  1
GRIDFORMAT_BEGIN
 90
        0
 91
        1
 62
     0
 92
       -2
340
14
 93
        0
 40
0.045
309
GRIDFORMAT_END
309
TABLEFORMAT_END
  1
CELLSTYLE_BEGIN
 90
        2
 91
        1
300
_HEADER
309
CELLSTYLE_END
300
CELLSTYLE
  1
TABLEFORMAT_BEGIN
 90
        5
170
     1
 91
        0
 92
        0
 62
   257
 93
        1
300
CONTENTFORMAT
  1
CONTENTFORMAT_BEGIN
 90
        0
 91
        0
 92
        4
 93
        0
300

 40
0.0
140
1.0
 94
        2
 62
     0
340
11
144
0.18
309
CONTENTFORMAT_END
171
     1
301
MARGIN
  1
CELLMARGIN_BEGIN
 40
0.06
 40
0.06
 40
0.06
 40
0.06
 40
0.18
 40
0.18
309
CELLMARGIN_END
 94
        6
 95
        1
302
GRIDFORMAT
  1
GRIDFORMAT_BEGIN
 90
        0
 91
        1
 62
     0
 92
       -2
340
14
 93
        0
 40
0.045
309
GRIDFORMAT_END
 95
        2
302
GRIDFORMAT
  1
GRIDFORMAT_BEGIN
 90
        0
 91
        1
 62
     0
 92
       -2
340
14
 93
        0
 40
0.045
309
GRIDFORMAT_END
 95
        4
302
GRIDFORMAT
  1
GRIDFORMAT_BEGIN
 90
        0
 91
        1
 62
     0
 92
       -2
340
14
 93
        0
 40
0.045
309
GRIDFORMAT_END
 95
        8
302
GRIDFORMAT
  1
GRIDFORMAT_BEGIN
 90
        0
 91
        1
 62
     0
 92
       -2
340
14
 93
        0
 40
0.045
309
GRIDFORMAT_END
 95
       16
302
GRIDFORMAT
  1
GRIDFORMAT_BEGIN
 90
        0
 91
        1
 62
     0
 92
       -2
340
14
 93
        0
 40
0.045
309
GRIDFORMAT_END
 95
       32
302
GRIDFORMAT
  1
GRIDFORMAT_BEGIN
 90
        0
 91
        1
 62
     0
 92
       -2
340
14
 93
        0
 40
0.045
309
GRIDFORMAT_END
309
TABLEFORMAT_END
  1
CELLSTYLE_BEGIN
 90
        3
 91
        2
300
_DATA
309
CELLSTYLE_END
  0
ENDSEC
  0
EOF
